<?xml version="1.0" encoding="UTF-8" standalone="no"?>
<!DOCTYPE svg PUBLIC "-//W3C//DTD SVG 1.1//EN"
 "http://www.w3.org/Graphics/SVG/1.1/DTD/svg11.dtd">
<!-- Generated by graphviz version 2.40.1 (20161225.0304)
 -->
<!-- Title: dependencies Pages: 1 -->
<svg width="646pt" height="284pt"
 viewBox="0.00 0.00 646.00 284.00" xmlns="http://www.w3.org/2000/svg" xmlns:xlink="http://www.w3.org/1999/xlink">
<g id="graph0" class="graph" transform="scale(1 1) rotate(0) translate(4 280)">
<title>dependencies</title>
<polygon fill="#ffffff" stroke="transparent" points="-4,4 -4,-280 642,-280 642,4 -4,4"/>
<text text-anchor="start" x="298.0091" y="-42.4" font-family="sans-serif" font-weight="bold" font-size="14.00" fill="#000000">Legend</text>
<polygon fill="#ffffb3" stroke="transparent" points="85,-10 85,-30 105,-30 105,-10 85,-10"/>
<text text-anchor="start" x="108.629" y="-15.4" font-family="sans-serif" font-size="14.00" fill="#000000"> &#160;Declarations</text>
<polygon fill="#8dd3c7" stroke="transparent" points="198,-10 198,-30 218,-30 218,-10 198,-10"/>
<text text-anchor="start" x="221.7251" y="-15.4" font-family="sans-serif" font-size="14.00" fill="#000000"> &#160;Module</text>
<polygon fill="#80b1d3" stroke="transparent" points="284,-10 284,-30 304,-30 304,-10 284,-10"/>
<text text-anchor="start" x="307.7812" y="-15.4" font-family="sans-serif" font-size="14.00" fill="#000000"> &#160;Bootstrap</text>
<polygon fill="#fdb462" stroke="transparent" points="381,-10 381,-30 401,-30 401,-10 381,-10"/>
<text text-anchor="start" x="404.6732" y="-15.4" font-family="sans-serif" font-size="14.00" fill="#000000"> &#160;Providers</text>
<polygon fill="#fb8072" stroke="transparent" points="477,-10 477,-30 497,-30 497,-10 477,-10"/>
<text text-anchor="start" x="500.7258" y="-15.4" font-family="sans-serif" font-size="14.00" fill="#000000"> &#160;Exports</text>
<g id="clust1" class="cluster">
<title>cluster_AttributesSearchModule</title>
<polygon fill="none" stroke="#000000" stroke-dasharray="1,5" points="8,-70 8,-268 630,-268 630,-70 8,-70"/>
</g>
<g id="clust2" class="cluster">
<title>cluster_AttributesSearchModule_declarations</title>
<polygon fill="none" stroke="#000000" points="430,-78 430,-130 622,-130 622,-78 430,-78"/>
</g>
<g id="clust4" class="cluster">
<title>cluster_AttributesSearchModule_imports</title>
<polygon fill="none" stroke="#000000" points="16,-78 16,-130 422,-130 422,-78 16,-78"/>
</g>
<g id="clust5" class="cluster">
<title>cluster_AttributesSearchModule_exports</title>
<polygon fill="none" stroke="#000000" points="188,-208 188,-260 382,-260 382,-208 188,-208"/>
</g>
<!-- AttributesSearchComponent -->
<g id="node1" class="node">
<title>AttributesSearchComponent</title>
<polygon fill="#ffffb3" stroke="#000000" points="613.9087,-122 438.0913,-122 438.0913,-86 613.9087,-86 613.9087,-122"/>
<text text-anchor="middle" x="526" y="-99.8" font-family="Times,serif" font-size="14.00" fill="#000000">AttributesSearchComponent</text>
</g>
<!-- AttributesSearchModule -->
<g id="node2" class="node">
<title>AttributesSearchModule</title>
<polygon fill="#8dd3c7" stroke="#000000" points="361.6261,-187 358.6261,-191 337.6261,-191 334.6261,-187 208.3739,-187 208.3739,-151 361.6261,-151 361.6261,-187"/>
<text text-anchor="middle" x="285" y="-164.8" font-family="Times,serif" font-size="14.00" fill="#000000">AttributesSearchModule</text>
</g>
<!-- AttributesSearchComponent&#45;&gt;AttributesSearchModule -->
<g id="edge1" class="edge">
<title>AttributesSearchComponent&#45;&gt;AttributesSearchModule</title>
<path fill="none" stroke="#000000" d="M526,-122.1061C526,-141.3391 526,-169 526,-169 526,-169 371.9165,-169 371.9165,-169"/>
<polygon fill="#000000" stroke="#000000" points="371.9166,-165.5001 361.9165,-169 371.9165,-172.5001 371.9166,-165.5001"/>
</g>
<!-- AttributesSearchComponent  -->
<g id="node6" class="node">
<title>AttributesSearchComponent </title>
<polygon fill="#fb8072" stroke="#000000" points="374.4082,-252 195.5918,-252 195.5918,-216 374.4082,-216 374.4082,-252"/>
<text text-anchor="middle" x="285" y="-229.8" font-family="Times,serif" font-size="14.00" fill="#000000">AttributesSearchComponent </text>
</g>
<!-- AttributesSearchModule&#45;&gt;AttributesSearchComponent  -->
<g id="edge5" class="edge">
<title>AttributesSearchModule&#45;&gt;AttributesSearchComponent </title>
<path fill="none" stroke="#000000" stroke-dasharray="5,2" d="M285,-187.1061C285,-187.1061 285,-205.991 285,-205.991"/>
<polygon fill="#000000" stroke="#000000" points="281.5001,-205.9909 285,-215.991 288.5001,-205.991 281.5001,-205.9909"/>
</g>
<!-- CommonModule -->
<g id="node3" class="node">
<title>CommonModule</title>
<polygon fill="#8dd3c7" stroke="#000000" points="413.6681,-122 410.6681,-126 389.6681,-126 386.6681,-122 302.3319,-122 302.3319,-86 413.6681,-86 413.6681,-122"/>
<text text-anchor="middle" x="358" y="-99.8" font-family="Times,serif" font-size="14.00" fill="#000000">CommonModule</text>
</g>
<!-- CommonModule&#45;&gt;AttributesSearchModule -->
<g id="edge2" class="edge">
<title>CommonModule&#45;&gt;AttributesSearchModule</title>
<path fill="none" stroke="#000000" d="M331.9895,-122.1061C331.9895,-122.1061 331.9895,-140.991 331.9895,-140.991"/>
<polygon fill="#000000" stroke="#000000" points="328.4896,-140.9909 331.9895,-150.991 335.4896,-140.991 328.4896,-140.9909"/>
</g>
<!-- ProductServiceModule -->
<g id="node4" class="node">
<title>ProductServiceModule</title>
<polygon fill="#8dd3c7" stroke="#000000" points="284.5758,-122 281.5758,-126 260.5758,-126 257.5758,-122 139.4242,-122 139.4242,-86 284.5758,-86 284.5758,-122"/>
<text text-anchor="middle" x="212" y="-99.8" font-family="Times,serif" font-size="14.00" fill="#000000">ProductServiceModule</text>
</g>
<!-- ProductServiceModule&#45;&gt;AttributesSearchModule -->
<g id="edge3" class="edge">
<title>ProductServiceModule&#45;&gt;AttributesSearchModule</title>
<path fill="none" stroke="#000000" d="M246.3626,-122.1061C246.3626,-122.1061 246.3626,-140.991 246.3626,-140.991"/>
<polygon fill="#000000" stroke="#000000" points="242.8626,-140.9909 246.3626,-150.991 249.8626,-140.991 242.8626,-140.9909"/>
</g>
<!-- RouterModule -->
<g id="node5" class="node">
<title>RouterModule</title>
<polygon fill="#8dd3c7" stroke="#000000" points="121.6528,-122 118.6528,-126 97.6528,-126 94.6528,-122 24.3472,-122 24.3472,-86 121.6528,-86 121.6528,-122"/>
<text text-anchor="middle" x="73" y="-99.8" font-family="Times,serif" font-size="14.00" fill="#000000">RouterModule</text>
</g>
<!-- RouterModule&#45;&gt;AttributesSearchModule -->
<g id="edge4" class="edge">
<title>RouterModule&#45;&gt;AttributesSearchModule</title>
<path fill="none" stroke="#000000" d="M73,-122.1061C73,-141.3391 73,-169 73,-169 73,-169 198.1634,-169 198.1634,-169"/>
<polygon fill="#000000" stroke="#000000" points="198.1634,-172.5001 208.1634,-169 198.1634,-165.5001 198.1634,-172.5001"/>
</g>
</g>
</svg>
