<?xml version="1.0" encoding="UTF-8" standalone="no"?>
<!DOCTYPE svg PUBLIC "-//W3C//DTD SVG 1.1//EN"
 "http://www.w3.org/Graphics/SVG/1.1/DTD/svg11.dtd">
<!-- Generated by graphviz version 2.40.1 (20161225.0304)
 -->
<!-- Title: dependencies Pages: 1 -->
<svg width="531pt" height="284pt"
 viewBox="0.00 0.00 531.00 284.00" xmlns="http://www.w3.org/2000/svg" xmlns:xlink="http://www.w3.org/1999/xlink">
<g id="graph0" class="graph" transform="scale(1 1) rotate(0) translate(4 280)">
<title>dependencies</title>
<polygon fill="#ffffff" stroke="transparent" points="-4,4 -4,-280 527,-280 527,4 -4,4"/>
<text text-anchor="start" x="240.5091" y="-42.4" font-family="sans-serif" font-weight="bold" font-size="14.00" fill="#000000">Legend</text>
<polygon fill="#ffffb3" stroke="transparent" points="27.5,-10 27.5,-30 47.5,-30 47.5,-10 27.5,-10"/>
<text text-anchor="start" x="51.129" y="-15.4" font-family="sans-serif" font-size="14.00" fill="#000000"> &#160;Declarations</text>
<polygon fill="#8dd3c7" stroke="transparent" points="140.5,-10 140.5,-30 160.5,-30 160.5,-10 140.5,-10"/>
<text text-anchor="start" x="164.2251" y="-15.4" font-family="sans-serif" font-size="14.00" fill="#000000"> &#160;Module</text>
<polygon fill="#80b1d3" stroke="transparent" points="226.5,-10 226.5,-30 246.5,-30 246.5,-10 226.5,-10"/>
<text text-anchor="start" x="250.2812" y="-15.4" font-family="sans-serif" font-size="14.00" fill="#000000"> &#160;Bootstrap</text>
<polygon fill="#fdb462" stroke="transparent" points="323.5,-10 323.5,-30 343.5,-30 343.5,-10 323.5,-10"/>
<text text-anchor="start" x="347.1732" y="-15.4" font-family="sans-serif" font-size="14.00" fill="#000000"> &#160;Providers</text>
<polygon fill="#fb8072" stroke="transparent" points="419.5,-10 419.5,-30 439.5,-30 439.5,-10 419.5,-10"/>
<text text-anchor="start" x="443.2258" y="-15.4" font-family="sans-serif" font-size="14.00" fill="#000000"> &#160;Exports</text>
<g id="clust1" class="cluster">
<title>cluster_AttributesSearchModule</title>
<polygon fill="none" stroke="#000000" stroke-dasharray="1,5" points="8,-70 8,-268 515,-268 515,-70 8,-70"/>
</g>
<g id="clust2" class="cluster">
<title>cluster_AttributesSearchModule_declarations</title>
<polygon fill="none" stroke="#000000" points="315,-78 315,-130 507,-130 507,-78 315,-78"/>
</g>
<g id="clust4" class="cluster">
<title>cluster_AttributesSearchModule_imports</title>
<polygon fill="none" stroke="#000000" points="16,-78 16,-130 307,-130 307,-78 16,-78"/>
</g>
<g id="clust5" class="cluster">
<title>cluster_AttributesSearchModule_exports</title>
<polygon fill="none" stroke="#000000" points="146,-208 146,-260 340,-260 340,-208 146,-208"/>
</g>
<!-- AttributesSearchComponent -->
<g id="node1" class="node">
<title>AttributesSearchComponent</title>
<polygon fill="#ffffb3" stroke="#000000" points="498.9087,-122 323.0913,-122 323.0913,-86 498.9087,-86 498.9087,-122"/>
<text text-anchor="middle" x="411" y="-99.8" font-family="Times,serif" font-size="14.00" fill="#000000">AttributesSearchComponent</text>
</g>
<!-- AttributesSearchModule -->
<g id="node2" class="node">
<title>AttributesSearchModule</title>
<polygon fill="#8dd3c7" stroke="#000000" points="319.6261,-187 316.6261,-191 295.6261,-191 292.6261,-187 166.3739,-187 166.3739,-151 319.6261,-151 319.6261,-187"/>
<text text-anchor="middle" x="243" y="-164.8" font-family="Times,serif" font-size="14.00" fill="#000000">AttributesSearchModule</text>
</g>
<!-- AttributesSearchComponent&#45;&gt;AttributesSearchModule -->
<g id="edge1" class="edge">
<title>AttributesSearchComponent&#45;&gt;AttributesSearchModule</title>
<path fill="none" stroke="#000000" d="M327.875,-122.1061C327.875,-141.3391 327.875,-169 327.875,-169 327.875,-169 327.0612,-169 327.0612,-169"/>
<polygon fill="#000000" stroke="#000000" points="329.7369,-165.5001 319.7368,-169 329.7368,-172.5001 329.7369,-165.5001"/>
</g>
<!-- AttributesSearchComponent  -->
<g id="node5" class="node">
<title>AttributesSearchComponent </title>
<polygon fill="#fb8072" stroke="#000000" points="332.4082,-252 153.5918,-252 153.5918,-216 332.4082,-216 332.4082,-252"/>
<text text-anchor="middle" x="243" y="-229.8" font-family="Times,serif" font-size="14.00" fill="#000000">AttributesSearchComponent </text>
</g>
<!-- AttributesSearchModule&#45;&gt;AttributesSearchComponent  -->
<g id="edge4" class="edge">
<title>AttributesSearchModule&#45;&gt;AttributesSearchComponent </title>
<path fill="none" stroke="#000000" stroke-dasharray="5,2" d="M243,-187.1061C243,-187.1061 243,-205.991 243,-205.991"/>
<polygon fill="#000000" stroke="#000000" points="239.5001,-205.9909 243,-215.991 246.5001,-205.991 239.5001,-205.9909"/>
</g>
<!-- CommonModule -->
<g id="node3" class="node">
<title>CommonModule</title>
<polygon fill="#8dd3c7" stroke="#000000" points="298.6681,-122 295.6681,-126 274.6681,-126 271.6681,-122 187.3319,-122 187.3319,-86 298.6681,-86 298.6681,-122"/>
<text text-anchor="middle" x="243" y="-99.8" font-family="Times,serif" font-size="14.00" fill="#000000">CommonModule</text>
</g>
<!-- CommonModule&#45;&gt;AttributesSearchModule -->
<g id="edge2" class="edge">
<title>CommonModule&#45;&gt;AttributesSearchModule</title>
<path fill="none" stroke="#000000" d="M243,-122.1061C243,-122.1061 243,-140.991 243,-140.991"/>
<polygon fill="#000000" stroke="#000000" points="239.5001,-140.9909 243,-150.991 246.5001,-140.991 239.5001,-140.9909"/>
</g>
<!-- ProductServiceModule -->
<g id="node4" class="node">
<title>ProductServiceModule</title>
<polygon fill="#8dd3c7" stroke="#000000" points="169.5758,-122 166.5758,-126 145.5758,-126 142.5758,-122 24.4242,-122 24.4242,-86 169.5758,-86 169.5758,-122"/>
<text text-anchor="middle" x="97" y="-99.8" font-family="Times,serif" font-size="14.00" fill="#000000">ProductServiceModule</text>
</g>
<!-- ProductServiceModule&#45;&gt;AttributesSearchModule -->
<g id="edge3" class="edge">
<title>ProductServiceModule&#45;&gt;AttributesSearchModule</title>
<path fill="none" stroke="#000000" d="M159.8666,-122.1061C159.8666,-141.3391 159.8666,-169 159.8666,-169 159.8666,-169 160.4914,-169 160.4914,-169"/>
<polygon fill="#000000" stroke="#000000" points="156.1151,-172.5002 166.1151,-169 156.115,-165.5002 156.1151,-172.5002"/>
</g>
</g>
</svg>
