<?xml version="1.0" encoding="UTF-8" standalone="no"?>
<!DOCTYPE svg PUBLIC "-//W3C//DTD SVG 1.1//EN"
 "http://www.w3.org/Graphics/SVG/1.1/DTD/svg11.dtd">
<!-- Generated by graphviz version 2.40.1 (20161225.0304)
 -->
<!-- Title: dependencies Pages: 1 -->
<svg width="504pt" height="211pt"
 viewBox="0.00 0.00 504.00 211.00" xmlns="http://www.w3.org/2000/svg" xmlns:xlink="http://www.w3.org/1999/xlink">
<g id="graph0" class="graph" transform="scale(1 1) rotate(0) translate(4 207)">
<title>dependencies</title>
<polygon fill="#ffffff" stroke="transparent" points="-4,4 -4,-207 500,-207 500,4 -4,4"/>
<text text-anchor="start" x="227.0091" y="-42.4" font-family="sans-serif" font-weight="bold" font-size="14.00" fill="#000000">Legend</text>
<polygon fill="#ffffb3" stroke="transparent" points="14,-10 14,-30 34,-30 34,-10 14,-10"/>
<text text-anchor="start" x="37.629" y="-15.4" font-family="sans-serif" font-size="14.00" fill="#000000"> &#160;Declarations</text>
<polygon fill="#8dd3c7" stroke="transparent" points="127,-10 127,-30 147,-30 147,-10 127,-10"/>
<text text-anchor="start" x="150.7251" y="-15.4" font-family="sans-serif" font-size="14.00" fill="#000000"> &#160;Module</text>
<polygon fill="#80b1d3" stroke="transparent" points="213,-10 213,-30 233,-30 233,-10 213,-10"/>
<text text-anchor="start" x="236.7812" y="-15.4" font-family="sans-serif" font-size="14.00" fill="#000000"> &#160;Bootstrap</text>
<polygon fill="#fdb462" stroke="transparent" points="310,-10 310,-30 330,-30 330,-10 310,-10"/>
<text text-anchor="start" x="333.6732" y="-15.4" font-family="sans-serif" font-size="14.00" fill="#000000"> &#160;Providers</text>
<polygon fill="#fb8072" stroke="transparent" points="406,-10 406,-30 426,-30 426,-10 406,-10"/>
<text text-anchor="start" x="429.7258" y="-15.4" font-family="sans-serif" font-size="14.00" fill="#000000"> &#160;Exports</text>
<g id="clust1" class="cluster">
<title>cluster_ProductServiceModule</title>
<polygon fill="none" stroke="#000000" stroke-dasharray="1,5" points="110,-70 110,-195 386,-195 386,-70 110,-70"/>
</g>
<g id="clust3" class="cluster">
<title>cluster_ProductServiceModule_imports</title>
<polygon fill="none" stroke="#000000" points="282,-78 282,-130 378,-130 378,-78 282,-78"/>
</g>
<g id="clust6" class="cluster">
<title>cluster_ProductServiceModule_providers</title>
<polygon fill="none" stroke="#000000" points="118,-78 118,-130 274,-130 274,-78 118,-78"/>
</g>
<!-- DalModule -->
<g id="node1" class="node">
<title>DalModule</title>
<polygon fill="#8dd3c7" stroke="#000000" points="369.762,-122 366.762,-126 345.762,-126 342.762,-122 290.238,-122 290.238,-86 369.762,-86 369.762,-122"/>
<text text-anchor="middle" x="330" y="-99.8" font-family="Times,serif" font-size="14.00" fill="#000000">DalModule</text>
</g>
<!-- ProductServiceModule -->
<g id="node2" class="node">
<title>ProductServiceModule</title>
<polygon fill="#8dd3c7" stroke="#000000" points="322.5758,-187 319.5758,-191 298.5758,-191 295.5758,-187 177.4242,-187 177.4242,-151 322.5758,-151 322.5758,-187"/>
<text text-anchor="middle" x="250" y="-164.8" font-family="Times,serif" font-size="14.00" fill="#000000">ProductServiceModule</text>
</g>
<!-- DalModule&#45;&gt;ProductServiceModule -->
<g id="edge1" class="edge">
<title>DalModule&#45;&gt;ProductServiceModule</title>
<path fill="none" stroke="#000000" d="M306.3285,-122.1061C306.3285,-122.1061 306.3285,-140.991 306.3285,-140.991"/>
<polygon fill="#000000" stroke="#000000" points="302.8286,-140.9909 306.3285,-150.991 309.8286,-140.991 302.8286,-140.9909"/>
</g>
<!-- ProductService -->
<g id="node3" class="node">
<title>ProductService</title>
<ellipse fill="#fdb462" stroke="#000000" cx="196" cy="-104" rx="70.0616" ry="18"/>
<text text-anchor="middle" x="196" y="-99.8" font-family="Times,serif" font-size="14.00" fill="#000000">ProductService</text>
</g>
<!-- ProductService&#45;&gt;ProductServiceModule -->
<g id="edge2" class="edge">
<title>ProductService&#45;&gt;ProductServiceModule</title>
<path fill="none" stroke="#000000" d="M221.7464,-121.078C221.7464,-121.078 221.7464,-140.8993 221.7464,-140.8993"/>
<polygon fill="#000000" stroke="#000000" points="218.2465,-140.8992 221.7464,-150.8993 225.2465,-140.8993 218.2465,-140.8992"/>
</g>
</g>
</svg>
