<?xml version="1.0" encoding="UTF-8" standalone="no"?>
<!DOCTYPE svg PUBLIC "-//W3C//DTD SVG 1.1//EN"
 "http://www.w3.org/Graphics/SVG/1.1/DTD/svg11.dtd">
<!-- Generated by graphviz version 2.40.1 (20161225.0304)
 -->
<!-- Title: dependencies Pages: 1 -->
<svg width="768pt" height="284pt"
 viewBox="0.00 0.00 768.00 284.00" xmlns="http://www.w3.org/2000/svg" xmlns:xlink="http://www.w3.org/1999/xlink">
<g id="graph0" class="graph" transform="scale(1 1) rotate(0) translate(4 280)">
<title>dependencies</title>
<polygon fill="#ffffff" stroke="transparent" points="-4,4 -4,-280 764,-280 764,4 -4,4"/>
<text text-anchor="start" x="359.0091" y="-42.4" font-family="sans-serif" font-weight="bold" font-size="14.00" fill="#000000">Legend</text>
<polygon fill="#ffffb3" stroke="transparent" points="146,-10 146,-30 166,-30 166,-10 146,-10"/>
<text text-anchor="start" x="169.629" y="-15.4" font-family="sans-serif" font-size="14.00" fill="#000000"> &#160;Declarations</text>
<polygon fill="#8dd3c7" stroke="transparent" points="259,-10 259,-30 279,-30 279,-10 259,-10"/>
<text text-anchor="start" x="282.7251" y="-15.4" font-family="sans-serif" font-size="14.00" fill="#000000"> &#160;Module</text>
<polygon fill="#80b1d3" stroke="transparent" points="345,-10 345,-30 365,-30 365,-10 345,-10"/>
<text text-anchor="start" x="368.7812" y="-15.4" font-family="sans-serif" font-size="14.00" fill="#000000"> &#160;Bootstrap</text>
<polygon fill="#fdb462" stroke="transparent" points="442,-10 442,-30 462,-30 462,-10 442,-10"/>
<text text-anchor="start" x="465.6732" y="-15.4" font-family="sans-serif" font-size="14.00" fill="#000000"> &#160;Providers</text>
<polygon fill="#fb8072" stroke="transparent" points="538,-10 538,-30 558,-30 558,-10 538,-10"/>
<text text-anchor="start" x="561.7258" y="-15.4" font-family="sans-serif" font-size="14.00" fill="#000000"> &#160;Exports</text>
<g id="clust1" class="cluster">
<title>cluster_AddPropsModule</title>
<polygon fill="none" stroke="#000000" stroke-dasharray="1,5" points="8,-70 8,-268 752,-268 752,-70 8,-70"/>
</g>
<g id="clust2" class="cluster">
<title>cluster_AddPropsModule_declarations</title>
<polygon fill="none" stroke="#000000" points="590,-78 590,-130 744,-130 744,-78 590,-78"/>
</g>
<g id="clust4" class="cluster">
<title>cluster_AddPropsModule_imports</title>
<polygon fill="none" stroke="#000000" points="16,-78 16,-130 582,-130 582,-78 16,-78"/>
</g>
<g id="clust5" class="cluster">
<title>cluster_AddPropsModule_exports</title>
<polygon fill="none" stroke="#000000" points="285,-208 285,-260 441,-260 441,-208 285,-208"/>
</g>
<!-- AddPropsComponent -->
<g id="node1" class="node">
<title>AddPropsComponent</title>
<polygon fill="#ffffb3" stroke="#000000" points="735.8272,-122 598.1728,-122 598.1728,-86 735.8272,-86 735.8272,-122"/>
<text text-anchor="middle" x="667" y="-99.8" font-family="Times,serif" font-size="14.00" fill="#000000">AddPropsComponent</text>
</g>
<!-- AddPropsModule -->
<g id="node2" class="node">
<title>AddPropsModule</title>
<polygon fill="#8dd3c7" stroke="#000000" points="420.5451,-187 417.5451,-191 396.5451,-191 393.5451,-187 305.4549,-187 305.4549,-151 420.5451,-151 420.5451,-187"/>
<text text-anchor="middle" x="363" y="-164.8" font-family="Times,serif" font-size="14.00" fill="#000000">AddPropsModule</text>
</g>
<!-- AddPropsComponent&#45;&gt;AddPropsModule -->
<g id="edge1" class="edge">
<title>AddPropsComponent&#45;&gt;AddPropsModule</title>
<path fill="none" stroke="#000000" d="M667,-122.1061C667,-141.3391 667,-169 667,-169 667,-169 430.8956,-169 430.8956,-169"/>
<polygon fill="#000000" stroke="#000000" points="430.8957,-165.5001 420.8956,-169 430.8956,-172.5001 430.8957,-165.5001"/>
</g>
<!-- AddPropsComponent  -->
<g id="node7" class="node">
<title>AddPropsComponent </title>
<polygon fill="#fb8072" stroke="#000000" points="433.3269,-252 292.6731,-252 292.6731,-216 433.3269,-216 433.3269,-252"/>
<text text-anchor="middle" x="363" y="-229.8" font-family="Times,serif" font-size="14.00" fill="#000000">AddPropsComponent </text>
</g>
<!-- AddPropsModule&#45;&gt;AddPropsComponent  -->
<g id="edge6" class="edge">
<title>AddPropsModule&#45;&gt;AddPropsComponent </title>
<path fill="none" stroke="#000000" stroke-dasharray="5,2" d="M363,-187.1061C363,-187.1061 363,-205.991 363,-205.991"/>
<polygon fill="#000000" stroke="#000000" points="359.5001,-205.9909 363,-215.991 366.5001,-205.991 359.5001,-205.9909"/>
</g>
<!-- ProductServiceModule -->
<g id="node3" class="node">
<title>ProductServiceModule</title>
<polygon fill="#8dd3c7" stroke="#000000" points="573.5758,-122 570.5758,-126 549.5758,-126 546.5758,-122 428.4242,-122 428.4242,-86 573.5758,-86 573.5758,-122"/>
<text text-anchor="middle" x="501" y="-99.8" font-family="Times,serif" font-size="14.00" fill="#000000">ProductServiceModule</text>
</g>
<!-- ProductServiceModule&#45;&gt;AddPropsModule -->
<g id="edge2" class="edge">
<title>ProductServiceModule&#45;&gt;AddPropsModule</title>
<path fill="none" stroke="#000000" d="M428.3017,-104C420.7203,-104 415.7181,-104 415.7181,-104 415.7181,-104 415.7181,-140.8939 415.7181,-140.8939"/>
<polygon fill="#000000" stroke="#000000" points="412.2182,-140.8938 415.7181,-150.8939 419.2182,-140.8939 412.2182,-140.8938"/>
</g>
<!-- FormsModule -->
<g id="node4" class="node">
<title>FormsModule</title>
<polygon fill="#8dd3c7" stroke="#000000" points="410.8288,-122 407.8288,-126 386.8288,-126 383.8288,-122 315.1712,-122 315.1712,-86 410.8288,-86 410.8288,-122"/>
<text text-anchor="middle" x="363" y="-99.8" font-family="Times,serif" font-size="14.00" fill="#000000">FormsModule</text>
</g>
<!-- FormsModule&#45;&gt;AddPropsModule -->
<g id="edge3" class="edge">
<title>FormsModule&#45;&gt;AddPropsModule</title>
<path fill="none" stroke="#000000" d="M363,-122.1061C363,-122.1061 363,-140.991 363,-140.991"/>
<polygon fill="#000000" stroke="#000000" points="359.5001,-140.9909 363,-150.991 366.5001,-140.991 359.5001,-140.9909"/>
</g>
<!-- CommonModule -->
<g id="node5" class="node">
<title>CommonModule</title>
<polygon fill="#8dd3c7" stroke="#000000" points="297.6681,-122 294.6681,-126 273.6681,-126 270.6681,-122 186.3319,-122 186.3319,-86 297.6681,-86 297.6681,-122"/>
<text text-anchor="middle" x="242" y="-99.8" font-family="Times,serif" font-size="14.00" fill="#000000">CommonModule</text>
</g>
<!-- CommonModule&#45;&gt;AddPropsModule -->
<g id="edge4" class="edge">
<title>CommonModule&#45;&gt;AddPropsModule</title>
<path fill="none" stroke="#000000" d="M297.7579,-104C305.1766,-104 310.2819,-104 310.2819,-104 310.2819,-104 310.2819,-140.8939 310.2819,-140.8939"/>
<polygon fill="#000000" stroke="#000000" points="306.782,-140.8938 310.2819,-150.8939 313.782,-140.8939 306.782,-140.8938"/>
</g>
<!-- ReactiveFormsModule -->
<g id="node6" class="node">
<title>ReactiveFormsModule</title>
<polygon fill="#8dd3c7" stroke="#000000" points="168.3047,-122 165.3047,-126 144.3047,-126 141.3047,-122 23.6953,-122 23.6953,-86 168.3047,-86 168.3047,-122"/>
<text text-anchor="middle" x="96" y="-99.8" font-family="Times,serif" font-size="14.00" fill="#000000">ReactiveFormsModule</text>
</g>
<!-- ReactiveFormsModule&#45;&gt;AddPropsModule -->
<g id="edge5" class="edge">
<title>ReactiveFormsModule&#45;&gt;AddPropsModule</title>
<path fill="none" stroke="#000000" d="M96,-122.1061C96,-141.3391 96,-169 96,-169 96,-169 295.3937,-169 295.3937,-169"/>
<polygon fill="#000000" stroke="#000000" points="295.3937,-172.5001 305.3937,-169 295.3937,-165.5001 295.3937,-172.5001"/>
</g>
</g>
</svg>
