<?xml version="1.0" encoding="UTF-8" standalone="no"?>
<!DOCTYPE svg PUBLIC "-//W3C//DTD SVG 1.1//EN"
 "http://www.w3.org/Graphics/SVG/1.1/DTD/svg11.dtd">
<!-- Generated by graphviz version 2.40.1 (20161225.0304)
 -->
<!-- Title: dependencies Pages: 1 -->
<svg width="504pt" height="284pt"
 viewBox="0.00 0.00 504.00 284.00" xmlns="http://www.w3.org/2000/svg" xmlns:xlink="http://www.w3.org/1999/xlink">
<g id="graph0" class="graph" transform="scale(1 1) rotate(0) translate(4 280)">
<title>dependencies</title>
<polygon fill="#ffffff" stroke="transparent" points="-4,4 -4,-280 500,-280 500,4 -4,4"/>
<text text-anchor="start" x="227.0091" y="-42.4" font-family="sans-serif" font-weight="bold" font-size="14.00" fill="#000000">Legend</text>
<polygon fill="#ffffb3" stroke="transparent" points="14,-10 14,-30 34,-30 34,-10 14,-10"/>
<text text-anchor="start" x="37.629" y="-15.4" font-family="sans-serif" font-size="14.00" fill="#000000"> &#160;Declarations</text>
<polygon fill="#8dd3c7" stroke="transparent" points="127,-10 127,-30 147,-30 147,-10 127,-10"/>
<text text-anchor="start" x="150.7251" y="-15.4" font-family="sans-serif" font-size="14.00" fill="#000000"> &#160;Module</text>
<polygon fill="#80b1d3" stroke="transparent" points="213,-10 213,-30 233,-30 233,-10 213,-10"/>
<text text-anchor="start" x="236.7812" y="-15.4" font-family="sans-serif" font-size="14.00" fill="#000000"> &#160;Bootstrap</text>
<polygon fill="#fdb462" stroke="transparent" points="310,-10 310,-30 330,-30 330,-10 310,-10"/>
<text text-anchor="start" x="333.6732" y="-15.4" font-family="sans-serif" font-size="14.00" fill="#000000"> &#160;Providers</text>
<polygon fill="#fb8072" stroke="transparent" points="406,-10 406,-30 426,-30 426,-10 406,-10"/>
<text text-anchor="start" x="429.7258" y="-15.4" font-family="sans-serif" font-size="14.00" fill="#000000"> &#160;Exports</text>
<g id="clust1" class="cluster">
<title>cluster_CategoriesModule</title>
<polygon fill="none" stroke="#000000" stroke-dasharray="1,5" points="11.5,-70 11.5,-268 484.5,-268 484.5,-70 11.5,-70"/>
</g>
<g id="clust2" class="cluster">
<title>cluster_CategoriesModule_declarations</title>
<polygon fill="none" stroke="#000000" points="318.5,-78 318.5,-130 476.5,-130 476.5,-78 318.5,-78"/>
</g>
<g id="clust4" class="cluster">
<title>cluster_CategoriesModule_imports</title>
<polygon fill="none" stroke="#000000" points="19.5,-78 19.5,-130 310.5,-130 310.5,-78 19.5,-78"/>
</g>
<g id="clust5" class="cluster">
<title>cluster_CategoriesModule_exports</title>
<polygon fill="none" stroke="#000000" points="166.5,-208 166.5,-260 326.5,-260 326.5,-208 166.5,-208"/>
</g>
<!-- CategoriesComponent -->
<g id="node1" class="node">
<title>CategoriesComponent</title>
<polygon fill="#ffffb3" stroke="#000000" points="468.1993,-122 326.8007,-122 326.8007,-86 468.1993,-86 468.1993,-122"/>
<text text-anchor="middle" x="397.5" y="-99.8" font-family="Times,serif" font-size="14.00" fill="#000000">CategoriesComponent</text>
</g>
<!-- CategoriesModule -->
<g id="node2" class="node">
<title>CategoriesModule</title>
<polygon fill="#8dd3c7" stroke="#000000" points="306.4173,-187 303.4173,-191 282.4173,-191 279.4173,-187 186.5827,-187 186.5827,-151 306.4173,-151 306.4173,-187"/>
<text text-anchor="middle" x="246.5" y="-164.8" font-family="Times,serif" font-size="14.00" fill="#000000">CategoriesModule</text>
</g>
<!-- CategoriesComponent&#45;&gt;CategoriesModule -->
<g id="edge1" class="edge">
<title>CategoriesComponent&#45;&gt;CategoriesModule</title>
<path fill="none" stroke="#000000" d="M397.5,-122.1061C397.5,-141.3391 397.5,-169 397.5,-169 397.5,-169 316.6131,-169 316.6131,-169"/>
<polygon fill="#000000" stroke="#000000" points="316.6131,-165.5001 306.6131,-169 316.613,-172.5001 316.6131,-165.5001"/>
</g>
<!-- CategoriesComponent  -->
<g id="node5" class="node">
<title>CategoriesComponent </title>
<polygon fill="#fb8072" stroke="#000000" points="318.6995,-252 174.3005,-252 174.3005,-216 318.6995,-216 318.6995,-252"/>
<text text-anchor="middle" x="246.5" y="-229.8" font-family="Times,serif" font-size="14.00" fill="#000000">CategoriesComponent </text>
</g>
<!-- CategoriesModule&#45;&gt;CategoriesComponent  -->
<g id="edge4" class="edge">
<title>CategoriesModule&#45;&gt;CategoriesComponent </title>
<path fill="none" stroke="#000000" stroke-dasharray="5,2" d="M246.5,-187.1061C246.5,-187.1061 246.5,-205.991 246.5,-205.991"/>
<polygon fill="#000000" stroke="#000000" points="243.0001,-205.9909 246.5,-215.991 250.0001,-205.991 243.0001,-205.9909"/>
</g>
<!-- CommonModule -->
<g id="node3" class="node">
<title>CommonModule</title>
<polygon fill="#8dd3c7" stroke="#000000" points="302.1681,-122 299.1681,-126 278.1681,-126 275.1681,-122 190.8319,-122 190.8319,-86 302.1681,-86 302.1681,-122"/>
<text text-anchor="middle" x="246.5" y="-99.8" font-family="Times,serif" font-size="14.00" fill="#000000">CommonModule</text>
</g>
<!-- CommonModule&#45;&gt;CategoriesModule -->
<g id="edge2" class="edge">
<title>CommonModule&#45;&gt;CategoriesModule</title>
<path fill="none" stroke="#000000" d="M246.5,-122.1061C246.5,-122.1061 246.5,-140.991 246.5,-140.991"/>
<polygon fill="#000000" stroke="#000000" points="243.0001,-140.9909 246.5,-150.991 250.0001,-140.991 243.0001,-140.9909"/>
</g>
<!-- ProductServiceModule -->
<g id="node4" class="node">
<title>ProductServiceModule</title>
<polygon fill="#8dd3c7" stroke="#000000" points="173.0758,-122 170.0758,-126 149.0758,-126 146.0758,-122 27.9242,-122 27.9242,-86 173.0758,-86 173.0758,-122"/>
<text text-anchor="middle" x="100.5" y="-99.8" font-family="Times,serif" font-size="14.00" fill="#000000">ProductServiceModule</text>
</g>
<!-- ProductServiceModule&#45;&gt;CategoriesModule -->
<g id="edge3" class="edge">
<title>ProductServiceModule&#45;&gt;CategoriesModule</title>
<path fill="none" stroke="#000000" d="M100.5,-122.1061C100.5,-141.3391 100.5,-169 100.5,-169 100.5,-169 176.695,-169 176.695,-169"/>
<polygon fill="#000000" stroke="#000000" points="176.695,-172.5001 186.695,-169 176.6949,-165.5001 176.695,-172.5001"/>
</g>
</g>
</svg>
