<?xml version="1.0" encoding="UTF-8" standalone="no"?>
<!DOCTYPE svg PUBLIC "-//W3C//DTD SVG 1.1//EN"
 "http://www.w3.org/Graphics/SVG/1.1/DTD/svg11.dtd">
<!-- Generated by graphviz version 2.40.1 (20161225.0304)
 -->
<!-- Title: dependencies Pages: 1 -->
<svg width="2296pt" height="284pt"
 viewBox="0.00 0.00 2296.00 284.00" xmlns="http://www.w3.org/2000/svg" xmlns:xlink="http://www.w3.org/1999/xlink">
<g id="graph0" class="graph" transform="scale(1 1) rotate(0) translate(4 280)">
<title>dependencies</title>
<polygon fill="#ffffff" stroke="transparent" points="-4,4 -4,-280 2292,-280 2292,4 -4,4"/>
<text text-anchor="start" x="1123.0091" y="-42.4" font-family="sans-serif" font-weight="bold" font-size="14.00" fill="#000000">Legend</text>
<polygon fill="#ffffb3" stroke="transparent" points="910,-10 910,-30 930,-30 930,-10 910,-10"/>
<text text-anchor="start" x="933.629" y="-15.4" font-family="sans-serif" font-size="14.00" fill="#000000"> &#160;Declarations</text>
<polygon fill="#8dd3c7" stroke="transparent" points="1023,-10 1023,-30 1043,-30 1043,-10 1023,-10"/>
<text text-anchor="start" x="1046.7251" y="-15.4" font-family="sans-serif" font-size="14.00" fill="#000000"> &#160;Module</text>
<polygon fill="#80b1d3" stroke="transparent" points="1109,-10 1109,-30 1129,-30 1129,-10 1109,-10"/>
<text text-anchor="start" x="1132.7812" y="-15.4" font-family="sans-serif" font-size="14.00" fill="#000000"> &#160;Bootstrap</text>
<polygon fill="#fdb462" stroke="transparent" points="1206,-10 1206,-30 1226,-30 1226,-10 1206,-10"/>
<text text-anchor="start" x="1229.6732" y="-15.4" font-family="sans-serif" font-size="14.00" fill="#000000"> &#160;Providers</text>
<polygon fill="#fb8072" stroke="transparent" points="1302,-10 1302,-30 1322,-30 1322,-10 1302,-10"/>
<text text-anchor="start" x="1325.7258" y="-15.4" font-family="sans-serif" font-size="14.00" fill="#000000"> &#160;Exports</text>
<g id="clust1" class="cluster">
<title>cluster_PaymentsModule</title>
<polygon fill="none" stroke="#000000" stroke-dasharray="1,5" points="8,-70 8,-268 2280,-268 2280,-70 8,-70"/>
</g>
<g id="clust2" class="cluster">
<title>cluster_PaymentsModule_declarations</title>
<polygon fill="none" stroke="#000000" points="863,-78 863,-130 2272,-130 2272,-78 863,-78"/>
</g>
<g id="clust11" class="cluster">
<title>cluster_PaymentsModule_imports</title>
<polygon fill="none" stroke="#000000" points="196,-78 196,-130 855,-130 855,-78 196,-78"/>
</g>
<g id="clust12" class="cluster">
<title>cluster_PaymentsModule_exports</title>
<polygon fill="none" stroke="#000000" points="285,-208 285,-260 1855,-260 1855,-208 285,-208"/>
</g>
<g id="clust14" class="cluster">
<title>cluster_PaymentsModule_providers</title>
<polygon fill="none" stroke="#000000" points="16,-78 16,-130 188,-130 188,-78 16,-78"/>
</g>
<!-- PaymentsComponent -->
<g id="node1" class="node">
<title>PaymentsComponent</title>
<polygon fill="#ffffb3" stroke="#000000" points="2263.7702,-122 2128.2298,-122 2128.2298,-86 2263.7702,-86 2263.7702,-122"/>
<text text-anchor="middle" x="2196" y="-99.8" font-family="Times,serif" font-size="14.00" fill="#000000">PaymentsComponent</text>
</g>
<!-- PaymentsModule -->
<g id="node9" class="node">
<title>PaymentsModule</title>
<polygon fill="#8dd3c7" stroke="#000000" points="1099.9874,-187 1096.9874,-191 1075.9874,-191 1072.9874,-187 986.0126,-187 986.0126,-151 1099.9874,-151 1099.9874,-187"/>
<text text-anchor="middle" x="1043" y="-164.8" font-family="Times,serif" font-size="14.00" fill="#000000">PaymentsModule</text>
</g>
<!-- PaymentsComponent&#45;&gt;PaymentsModule -->
<g id="edge1" class="edge">
<title>PaymentsComponent&#45;&gt;PaymentsModule</title>
<path fill="none" stroke="#000000" d="M2196,-122.308C2196,-142.1455 2196,-171 2196,-171 2196,-171 1110.1774,-171 1110.1774,-171"/>
<polygon fill="#000000" stroke="#000000" points="1110.1775,-167.5001 1100.1774,-171 1110.1774,-174.5001 1110.1775,-167.5001"/>
</g>
<!-- DeliveriesComponent -->
<g id="node2" class="node">
<title>DeliveriesComponent</title>
<polygon fill="#ffffb3" stroke="#000000" points="2110.3599,-122 1971.6401,-122 1971.6401,-86 2110.3599,-86 2110.3599,-122"/>
<text text-anchor="middle" x="2041" y="-99.8" font-family="Times,serif" font-size="14.00" fill="#000000">DeliveriesComponent</text>
</g>
<!-- DeliveriesComponent&#45;&gt;PaymentsModule -->
<g id="edge2" class="edge">
<title>DeliveriesComponent&#45;&gt;PaymentsModule</title>
<path fill="none" stroke="#000000" d="M2041,-122.1686C2041,-141.0898 2041,-168 2041,-168 2041,-168 1110.2413,-168 1110.2413,-168"/>
<polygon fill="#000000" stroke="#000000" points="1110.2414,-164.5001 1100.2413,-168 1110.2413,-171.5001 1110.2414,-164.5001"/>
</g>
<!-- PickupDeliveryComponent -->
<g id="node3" class="node">
<title>PickupDeliveryComponent</title>
<polygon fill="#ffffb3" stroke="#000000" points="1953.6979,-122 1784.3021,-122 1784.3021,-86 1953.6979,-86 1953.6979,-122"/>
<text text-anchor="middle" x="1869" y="-99.8" font-family="Times,serif" font-size="14.00" fill="#000000">PickupDeliveryComponent</text>
</g>
<!-- PickupDeliveryComponent&#45;&gt;PaymentsModule -->
<g id="edge3" class="edge">
<title>PickupDeliveryComponent&#45;&gt;PaymentsModule</title>
<path fill="none" stroke="#000000" d="M1815.5181,-122.302C1815.5181,-140.2699 1815.5181,-165 1815.5181,-165 1815.5181,-165 1110.1188,-165 1110.1188,-165"/>
<polygon fill="#000000" stroke="#000000" points="1110.1189,-161.5001 1100.1188,-165 1110.1188,-168.5001 1110.1189,-161.5001"/>
</g>
<!-- AddressDeliveryComponent -->
<g id="node4" class="node">
<title>AddressDeliveryComponent</title>
<polygon fill="#ffffb3" stroke="#000000" points="1766.1811,-122 1589.8189,-122 1589.8189,-86 1766.1811,-86 1766.1811,-122"/>
<text text-anchor="middle" x="1678" y="-99.8" font-family="Times,serif" font-size="14.00" fill="#000000">AddressDeliveryComponent</text>
</g>
<!-- AddressDeliveryComponent&#45;&gt;PaymentsModule -->
<g id="edge4" class="edge">
<title>AddressDeliveryComponent&#45;&gt;PaymentsModule</title>
<path fill="none" stroke="#000000" d="M1639.5447,-122.0352C1639.5447,-138.7344 1639.5447,-161 1639.5447,-161 1639.5447,-161 1110.1992,-161 1110.1992,-161"/>
<polygon fill="#000000" stroke="#000000" points="1110.1992,-157.5001 1100.1992,-161 1110.1992,-164.5001 1110.1992,-157.5001"/>
</g>
<!-- PaymentsContainerComponent -->
<g id="node5" class="node">
<title>PaymentsContainerComponent</title>
<polygon fill="#ffffb3" stroke="#000000" points="1571.4776,-122 1380.5224,-122 1380.5224,-86 1571.4776,-86 1571.4776,-122"/>
<text text-anchor="middle" x="1476" y="-99.8" font-family="Times,serif" font-size="14.00" fill="#000000">PaymentsContainerComponent</text>
</g>
<!-- PaymentsContainerComponent&#45;&gt;PaymentsModule -->
<g id="edge5" class="edge">
<title>PaymentsContainerComponent&#45;&gt;PaymentsModule</title>
<path fill="none" stroke="#000000" d="M1454.4301,-122.2819C1454.4301,-137.9478 1454.4301,-158 1454.4301,-158 1454.4301,-158 1110.2076,-158 1110.2076,-158"/>
<polygon fill="#000000" stroke="#000000" points="1110.2076,-154.5001 1100.2076,-158 1110.2076,-161.5001 1110.2076,-154.5001"/>
</g>
<!-- TwoCheckoutComponent -->
<g id="node6" class="node">
<title>TwoCheckoutComponent</title>
<polygon fill="#ffffb3" stroke="#000000" points="1362.1484,-122 1201.8516,-122 1201.8516,-86 1362.1484,-86 1362.1484,-122"/>
<text text-anchor="middle" x="1282" y="-99.8" font-family="Times,serif" font-size="14.00" fill="#000000">TwoCheckoutComponent</text>
</g>
<!-- TwoCheckoutComponent&#45;&gt;PaymentsModule -->
<g id="edge6" class="edge">
<title>TwoCheckoutComponent&#45;&gt;PaymentsModule</title>
<path fill="none" stroke="#000000" d="M1269.7582,-122.1243C1269.7582,-136.7832 1269.7582,-155 1269.7582,-155 1269.7582,-155 1110.2207,-155 1110.2207,-155"/>
<polygon fill="#000000" stroke="#000000" points="1110.2207,-151.5001 1100.2207,-155 1110.2206,-158.5001 1110.2207,-151.5001"/>
</g>
<!-- StripeComponent -->
<g id="node7" class="node">
<title>StripeComponent</title>
<polygon fill="#ffffb3" stroke="#000000" points="1183.2716,-122 1068.7284,-122 1068.7284,-86 1183.2716,-86 1183.2716,-122"/>
<text text-anchor="middle" x="1126" y="-99.8" font-family="Times,serif" font-size="14.00" fill="#000000">StripeComponent</text>
</g>
<!-- StripeComponent&#45;&gt;PaymentsModule -->
<g id="edge7" class="edge">
<title>StripeComponent&#45;&gt;PaymentsModule</title>
<path fill="none" stroke="#000000" d="M1084.304,-122.1061C1084.304,-122.1061 1084.304,-140.991 1084.304,-140.991"/>
<polygon fill="#000000" stroke="#000000" points="1080.8041,-140.9909 1084.304,-150.991 1087.8041,-140.991 1080.8041,-140.9909"/>
</g>
<!-- PaymentsSpinnerComponent -->
<g id="node8" class="node">
<title>PaymentsSpinnerComponent</title>
<polygon fill="#ffffb3" stroke="#000000" points="1050.8187,-122 871.1813,-122 871.1813,-86 1050.8187,-86 1050.8187,-122"/>
<text text-anchor="middle" x="961" y="-99.8" font-family="Times,serif" font-size="14.00" fill="#000000">PaymentsSpinnerComponent</text>
</g>
<!-- PaymentsSpinnerComponent&#45;&gt;PaymentsModule -->
<g id="edge8" class="edge">
<title>PaymentsSpinnerComponent&#45;&gt;PaymentsModule</title>
<path fill="none" stroke="#000000" d="M1018.3328,-122.1061C1018.3328,-122.1061 1018.3328,-140.991 1018.3328,-140.991"/>
<polygon fill="#000000" stroke="#000000" points="1014.8328,-140.9909 1018.3328,-150.991 1021.8328,-140.991 1014.8328,-140.9909"/>
</g>
<!-- PaymentsComponent  -->
<g id="node15" class="node">
<title>PaymentsComponent </title>
<polygon fill="#fb8072" stroke="#000000" points="1846.7703,-252 1707.2297,-252 1707.2297,-216 1846.7703,-216 1846.7703,-252"/>
<text text-anchor="middle" x="1777" y="-229.8" font-family="Times,serif" font-size="14.00" fill="#000000">PaymentsComponent </text>
</g>
<!-- PaymentsModule&#45;&gt;PaymentsComponent  -->
<g id="edge14" class="edge">
<title>PaymentsModule&#45;&gt;PaymentsComponent </title>
<path fill="none" stroke="#000000" stroke-dasharray="5,2" d="M1100.0654,-174C1266.0114,-174 1736.7278,-174 1736.7278,-174 1736.7278,-174 1736.7278,-205.998 1736.7278,-205.998"/>
<polygon fill="#000000" stroke="#000000" points="1733.2278,-205.998 1736.7278,-215.998 1740.2278,-205.9981 1733.2278,-205.998"/>
</g>
<!-- DeliveriesComponent  -->
<g id="node16" class="node">
<title>DeliveriesComponent </title>
<polygon fill="#fb8072" stroke="#000000" points="1689.3603,-252 1546.6397,-252 1546.6397,-216 1689.3603,-216 1689.3603,-252"/>
<text text-anchor="middle" x="1618" y="-229.8" font-family="Times,serif" font-size="14.00" fill="#000000">DeliveriesComponent </text>
</g>
<!-- PaymentsModule&#45;&gt;DeliveriesComponent  -->
<g id="edge15" class="edge">
<title>PaymentsModule&#45;&gt;DeliveriesComponent </title>
<path fill="none" stroke="#000000" stroke-dasharray="5,2" d="M1100.2097,-178C1234.5968,-178 1559.1545,-178 1559.1545,-178 1559.1545,-178 1559.1545,-205.973 1559.1545,-205.973"/>
<polygon fill="#000000" stroke="#000000" points="1555.6545,-205.973 1559.1545,-215.973 1562.6545,-205.973 1555.6545,-205.973"/>
</g>
<!-- PickupDeliveryComponent  -->
<g id="node17" class="node">
<title>PickupDeliveryComponent </title>
<polygon fill="#fb8072" stroke="#000000" points="1528.1981,-252 1355.8019,-252 1355.8019,-216 1528.1981,-216 1528.1981,-252"/>
<text text-anchor="middle" x="1442" y="-229.8" font-family="Times,serif" font-size="14.00" fill="#000000">PickupDeliveryComponent </text>
</g>
<!-- PaymentsModule&#45;&gt;PickupDeliveryComponent  -->
<g id="edge16" class="edge">
<title>PaymentsModule&#45;&gt;PickupDeliveryComponent </title>
<path fill="none" stroke="#000000" stroke-dasharray="5,2" d="M1100.206,-181C1194.2998,-181 1371.4176,-181 1371.4176,-181 1371.4176,-181 1371.4176,-205.7604 1371.4176,-205.7604"/>
<polygon fill="#000000" stroke="#000000" points="1367.9177,-205.7604 1371.4176,-215.7604 1374.9177,-205.7604 1367.9177,-205.7604"/>
</g>
<!-- AddressDeliveryComponent  -->
<g id="node18" class="node">
<title>AddressDeliveryComponent </title>
<polygon fill="#fb8072" stroke="#000000" points="1337.6813,-252 1158.3187,-252 1158.3187,-216 1337.6813,-216 1337.6813,-252"/>
<text text-anchor="middle" x="1248" y="-229.8" font-family="Times,serif" font-size="14.00" fill="#000000">AddressDeliveryComponent </text>
</g>
<!-- PaymentsModule&#45;&gt;AddressDeliveryComponent  -->
<g id="edge17" class="edge">
<title>PaymentsModule&#45;&gt;AddressDeliveryComponent </title>
<path fill="none" stroke="#000000" stroke-dasharray="5,2" d="M1100.1594,-184C1134.1795,-184 1170.7726,-184 1170.7726,-184 1170.7726,-184 1170.7726,-205.9489 1170.7726,-205.9489"/>
<polygon fill="#000000" stroke="#000000" points="1167.2727,-205.9488 1170.7726,-215.9489 1174.2727,-205.9489 1167.2727,-205.9488"/>
</g>
<!-- PaymentsContainerComponent  -->
<g id="node19" class="node">
<title>PaymentsContainerComponent </title>
<polygon fill="#fb8072" stroke="#000000" points="1140.4782,-252 945.5218,-252 945.5218,-216 1140.4782,-216 1140.4782,-252"/>
<text text-anchor="middle" x="1043" y="-229.8" font-family="Times,serif" font-size="14.00" fill="#000000">PaymentsContainerComponent </text>
</g>
<!-- PaymentsModule&#45;&gt;PaymentsContainerComponent  -->
<g id="edge18" class="edge">
<title>PaymentsModule&#45;&gt;PaymentsContainerComponent </title>
<path fill="none" stroke="#000000" stroke-dasharray="5,2" d="M1043,-187.1061C1043,-187.1061 1043,-205.991 1043,-205.991"/>
<polygon fill="#000000" stroke="#000000" points="1039.5001,-205.9909 1043,-215.991 1046.5001,-205.991 1039.5001,-205.9909"/>
</g>
<!-- TwoCheckoutComponent  -->
<g id="node20" class="node">
<title>TwoCheckoutComponent </title>
<polygon fill="#fb8072" stroke="#000000" points="928.1481,-252 763.8519,-252 763.8519,-216 928.1481,-216 928.1481,-252"/>
<text text-anchor="middle" x="846" y="-229.8" font-family="Times,serif" font-size="14.00" fill="#000000">TwoCheckoutComponent </text>
</g>
<!-- PaymentsModule&#45;&gt;TwoCheckoutComponent  -->
<g id="edge19" class="edge">
<title>PaymentsModule&#45;&gt;TwoCheckoutComponent </title>
<path fill="none" stroke="#000000" stroke-dasharray="5,2" d="M985.9552,-184C945.9955,-184 899.7074,-184 899.7074,-184 899.7074,-184 899.7074,-205.9489 899.7074,-205.9489"/>
<polygon fill="#000000" stroke="#000000" points="896.2075,-205.9488 899.7074,-215.9489 903.2075,-205.9489 896.2075,-205.9488"/>
</g>
<!-- StripeComponent  -->
<g id="node21" class="node">
<title>StripeComponent </title>
<polygon fill="#fb8072" stroke="#000000" points="746.2717,-252 627.7283,-252 627.7283,-216 746.2717,-216 746.2717,-252"/>
<text text-anchor="middle" x="687" y="-229.8" font-family="Times,serif" font-size="14.00" fill="#000000">StripeComponent </text>
</g>
<!-- PaymentsModule&#45;&gt;StripeComponent  -->
<g id="edge20" class="edge">
<title>PaymentsModule&#45;&gt;StripeComponent </title>
<path fill="none" stroke="#000000" stroke-dasharray="5,2" d="M985.8415,-181C895.8755,-181 731.3661,-181 731.3661,-181 731.3661,-181 731.3661,-205.7604 731.3661,-205.7604"/>
<polygon fill="#000000" stroke="#000000" points="727.8661,-205.7604 731.3661,-215.7604 734.8661,-205.7604 727.8661,-205.7604"/>
</g>
<!-- PaymentsSpinnerComponent  -->
<g id="node22" class="node">
<title>PaymentsSpinnerComponent </title>
<polygon fill="#fb8072" stroke="#000000" points="609.3185,-252 426.6815,-252 426.6815,-216 609.3185,-216 609.3185,-252"/>
<text text-anchor="middle" x="518" y="-229.8" font-family="Times,serif" font-size="14.00" fill="#000000">PaymentsSpinnerComponent </text>
</g>
<!-- PaymentsModule&#45;&gt;PaymentsSpinnerComponent  -->
<g id="edge21" class="edge">
<title>PaymentsModule&#45;&gt;PaymentsSpinnerComponent </title>
<path fill="none" stroke="#000000" stroke-dasharray="5,2" d="M985.5679,-178C858.9325,-178 566.8726,-178 566.8726,-178 566.8726,-178 566.8726,-205.973 566.8726,-205.973"/>
<polygon fill="#000000" stroke="#000000" points="563.3726,-205.973 566.8726,-215.973 570.3726,-205.973 563.3726,-205.973"/>
</g>
<!-- PaymentsService  -->
<g id="node23" class="node">
<title>PaymentsService </title>
<polygon fill="#fb8072" stroke="#000000" points="408.9152,-252 293.0848,-252 293.0848,-216 408.9152,-216 408.9152,-252"/>
<text text-anchor="middle" x="351" y="-229.8" font-family="Times,serif" font-size="14.00" fill="#000000">PaymentsService </text>
</g>
<!-- PaymentsModule&#45;&gt;PaymentsService  -->
<g id="edge22" class="edge">
<title>PaymentsModule&#45;&gt;PaymentsService </title>
<path fill="none" stroke="#000000" stroke-dasharray="5,2" d="M985.7929,-174C825.8035,-174 385.4027,-174 385.4027,-174 385.4027,-174 385.4027,-205.998 385.4027,-205.998"/>
<polygon fill="#000000" stroke="#000000" points="381.9028,-205.998 385.4027,-215.998 388.9028,-205.9981 381.9028,-205.998"/>
</g>
<!-- BrowserModule -->
<g id="node10" class="node">
<title>BrowserModule</title>
<polygon fill="#8dd3c7" stroke="#000000" points="847.4734,-122 844.4734,-126 823.4734,-126 820.4734,-122 740.5266,-122 740.5266,-86 847.4734,-86 847.4734,-122"/>
<text text-anchor="middle" x="794" y="-99.8" font-family="Times,serif" font-size="14.00" fill="#000000">BrowserModule</text>
</g>
<!-- BrowserModule&#45;&gt;PaymentsModule -->
<g id="edge9" class="edge">
<title>BrowserModule&#45;&gt;PaymentsModule</title>
<path fill="none" stroke="#000000" d="M805.7064,-122.1243C805.7064,-136.7832 805.7064,-155 805.7064,-155 805.7064,-155 975.8603,-155 975.8603,-155"/>
<polygon fill="#000000" stroke="#000000" points="975.8603,-158.5001 985.8603,-155 975.8603,-151.5001 975.8603,-158.5001"/>
</g>
<!-- HttpModule -->
<g id="node11" class="node">
<title>HttpModule</title>
<polygon fill="#8dd3c7" stroke="#000000" points="722.4387,-122 719.4387,-126 698.4387,-126 695.4387,-122 637.5613,-122 637.5613,-86 722.4387,-86 722.4387,-122"/>
<text text-anchor="middle" x="680" y="-99.8" font-family="Times,serif" font-size="14.00" fill="#000000">HttpModule</text>
</g>
<!-- HttpModule&#45;&gt;PaymentsModule -->
<g id="edge10" class="edge">
<title>HttpModule&#45;&gt;PaymentsModule</title>
<path fill="none" stroke="#000000" d="M680,-122.2819C680,-137.9478 680,-158 680,-158 680,-158 975.8819,-158 975.8819,-158"/>
<polygon fill="#000000" stroke="#000000" points="975.882,-161.5001 985.8819,-158 975.8819,-154.5001 975.882,-161.5001"/>
</g>
<!-- FormsModule -->
<g id="node12" class="node">
<title>FormsModule</title>
<polygon fill="#8dd3c7" stroke="#000000" points="619.8288,-122 616.8288,-126 595.8288,-126 592.8288,-122 524.1712,-122 524.1712,-86 619.8288,-86 619.8288,-122"/>
<text text-anchor="middle" x="572" y="-99.8" font-family="Times,serif" font-size="14.00" fill="#000000">FormsModule</text>
</g>
<!-- FormsModule&#45;&gt;PaymentsModule -->
<g id="edge11" class="edge">
<title>FormsModule&#45;&gt;PaymentsModule</title>
<path fill="none" stroke="#000000" d="M614.5367,-122.0352C614.5367,-138.7344 614.5367,-161 614.5367,-161 614.5367,-161 975.6601,-161 975.6601,-161"/>
<polygon fill="#000000" stroke="#000000" points="975.6601,-164.5001 985.6601,-161 975.6601,-157.5001 975.6601,-164.5001"/>
</g>
<!-- ReactiveFormsModule -->
<g id="node13" class="node">
<title>ReactiveFormsModule</title>
<polygon fill="#8dd3c7" stroke="#000000" points="506.3047,-122 503.3047,-126 482.3047,-126 479.3047,-122 361.6953,-122 361.6953,-86 506.3047,-86 506.3047,-122"/>
<text text-anchor="middle" x="434" y="-99.8" font-family="Times,serif" font-size="14.00" fill="#000000">ReactiveFormsModule</text>
</g>
<!-- ReactiveFormsModule&#45;&gt;PaymentsModule -->
<g id="edge12" class="edge">
<title>ReactiveFormsModule&#45;&gt;PaymentsModule</title>
<path fill="none" stroke="#000000" d="M466.3715,-122.302C466.3715,-140.2699 466.3715,-165 466.3715,-165 466.3715,-165 975.8678,-165 975.8678,-165"/>
<polygon fill="#000000" stroke="#000000" points="975.8678,-168.5001 985.8678,-165 975.8678,-161.5001 975.8678,-168.5001"/>
</g>
<!-- BasketServiceModule -->
<g id="node14" class="node">
<title>BasketServiceModule</title>
<polygon fill="#8dd3c7" stroke="#000000" points="343.6289,-122 340.6289,-126 319.6289,-126 316.6289,-122 204.3711,-122 204.3711,-86 343.6289,-86 343.6289,-122"/>
<text text-anchor="middle" x="274" y="-99.8" font-family="Times,serif" font-size="14.00" fill="#000000">BasketServiceModule</text>
</g>
<!-- BasketServiceModule&#45;&gt;PaymentsModule -->
<g id="edge13" class="edge">
<title>BasketServiceModule&#45;&gt;PaymentsModule</title>
<path fill="none" stroke="#000000" d="M318.4283,-122.1686C318.4283,-141.0898 318.4283,-168 318.4283,-168 318.4283,-168 975.8416,-168 975.8416,-168"/>
<polygon fill="#000000" stroke="#000000" points="975.8416,-171.5001 985.8416,-168 975.8416,-164.5001 975.8416,-171.5001"/>
</g>
<!-- PaymentsService -->
<g id="node24" class="node">
<title>PaymentsService</title>
<ellipse fill="#fdb462" stroke="#000000" cx="102" cy="-104" rx="77.5839" ry="18"/>
<text text-anchor="middle" x="102" y="-99.8" font-family="Times,serif" font-size="14.00" fill="#000000">PaymentsService</text>
</g>
<!-- PaymentsService&#45;&gt;PaymentsModule -->
<g id="edge23" class="edge">
<title>PaymentsService&#45;&gt;PaymentsModule</title>
<path fill="none" stroke="#000000" d="M102,-122.308C102,-142.1455 102,-171 102,-171 102,-171 975.9045,-171 975.9045,-171"/>
<polygon fill="#000000" stroke="#000000" points="975.9046,-174.5001 985.9045,-171 975.9045,-167.5001 975.9046,-174.5001"/>
</g>
</g>
</svg>
