<?xml version="1.0" encoding="UTF-8" standalone="no"?>
<!DOCTYPE svg PUBLIC "-//W3C//DTD SVG 1.1//EN"
 "http://www.w3.org/Graphics/SVG/1.1/DTD/svg11.dtd">
<!-- Generated by graphviz version 2.40.1 (20161225.0304)
 -->
<!-- Title: dependencies Pages: 1 -->
<svg width="2296pt" height="284pt"
 viewBox="0.00 0.00 2296.00 284.00" xmlns="http://www.w3.org/2000/svg" xmlns:xlink="http://www.w3.org/1999/xlink">
<g id="graph0" class="graph" transform="scale(1 1) rotate(0) translate(4 280)">
<title>dependencies</title>
<polygon fill="#ffffff" stroke="transparent" points="-4,4 -4,-280 2292,-280 2292,4 -4,4"/>
<text text-anchor="start" x="1123.0091" y="-42.4" font-family="sans-serif" font-weight="bold" font-size="14.00" fill="#000000">Legend</text>
<polygon fill="#ffffb3" stroke="transparent" points="910,-10 910,-30 930,-30 930,-10 910,-10"/>
<text text-anchor="start" x="933.629" y="-15.4" font-family="sans-serif" font-size="14.00" fill="#000000"> &#160;Declarations</text>
<polygon fill="#8dd3c7" stroke="transparent" points="1023,-10 1023,-30 1043,-30 1043,-10 1023,-10"/>
<text text-anchor="start" x="1046.7251" y="-15.4" font-family="sans-serif" font-size="14.00" fill="#000000"> &#160;Module</text>
<polygon fill="#80b1d3" stroke="transparent" points="1109,-10 1109,-30 1129,-30 1129,-10 1109,-10"/>
<text text-anchor="start" x="1132.7812" y="-15.4" font-family="sans-serif" font-size="14.00" fill="#000000"> &#160;Bootstrap</text>
<polygon fill="#fdb462" stroke="transparent" points="1206,-10 1206,-30 1226,-30 1226,-10 1206,-10"/>
<text text-anchor="start" x="1229.6732" y="-15.4" font-family="sans-serif" font-size="14.00" fill="#000000"> &#160;Providers</text>
<polygon fill="#fb8072" stroke="transparent" points="1302,-10 1302,-30 1322,-30 1322,-10 1302,-10"/>
<text text-anchor="start" x="1325.7258" y="-15.4" font-family="sans-serif" font-size="14.00" fill="#000000"> &#160;Exports</text>
<g id="clust1" class="cluster">
<title>cluster_PaymentsModule</title>
<polygon fill="none" stroke="#000000" stroke-dasharray="1,5" points="8,-70 8,-268 2280,-268 2280,-70 8,-70"/>
</g>
<g id="clust2" class="cluster">
<title>cluster_PaymentsModule_declarations</title>
<polygon fill="none" stroke="#000000" points="863,-78 863,-130 2272,-130 2272,-78 863,-78"/>
</g>
<g id="clust11" class="cluster">
<title>cluster_PaymentsModule_imports</title>
<polygon fill="none" stroke="#000000" points="196,-78 196,-130 855,-130 855,-78 196,-78"/>
</g>
<g id="clust12" class="cluster">
<title>cluster_PaymentsModule_exports</title>
<polygon fill="none" stroke="#000000" points="317,-208 317,-260 1753,-260 1753,-208 317,-208"/>
</g>
<g id="clust14" class="cluster">
<title>cluster_PaymentsModule_providers</title>
<polygon fill="none" stroke="#000000" points="16,-78 16,-130 188,-130 188,-78 16,-78"/>
</g>
<!-- PaymentsComponent -->
<g id="node1" class="node">
<title>PaymentsComponent</title>
<polygon fill="#ffffb3" stroke="#000000" points="2263.7702,-122 2128.2298,-122 2128.2298,-86 2263.7702,-86 2263.7702,-122"/>
<text text-anchor="middle" x="2196" y="-99.8" font-family="Times,serif" font-size="14.00" fill="#000000">PaymentsComponent</text>
</g>
<!-- PaymentsModule -->
<g id="node9" class="node">
<title>PaymentsModule</title>
<polygon fill="#8dd3c7" stroke="#000000" points="1099.9874,-187 1096.9874,-191 1075.9874,-191 1072.9874,-187 986.0126,-187 986.0126,-151 1099.9874,-151 1099.9874,-187"/>
<text text-anchor="middle" x="1043" y="-164.8" font-family="Times,serif" font-size="14.00" fill="#000000">PaymentsModule</text>
</g>
<!-- PaymentsComponent&#45;&gt;PaymentsModule -->
<g id="edge1" class="edge">
<title>PaymentsComponent&#45;&gt;PaymentsModule</title>
<path fill="none" stroke="#000000" d="M2196,-122.1289C2196,-142.5724 2196,-173 2196,-173 2196,-173 1110.1774,-173 1110.1774,-173"/>
<polygon fill="#000000" stroke="#000000" points="1110.1775,-169.5001 1100.1774,-173 1110.1774,-176.5001 1110.1775,-169.5001"/>
</g>
<!-- DeliveriesComponent -->
<g id="node2" class="node">
<title>DeliveriesComponent</title>
<polygon fill="#ffffb3" stroke="#000000" points="2110.3599,-122 1971.6401,-122 1971.6401,-86 2110.3599,-86 2110.3599,-122"/>
<text text-anchor="middle" x="2041" y="-99.8" font-family="Times,serif" font-size="14.00" fill="#000000">DeliveriesComponent</text>
</g>
<!-- DeliveriesComponent&#45;&gt;PaymentsModule -->
<g id="edge2" class="edge">
<title>DeliveriesComponent&#45;&gt;PaymentsModule</title>
<path fill="none" stroke="#000000" d="M2041,-122.1061C2041,-141.3391 2041,-169 2041,-169 2041,-169 1110.2413,-169 1110.2413,-169"/>
<polygon fill="#000000" stroke="#000000" points="1110.2414,-165.5001 1100.2413,-169 1110.2413,-172.5001 1110.2414,-165.5001"/>
</g>
<!-- PickupDeliveryComponent -->
<g id="node3" class="node">
<title>PickupDeliveryComponent</title>
<polygon fill="#ffffb3" stroke="#000000" points="1953.6979,-122 1784.3021,-122 1784.3021,-86 1953.6979,-86 1953.6979,-122"/>
<text text-anchor="middle" x="1869" y="-99.8" font-family="Times,serif" font-size="14.00" fill="#000000">PickupDeliveryComponent</text>
</g>
<!-- PickupDeliveryComponent&#45;&gt;PaymentsModule -->
<g id="edge3" class="edge">
<title>PickupDeliveryComponent&#45;&gt;PaymentsModule</title>
<path fill="none" stroke="#000000" d="M1869,-122.2667C1869,-140.5552 1869,-166 1869,-166 1869,-166 1110.1002,-166 1110.1002,-166"/>
<polygon fill="#000000" stroke="#000000" points="1110.1003,-162.5001 1100.1002,-166 1110.1002,-169.5001 1110.1003,-162.5001"/>
</g>
<!-- AddressDeliveryComponent -->
<g id="node4" class="node">
<title>AddressDeliveryComponent</title>
<polygon fill="#ffffb3" stroke="#000000" points="1766.1811,-122 1589.8189,-122 1589.8189,-86 1766.1811,-86 1766.1811,-122"/>
<text text-anchor="middle" x="1678" y="-99.8" font-family="Times,serif" font-size="14.00" fill="#000000">AddressDeliveryComponent</text>
</g>
<!-- AddressDeliveryComponent&#45;&gt;PaymentsModule -->
<g id="edge4" class="edge">
<title>AddressDeliveryComponent&#45;&gt;PaymentsModule</title>
<path fill="none" stroke="#000000" d="M1597.6373,-122.0336C1597.6373,-139.0597 1597.6373,-162 1597.6373,-162 1597.6373,-162 1110.0079,-162 1110.0079,-162"/>
<polygon fill="#000000" stroke="#000000" points="1110.008,-158.5001 1100.0079,-162 1110.0079,-165.5001 1110.008,-158.5001"/>
</g>
<!-- PaymentsContainerComponent -->
<g id="node5" class="node">
<title>PaymentsContainerComponent</title>
<polygon fill="#ffffb3" stroke="#000000" points="1571.4776,-122 1380.5224,-122 1380.5224,-86 1571.4776,-86 1571.4776,-122"/>
<text text-anchor="middle" x="1476" y="-99.8" font-family="Times,serif" font-size="14.00" fill="#000000">PaymentsContainerComponent</text>
</g>
<!-- PaymentsContainerComponent&#45;&gt;PaymentsModule -->
<g id="edge5" class="edge">
<title>PaymentsContainerComponent&#45;&gt;PaymentsModule</title>
<path fill="none" stroke="#000000" d="M1403.4301,-122.0091C1403.4301,-138.0494 1403.4301,-159 1403.4301,-159 1403.4301,-159 1110.1112,-159 1110.1112,-159"/>
<polygon fill="#000000" stroke="#000000" points="1110.1112,-155.5001 1100.1112,-159 1110.1112,-162.5001 1110.1112,-155.5001"/>
</g>
<!-- TwoCheckoutComponent -->
<g id="node6" class="node">
<title>TwoCheckoutComponent</title>
<polygon fill="#ffffb3" stroke="#000000" points="1362.1484,-122 1201.8516,-122 1201.8516,-86 1362.1484,-86 1362.1484,-122"/>
<text text-anchor="middle" x="1282" y="-99.8" font-family="Times,serif" font-size="14.00" fill="#000000">TwoCheckoutComponent</text>
</g>
<!-- TwoCheckoutComponent&#45;&gt;PaymentsModule -->
<g id="edge6" class="edge">
<title>TwoCheckoutComponent&#45;&gt;PaymentsModule</title>
<path fill="none" stroke="#000000" d="M1218.7582,-122.1243C1218.7582,-136.7832 1218.7582,-155 1218.7582,-155 1218.7582,-155 1110.0637,-155 1110.0637,-155"/>
<polygon fill="#000000" stroke="#000000" points="1110.0637,-151.5001 1100.0637,-155 1110.0636,-158.5001 1110.0637,-151.5001"/>
</g>
<!-- StripeComponent -->
<g id="node7" class="node">
<title>StripeComponent</title>
<polygon fill="#ffffb3" stroke="#000000" points="1183.2716,-122 1068.7284,-122 1068.7284,-86 1183.2716,-86 1183.2716,-122"/>
<text text-anchor="middle" x="1126" y="-99.8" font-family="Times,serif" font-size="14.00" fill="#000000">StripeComponent</text>
</g>
<!-- StripeComponent&#45;&gt;PaymentsModule -->
<g id="edge7" class="edge">
<title>StripeComponent&#45;&gt;PaymentsModule</title>
<path fill="none" stroke="#000000" d="M1084.304,-122.1061C1084.304,-122.1061 1084.304,-140.991 1084.304,-140.991"/>
<polygon fill="#000000" stroke="#000000" points="1080.8041,-140.9909 1084.304,-150.991 1087.8041,-140.991 1080.8041,-140.9909"/>
</g>
<!-- PaymentsSpinnerComponent -->
<g id="node8" class="node">
<title>PaymentsSpinnerComponent</title>
<polygon fill="#ffffb3" stroke="#000000" points="1050.8187,-122 871.1813,-122 871.1813,-86 1050.8187,-86 1050.8187,-122"/>
<text text-anchor="middle" x="961" y="-99.8" font-family="Times,serif" font-size="14.00" fill="#000000">PaymentsSpinnerComponent</text>
</g>
<!-- PaymentsSpinnerComponent&#45;&gt;PaymentsModule -->
<g id="edge8" class="edge">
<title>PaymentsSpinnerComponent&#45;&gt;PaymentsModule</title>
<path fill="none" stroke="#000000" d="M1018.3328,-122.1061C1018.3328,-122.1061 1018.3328,-140.991 1018.3328,-140.991"/>
<polygon fill="#000000" stroke="#000000" points="1014.8328,-140.9909 1018.3328,-150.991 1021.8328,-140.991 1014.8328,-140.9909"/>
</g>
<!-- PaymentsComponent  -->
<g id="node15" class="node">
<title>PaymentsComponent </title>
<polygon fill="#fb8072" stroke="#000000" points="1744.7703,-252 1605.2297,-252 1605.2297,-216 1744.7703,-216 1744.7703,-252"/>
<text text-anchor="middle" x="1675" y="-229.8" font-family="Times,serif" font-size="14.00" fill="#000000">PaymentsComponent </text>
</g>
<!-- PaymentsModule&#45;&gt;PaymentsComponent  -->
<g id="edge14" class="edge">
<title>PaymentsModule&#45;&gt;PaymentsComponent </title>
<path fill="none" stroke="#000000" stroke-dasharray="5,2" d="M1100.2005,-177C1255.773,-177 1675,-177 1675,-177 1675,-177 1675,-205.9648 1675,-205.9648"/>
<polygon fill="#000000" stroke="#000000" points="1671.5001,-205.9648 1675,-215.9648 1678.5001,-205.9649 1671.5001,-205.9648"/>
</g>
<!-- DeliveriesComponent  -->
<g id="node16" class="node">
<title>DeliveriesComponent </title>
<polygon fill="#fb8072" stroke="#000000" points="1587.3603,-252 1444.6397,-252 1444.6397,-216 1587.3603,-216 1587.3603,-252"/>
<text text-anchor="middle" x="1516" y="-229.8" font-family="Times,serif" font-size="14.00" fill="#000000">DeliveriesComponent </text>
</g>
<!-- PaymentsModule&#45;&gt;DeliveriesComponent  -->
<g id="edge15" class="edge">
<title>PaymentsModule&#45;&gt;DeliveriesComponent </title>
<path fill="none" stroke="#000000" stroke-dasharray="5,2" d="M1100.0371,-180C1224.2467,-180 1508.1545,-180 1508.1545,-180 1508.1545,-180 1508.1545,-205.7181 1508.1545,-205.7181"/>
<polygon fill="#000000" stroke="#000000" points="1504.6545,-205.718 1508.1545,-215.7181 1511.6545,-205.7181 1504.6545,-205.718"/>
</g>
<!-- PickupDeliveryComponent  -->
<g id="node17" class="node">
<title>PickupDeliveryComponent </title>
<polygon fill="#fb8072" stroke="#000000" points="1426.1981,-252 1253.8019,-252 1253.8019,-216 1426.1981,-216 1426.1981,-252"/>
<text text-anchor="middle" x="1340" y="-229.8" font-family="Times,serif" font-size="14.00" fill="#000000">PickupDeliveryComponent </text>
</g>
<!-- PaymentsModule&#45;&gt;PickupDeliveryComponent  -->
<g id="edge16" class="edge">
<title>PaymentsModule&#45;&gt;PickupDeliveryComponent </title>
<path fill="none" stroke="#000000" stroke-dasharray="5,2" d="M1100.1721,-184C1178.0712,-184 1307.9876,-184 1307.9876,-184 1307.9876,-184 1307.9876,-205.9489 1307.9876,-205.9489"/>
<polygon fill="#000000" stroke="#000000" points="1304.4876,-205.9488 1307.9876,-215.9489 1311.4876,-205.9489 1304.4876,-205.9488"/>
</g>
<!-- AddressDeliveryComponent  -->
<g id="node18" class="node">
<title>AddressDeliveryComponent </title>
<polygon fill="#fb8072" stroke="#000000" points="1235.6813,-252 1056.3187,-252 1056.3187,-216 1235.6813,-216 1235.6813,-252"/>
<text text-anchor="middle" x="1146" y="-229.8" font-family="Times,serif" font-size="14.00" fill="#000000">AddressDeliveryComponent </text>
</g>
<!-- PaymentsModule&#45;&gt;AddressDeliveryComponent  -->
<g id="edge17" class="edge">
<title>PaymentsModule&#45;&gt;AddressDeliveryComponent </title>
<path fill="none" stroke="#000000" stroke-dasharray="5,2" d="M1078.0766,-187.1061C1078.0766,-187.1061 1078.0766,-205.991 1078.0766,-205.991"/>
<polygon fill="#000000" stroke="#000000" points="1074.5767,-205.9909 1078.0766,-215.991 1081.5767,-205.991 1074.5767,-205.9909"/>
</g>
<!-- PaymentsContainerComponent  -->
<g id="node19" class="node">
<title>PaymentsContainerComponent </title>
<polygon fill="#fb8072" stroke="#000000" points="1038.4782,-252 843.5218,-252 843.5218,-216 1038.4782,-216 1038.4782,-252"/>
<text text-anchor="middle" x="941" y="-229.8" font-family="Times,serif" font-size="14.00" fill="#000000">PaymentsContainerComponent </text>
</g>
<!-- PaymentsModule&#45;&gt;PaymentsContainerComponent  -->
<g id="edge18" class="edge">
<title>PaymentsModule&#45;&gt;PaymentsContainerComponent </title>
<path fill="none" stroke="#000000" stroke-dasharray="5,2" d="M1012.1226,-187.1061C1012.1226,-187.1061 1012.1226,-205.991 1012.1226,-205.991"/>
<polygon fill="#000000" stroke="#000000" points="1008.6226,-205.9909 1012.1226,-215.991 1015.6226,-205.991 1008.6226,-205.9909"/>
</g>
<!-- TwoCheckoutComponent  -->
<g id="node20" class="node">
<title>TwoCheckoutComponent </title>
<polygon fill="#fb8072" stroke="#000000" points="826.1481,-252 661.8519,-252 661.8519,-216 826.1481,-216 826.1481,-252"/>
<text text-anchor="middle" x="744" y="-229.8" font-family="Times,serif" font-size="14.00" fill="#000000">TwoCheckoutComponent </text>
</g>
<!-- PaymentsModule&#45;&gt;TwoCheckoutComponent  -->
<g id="edge19" class="edge">
<title>PaymentsModule&#45;&gt;TwoCheckoutComponent </title>
<path fill="none" stroke="#000000" stroke-dasharray="5,2" d="M986.0063,-184C909.5575,-184 783.2937,-184 783.2937,-184 783.2937,-184 783.2937,-205.9489 783.2937,-205.9489"/>
<polygon fill="#000000" stroke="#000000" points="779.7937,-205.9488 783.2937,-215.9489 786.7937,-205.9489 779.7937,-205.9488"/>
</g>
<!-- StripeComponent  -->
<g id="node21" class="node">
<title>StripeComponent </title>
<polygon fill="#fb8072" stroke="#000000" points="644.2717,-252 525.7283,-252 525.7283,-216 644.2717,-216 644.2717,-252"/>
<text text-anchor="middle" x="585" y="-229.8" font-family="Times,serif" font-size="14.00" fill="#000000">StripeComponent </text>
</g>
<!-- PaymentsModule&#45;&gt;StripeComponent  -->
<g id="edge20" class="edge">
<title>PaymentsModule&#45;&gt;StripeComponent </title>
<path fill="none" stroke="#000000" stroke-dasharray="5,2" d="M985.8315,-180C872.1843,-180 628.7226,-180 628.7226,-180 628.7226,-180 628.7226,-205.7181 628.7226,-205.7181"/>
<polygon fill="#000000" stroke="#000000" points="625.2227,-205.718 628.7226,-215.7181 632.2227,-205.7181 625.2227,-205.718"/>
</g>
<!-- PaymentsSpinnerComponent  -->
<g id="node22" class="node">
<title>PaymentsSpinnerComponent </title>
<polygon fill="#fb8072" stroke="#000000" points="507.3185,-252 324.6815,-252 324.6815,-216 507.3185,-216 507.3185,-252"/>
<text text-anchor="middle" x="416" y="-229.8" font-family="Times,serif" font-size="14.00" fill="#000000">PaymentsSpinnerComponent </text>
</g>
<!-- PaymentsModule&#45;&gt;PaymentsSpinnerComponent  -->
<g id="edge21" class="edge">
<title>PaymentsModule&#45;&gt;PaymentsSpinnerComponent </title>
<path fill="none" stroke="#000000" stroke-dasharray="5,2" d="M985.9844,-177C830.3769,-177 409.9493,-177 409.9493,-177 409.9493,-177 409.9493,-205.9648 409.9493,-205.9648"/>
<polygon fill="#000000" stroke="#000000" points="406.4494,-205.9648 409.9493,-215.9648 413.4494,-205.9649 406.4494,-205.9648"/>
</g>
<!-- BrowserModule -->
<g id="node10" class="node">
<title>BrowserModule</title>
<polygon fill="#8dd3c7" stroke="#000000" points="847.4734,-122 844.4734,-126 823.4734,-126 820.4734,-122 740.5266,-122 740.5266,-86 847.4734,-86 847.4734,-122"/>
<text text-anchor="middle" x="794" y="-99.8" font-family="Times,serif" font-size="14.00" fill="#000000">BrowserModule</text>
</g>
<!-- BrowserModule&#45;&gt;PaymentsModule -->
<g id="edge9" class="edge">
<title>BrowserModule&#45;&gt;PaymentsModule</title>
<path fill="none" stroke="#000000" d="M834.9176,-122.1243C834.9176,-136.7832 834.9176,-155 834.9176,-155 834.9176,-155 975.8653,-155 975.8653,-155"/>
<polygon fill="#000000" stroke="#000000" points="975.8654,-158.5001 985.8653,-155 975.8653,-151.5001 975.8654,-158.5001"/>
</g>
<!-- HttpModule -->
<g id="node11" class="node">
<title>HttpModule</title>
<polygon fill="#8dd3c7" stroke="#000000" points="722.4387,-122 719.4387,-126 698.4387,-126 695.4387,-122 637.5613,-122 637.5613,-86 722.4387,-86 722.4387,-122"/>
<text text-anchor="middle" x="680" y="-99.8" font-family="Times,serif" font-size="14.00" fill="#000000">HttpModule</text>
</g>
<!-- HttpModule&#45;&gt;PaymentsModule -->
<g id="edge10" class="edge">
<title>HttpModule&#45;&gt;PaymentsModule</title>
<path fill="none" stroke="#000000" d="M692.0724,-122.0091C692.0724,-138.0494 692.0724,-159 692.0724,-159 692.0724,-159 975.8364,-159 975.8364,-159"/>
<polygon fill="#000000" stroke="#000000" points="975.8364,-162.5001 985.8364,-159 975.8364,-155.5001 975.8364,-162.5001"/>
</g>
<!-- FormsModule -->
<g id="node12" class="node">
<title>FormsModule</title>
<polygon fill="#8dd3c7" stroke="#000000" points="619.8288,-122 616.8288,-126 595.8288,-126 592.8288,-122 524.1712,-122 524.1712,-86 619.8288,-86 619.8288,-122"/>
<text text-anchor="middle" x="572" y="-99.8" font-family="Times,serif" font-size="14.00" fill="#000000">FormsModule</text>
</g>
<!-- FormsModule&#45;&gt;PaymentsModule -->
<g id="edge11" class="edge">
<title>FormsModule&#45;&gt;PaymentsModule</title>
<path fill="none" stroke="#000000" d="M572.7642,-122.0336C572.7642,-139.0597 572.7642,-162 572.7642,-162 572.7642,-162 975.81,-162 975.81,-162"/>
<polygon fill="#000000" stroke="#000000" points="975.81,-165.5001 985.81,-162 975.8099,-158.5001 975.81,-165.5001"/>
</g>
<!-- ReactiveFormsModule -->
<g id="node13" class="node">
<title>ReactiveFormsModule</title>
<polygon fill="#8dd3c7" stroke="#000000" points="506.3047,-122 503.3047,-126 482.3047,-126 479.3047,-122 361.6953,-122 361.6953,-86 506.3047,-86 506.3047,-122"/>
<text text-anchor="middle" x="434" y="-99.8" font-family="Times,serif" font-size="14.00" fill="#000000">ReactiveFormsModule</text>
</g>
<!-- ReactiveFormsModule&#45;&gt;PaymentsModule -->
<g id="edge12" class="edge">
<title>ReactiveFormsModule&#45;&gt;PaymentsModule</title>
<path fill="none" stroke="#000000" d="M458.0507,-122.2667C458.0507,-140.5552 458.0507,-166 458.0507,-166 458.0507,-166 975.8476,-166 975.8476,-166"/>
<polygon fill="#000000" stroke="#000000" points="975.8476,-169.5001 985.8476,-166 975.8475,-162.5001 975.8476,-169.5001"/>
</g>
<!-- BasketServiceModule -->
<g id="node14" class="node">
<title>BasketServiceModule</title>
<polygon fill="#8dd3c7" stroke="#000000" points="343.6289,-122 340.6289,-126 319.6289,-126 316.6289,-122 204.3711,-122 204.3711,-86 343.6289,-86 343.6289,-122"/>
<text text-anchor="middle" x="274" y="-99.8" font-family="Times,serif" font-size="14.00" fill="#000000">BasketServiceModule</text>
</g>
<!-- BasketServiceModule&#45;&gt;PaymentsModule -->
<g id="edge13" class="edge">
<title>BasketServiceModule&#45;&gt;PaymentsModule</title>
<path fill="none" stroke="#000000" d="M334.2025,-122.1061C334.2025,-141.3391 334.2025,-169 334.2025,-169 334.2025,-169 975.8957,-169 975.8957,-169"/>
<polygon fill="#000000" stroke="#000000" points="975.8958,-172.5001 985.8957,-169 975.8957,-165.5001 975.8958,-172.5001"/>
</g>
<!-- PaymentsService -->
<g id="node23" class="node">
<title>PaymentsService</title>
<ellipse fill="#fdb462" stroke="#000000" cx="102" cy="-104" rx="77.5839" ry="18"/>
<text text-anchor="middle" x="102" y="-99.8" font-family="Times,serif" font-size="14.00" fill="#000000">PaymentsService</text>
</g>
<!-- PaymentsService&#45;&gt;PaymentsModule -->
<g id="edge22" class="edge">
<title>PaymentsService&#45;&gt;PaymentsModule</title>
<path fill="none" stroke="#000000" d="M102,-122.1289C102,-142.5724 102,-173 102,-173 102,-173 975.9045,-173 975.9045,-173"/>
<polygon fill="#000000" stroke="#000000" points="975.9046,-176.5001 985.9045,-173 975.9045,-169.5001 975.9046,-176.5001"/>
</g>
</g>
</svg>
