<?xml version="1.0" encoding="UTF-8" standalone="no"?>
<!DOCTYPE svg PUBLIC "-//W3C//DTD SVG 1.1//EN"
 "http://www.w3.org/Graphics/SVG/1.1/DTD/svg11.dtd">
<!-- Generated by graphviz version 2.40.1 (20161225.0304)
 -->
<!-- Title: dependencies Pages: 1 -->
<svg width="2116pt" height="284pt"
 viewBox="0.00 0.00 2116.00 284.00" xmlns="http://www.w3.org/2000/svg" xmlns:xlink="http://www.w3.org/1999/xlink">
<g id="graph0" class="graph" transform="scale(1 1) rotate(0) translate(4 280)">
<title>dependencies</title>
<polygon fill="#ffffff" stroke="transparent" points="-4,4 -4,-280 2112,-280 2112,4 -4,4"/>
<text text-anchor="start" x="1033.0091" y="-42.4" font-family="sans-serif" font-weight="bold" font-size="14.00" fill="#000000">Legend</text>
<polygon fill="#ffffb3" stroke="transparent" points="820,-10 820,-30 840,-30 840,-10 820,-10"/>
<text text-anchor="start" x="843.629" y="-15.4" font-family="sans-serif" font-size="14.00" fill="#000000"> &#160;Declarations</text>
<polygon fill="#8dd3c7" stroke="transparent" points="933,-10 933,-30 953,-30 953,-10 933,-10"/>
<text text-anchor="start" x="956.7251" y="-15.4" font-family="sans-serif" font-size="14.00" fill="#000000"> &#160;Module</text>
<polygon fill="#80b1d3" stroke="transparent" points="1019,-10 1019,-30 1039,-30 1039,-10 1019,-10"/>
<text text-anchor="start" x="1042.7812" y="-15.4" font-family="sans-serif" font-size="14.00" fill="#000000"> &#160;Bootstrap</text>
<polygon fill="#fdb462" stroke="transparent" points="1116,-10 1116,-30 1136,-30 1136,-10 1116,-10"/>
<text text-anchor="start" x="1139.6732" y="-15.4" font-family="sans-serif" font-size="14.00" fill="#000000"> &#160;Providers</text>
<polygon fill="#fb8072" stroke="transparent" points="1212,-10 1212,-30 1232,-30 1232,-10 1212,-10"/>
<text text-anchor="start" x="1235.7258" y="-15.4" font-family="sans-serif" font-size="14.00" fill="#000000"> &#160;Exports</text>
<g id="clust1" class="cluster">
<title>cluster_PaymentsModule</title>
<polygon fill="none" stroke="#000000" stroke-dasharray="1,5" points="8,-70 8,-268 2100,-268 2100,-70 8,-70"/>
</g>
<g id="clust2" class="cluster">
<title>cluster_PaymentsModule_declarations</title>
<polygon fill="none" stroke="#000000" points="683,-78 683,-130 2092,-130 2092,-78 683,-78"/>
</g>
<g id="clust11" class="cluster">
<title>cluster_PaymentsModule_imports</title>
<polygon fill="none" stroke="#000000" points="16,-78 16,-130 675,-130 675,-78 16,-78"/>
</g>
<g id="clust12" class="cluster">
<title>cluster_PaymentsModule_exports</title>
<polygon fill="none" stroke="#000000" points="220,-208 220,-260 1656,-260 1656,-208 220,-208"/>
</g>
<!-- PaymentsComponent -->
<g id="node1" class="node">
<title>PaymentsComponent</title>
<polygon fill="#ffffb3" stroke="#000000" points="2083.7702,-122 1948.2298,-122 1948.2298,-86 2083.7702,-86 2083.7702,-122"/>
<text text-anchor="middle" x="2016" y="-99.8" font-family="Times,serif" font-size="14.00" fill="#000000">PaymentsComponent</text>
</g>
<!-- PaymentsModule -->
<g id="node9" class="node">
<title>PaymentsModule</title>
<polygon fill="#8dd3c7" stroke="#000000" points="1002.9874,-187 999.9874,-191 978.9874,-191 975.9874,-187 889.0126,-187 889.0126,-151 1002.9874,-151 1002.9874,-187"/>
<text text-anchor="middle" x="946" y="-164.8" font-family="Times,serif" font-size="14.00" fill="#000000">PaymentsModule</text>
</g>
<!-- PaymentsComponent&#45;&gt;PaymentsModule -->
<g id="edge1" class="edge">
<title>PaymentsComponent&#45;&gt;PaymentsModule</title>
<path fill="none" stroke="#000000" d="M2016,-122.1289C2016,-142.5724 2016,-173 2016,-173 2016,-173 1013.1496,-173 1013.1496,-173"/>
<polygon fill="#000000" stroke="#000000" points="1013.1496,-169.5001 1003.1496,-173 1013.1495,-176.5001 1013.1496,-169.5001"/>
</g>
<!-- DeliveriesComponent -->
<g id="node2" class="node">
<title>DeliveriesComponent</title>
<polygon fill="#ffffb3" stroke="#000000" points="1930.3599,-122 1791.6401,-122 1791.6401,-86 1930.3599,-86 1930.3599,-122"/>
<text text-anchor="middle" x="1861" y="-99.8" font-family="Times,serif" font-size="14.00" fill="#000000">DeliveriesComponent</text>
</g>
<!-- DeliveriesComponent&#45;&gt;PaymentsModule -->
<g id="edge2" class="edge">
<title>DeliveriesComponent&#45;&gt;PaymentsModule</title>
<path fill="none" stroke="#000000" d="M1861,-122.1061C1861,-141.3391 1861,-169 1861,-169 1861,-169 1013.2373,-169 1013.2373,-169"/>
<polygon fill="#000000" stroke="#000000" points="1013.2374,-165.5001 1003.2373,-169 1013.2373,-172.5001 1013.2374,-165.5001"/>
</g>
<!-- PickupDeliveryComponent -->
<g id="node3" class="node">
<title>PickupDeliveryComponent</title>
<polygon fill="#ffffb3" stroke="#000000" points="1773.6979,-122 1604.3021,-122 1604.3021,-86 1773.6979,-86 1773.6979,-122"/>
<text text-anchor="middle" x="1689" y="-99.8" font-family="Times,serif" font-size="14.00" fill="#000000">PickupDeliveryComponent</text>
</g>
<!-- PickupDeliveryComponent&#45;&gt;PaymentsModule -->
<g id="edge3" class="edge">
<title>PickupDeliveryComponent&#45;&gt;PaymentsModule</title>
<path fill="none" stroke="#000000" d="M1626.0181,-122.2667C1626.0181,-140.5552 1626.0181,-166 1626.0181,-166 1626.0181,-166 1013.0998,-166 1013.0998,-166"/>
<polygon fill="#000000" stroke="#000000" points="1013.0998,-162.5001 1003.0998,-166 1013.0998,-169.5001 1013.0998,-162.5001"/>
</g>
<!-- AddressDeliveryComponent -->
<g id="node4" class="node">
<title>AddressDeliveryComponent</title>
<polygon fill="#ffffb3" stroke="#000000" points="1586.1811,-122 1409.8189,-122 1409.8189,-86 1586.1811,-86 1586.1811,-122"/>
<text text-anchor="middle" x="1498" y="-99.8" font-family="Times,serif" font-size="14.00" fill="#000000">AddressDeliveryComponent</text>
</g>
<!-- AddressDeliveryComponent&#45;&gt;PaymentsModule -->
<g id="edge4" class="edge">
<title>AddressDeliveryComponent&#45;&gt;PaymentsModule</title>
<path fill="none" stroke="#000000" d="M1450.0447,-122.0336C1450.0447,-139.0597 1450.0447,-162 1450.0447,-162 1450.0447,-162 1013.3296,-162 1013.3296,-162"/>
<polygon fill="#000000" stroke="#000000" points="1013.3296,-158.5001 1003.3296,-162 1013.3296,-165.5001 1013.3296,-158.5001"/>
</g>
<!-- PaymentsContainerComponent -->
<g id="node5" class="node">
<title>PaymentsContainerComponent</title>
<polygon fill="#ffffb3" stroke="#000000" points="1391.4776,-122 1200.5224,-122 1200.5224,-86 1391.4776,-86 1391.4776,-122"/>
<text text-anchor="middle" x="1296" y="-99.8" font-family="Times,serif" font-size="14.00" fill="#000000">PaymentsContainerComponent</text>
</g>
<!-- PaymentsContainerComponent&#45;&gt;PaymentsModule -->
<g id="edge5" class="edge">
<title>PaymentsContainerComponent&#45;&gt;PaymentsModule</title>
<path fill="none" stroke="#000000" d="M1264.9301,-122.0091C1264.9301,-138.0494 1264.9301,-159 1264.9301,-159 1264.9301,-159 1013.0183,-159 1013.0183,-159"/>
<polygon fill="#000000" stroke="#000000" points="1013.0183,-155.5001 1003.0183,-159 1013.0183,-162.5001 1013.0183,-155.5001"/>
</g>
<!-- TwoCheckoutComponent -->
<g id="node6" class="node">
<title>TwoCheckoutComponent</title>
<polygon fill="#ffffb3" stroke="#000000" points="1182.1484,-122 1021.8516,-122 1021.8516,-86 1182.1484,-86 1182.1484,-122"/>
<text text-anchor="middle" x="1102" y="-99.8" font-family="Times,serif" font-size="14.00" fill="#000000">TwoCheckoutComponent</text>
</g>
<!-- TwoCheckoutComponent&#45;&gt;PaymentsModule -->
<g id="edge6" class="edge">
<title>TwoCheckoutComponent&#45;&gt;PaymentsModule</title>
<path fill="none" stroke="#000000" d="M1080.2583,-122.1243C1080.2583,-136.7832 1080.2583,-155 1080.2583,-155 1080.2583,-155 1013.327,-155 1013.327,-155"/>
<polygon fill="#000000" stroke="#000000" points="1013.3271,-151.5001 1003.327,-155 1013.327,-158.5001 1013.3271,-151.5001"/>
</g>
<!-- StripeComponent -->
<g id="node7" class="node">
<title>StripeComponent</title>
<polygon fill="#ffffb3" stroke="#000000" points="1003.2716,-122 888.7284,-122 888.7284,-86 1003.2716,-86 1003.2716,-122"/>
<text text-anchor="middle" x="946" y="-99.8" font-family="Times,serif" font-size="14.00" fill="#000000">StripeComponent</text>
</g>
<!-- StripeComponent&#45;&gt;PaymentsModule -->
<g id="edge7" class="edge">
<title>StripeComponent&#45;&gt;PaymentsModule</title>
<path fill="none" stroke="#000000" d="M946,-122.1061C946,-122.1061 946,-140.991 946,-140.991"/>
<polygon fill="#000000" stroke="#000000" points="942.5001,-140.9909 946,-150.991 949.5001,-140.991 942.5001,-140.9909"/>
</g>
<!-- PaymentsSpinnerComponent -->
<g id="node8" class="node">
<title>PaymentsSpinnerComponent</title>
<polygon fill="#ffffb3" stroke="#000000" points="870.8187,-122 691.1813,-122 691.1813,-86 870.8187,-86 870.8187,-122"/>
<text text-anchor="middle" x="781" y="-99.8" font-family="Times,serif" font-size="14.00" fill="#000000">PaymentsSpinnerComponent</text>
</g>
<!-- PaymentsSpinnerComponent&#45;&gt;PaymentsModule -->
<g id="edge8" class="edge">
<title>PaymentsSpinnerComponent&#45;&gt;PaymentsModule</title>
<path fill="none" stroke="#000000" d="M808.7102,-122.1243C808.7102,-136.7832 808.7102,-155 808.7102,-155 808.7102,-155 878.9695,-155 878.9695,-155"/>
<polygon fill="#000000" stroke="#000000" points="878.9695,-158.5001 888.9695,-155 878.9694,-151.5001 878.9695,-158.5001"/>
</g>
<!-- PaymentsComponent  -->
<g id="node15" class="node">
<title>PaymentsComponent </title>
<polygon fill="#fb8072" stroke="#000000" points="1647.7703,-252 1508.2297,-252 1508.2297,-216 1647.7703,-216 1647.7703,-252"/>
<text text-anchor="middle" x="1578" y="-229.8" font-family="Times,serif" font-size="14.00" fill="#000000">PaymentsComponent </text>
</g>
<!-- PaymentsModule&#45;&gt;PaymentsComponent  -->
<g id="edge14" class="edge">
<title>PaymentsModule&#45;&gt;PaymentsComponent </title>
<path fill="none" stroke="#000000" stroke-dasharray="5,2" d="M1003.1041,-177C1153.1806,-177 1547.2278,-177 1547.2278,-177 1547.2278,-177 1547.2278,-205.9648 1547.2278,-205.9648"/>
<polygon fill="#000000" stroke="#000000" points="1543.7278,-205.9648 1547.2278,-215.9648 1550.7278,-205.9649 1543.7278,-205.9648"/>
</g>
<!-- DeliveriesComponent  -->
<g id="node16" class="node">
<title>DeliveriesComponent </title>
<polygon fill="#fb8072" stroke="#000000" points="1490.3603,-252 1347.6397,-252 1347.6397,-216 1490.3603,-216 1490.3603,-252"/>
<text text-anchor="middle" x="1419" y="-229.8" font-family="Times,serif" font-size="14.00" fill="#000000">DeliveriesComponent </text>
</g>
<!-- PaymentsModule&#45;&gt;DeliveriesComponent  -->
<g id="edge15" class="edge">
<title>PaymentsModule&#45;&gt;DeliveriesComponent </title>
<path fill="none" stroke="#000000" stroke-dasharray="5,2" d="M1003.1359,-180C1118.7755,-180 1369.6545,-180 1369.6545,-180 1369.6545,-180 1369.6545,-205.7181 1369.6545,-205.7181"/>
<polygon fill="#000000" stroke="#000000" points="1366.1545,-205.718 1369.6545,-215.7181 1373.1545,-205.7181 1366.1545,-205.718"/>
</g>
<!-- PickupDeliveryComponent  -->
<g id="node17" class="node">
<title>PickupDeliveryComponent </title>
<polygon fill="#fb8072" stroke="#000000" points="1329.1981,-252 1156.8019,-252 1156.8019,-216 1329.1981,-216 1329.1981,-252"/>
<text text-anchor="middle" x="1243" y="-229.8" font-family="Times,serif" font-size="14.00" fill="#000000">PickupDeliveryComponent </text>
</g>
<!-- PaymentsModule&#45;&gt;PickupDeliveryComponent  -->
<g id="edge16" class="edge">
<title>PaymentsModule&#45;&gt;PickupDeliveryComponent </title>
<path fill="none" stroke="#000000" stroke-dasharray="5,2" d="M1003.2634,-184C1069.4796,-184 1169.4876,-184 1169.4876,-184 1169.4876,-184 1169.4876,-205.9489 1169.4876,-205.9489"/>
<polygon fill="#000000" stroke="#000000" points="1165.9876,-205.9488 1169.4876,-215.9489 1172.9876,-205.9489 1165.9876,-205.9488"/>
</g>
<!-- AddressDeliveryComponent  -->
<g id="node18" class="node">
<title>AddressDeliveryComponent </title>
<polygon fill="#fb8072" stroke="#000000" points="1138.6813,-252 959.3187,-252 959.3187,-216 1138.6813,-216 1138.6813,-252"/>
<text text-anchor="middle" x="1049" y="-229.8" font-family="Times,serif" font-size="14.00" fill="#000000">AddressDeliveryComponent </text>
</g>
<!-- PaymentsModule&#45;&gt;AddressDeliveryComponent  -->
<g id="edge17" class="edge">
<title>PaymentsModule&#45;&gt;AddressDeliveryComponent </title>
<path fill="none" stroke="#000000" stroke-dasharray="5,2" d="M981.0766,-187.1061C981.0766,-187.1061 981.0766,-205.991 981.0766,-205.991"/>
<polygon fill="#000000" stroke="#000000" points="977.5767,-205.9909 981.0766,-215.991 984.5767,-205.991 977.5767,-205.9909"/>
</g>
<!-- PaymentsContainerComponent  -->
<g id="node19" class="node">
<title>PaymentsContainerComponent </title>
<polygon fill="#fb8072" stroke="#000000" points="941.4782,-252 746.5218,-252 746.5218,-216 941.4782,-216 941.4782,-252"/>
<text text-anchor="middle" x="844" y="-229.8" font-family="Times,serif" font-size="14.00" fill="#000000">PaymentsContainerComponent </text>
</g>
<!-- PaymentsModule&#45;&gt;PaymentsContainerComponent  -->
<g id="edge18" class="edge">
<title>PaymentsModule&#45;&gt;PaymentsContainerComponent </title>
<path fill="none" stroke="#000000" stroke-dasharray="5,2" d="M915.1226,-187.1061C915.1226,-187.1061 915.1226,-205.991 915.1226,-205.991"/>
<polygon fill="#000000" stroke="#000000" points="911.6226,-205.9909 915.1226,-215.991 918.6226,-205.991 911.6226,-205.9909"/>
</g>
<!-- TwoCheckoutComponent  -->
<g id="node20" class="node">
<title>TwoCheckoutComponent </title>
<polygon fill="#fb8072" stroke="#000000" points="729.1481,-252 564.8519,-252 564.8519,-216 729.1481,-216 729.1481,-252"/>
<text text-anchor="middle" x="647" y="-229.8" font-family="Times,serif" font-size="14.00" fill="#000000">TwoCheckoutComponent </text>
</g>
<!-- PaymentsModule&#45;&gt;TwoCheckoutComponent  -->
<g id="edge19" class="edge">
<title>PaymentsModule&#45;&gt;TwoCheckoutComponent </title>
<path fill="none" stroke="#000000" stroke-dasharray="5,2" d="M888.9212,-184C819.1377,-184 710.2074,-184 710.2074,-184 710.2074,-184 710.2074,-205.9489 710.2074,-205.9489"/>
<polygon fill="#000000" stroke="#000000" points="706.7075,-205.9488 710.2074,-215.9489 713.7075,-205.9489 706.7075,-205.9488"/>
</g>
<!-- StripeComponent  -->
<g id="node21" class="node">
<title>StripeComponent </title>
<polygon fill="#fb8072" stroke="#000000" points="547.2717,-252 428.7283,-252 428.7283,-216 547.2717,-216 547.2717,-252"/>
<text text-anchor="middle" x="488" y="-229.8" font-family="Times,serif" font-size="14.00" fill="#000000">StripeComponent </text>
</g>
<!-- PaymentsModule&#45;&gt;StripeComponent  -->
<g id="edge20" class="edge">
<title>PaymentsModule&#45;&gt;StripeComponent </title>
<path fill="none" stroke="#000000" stroke-dasharray="5,2" d="M888.6617,-180C765.331,-180 485.9271,-180 485.9271,-180 485.9271,-180 485.9271,-205.7181 485.9271,-205.7181"/>
<polygon fill="#000000" stroke="#000000" points="482.4272,-205.718 485.9271,-215.7181 489.4272,-205.7181 482.4272,-205.718"/>
</g>
<!-- PaymentsSpinnerComponent  -->
<g id="node22" class="node">
<title>PaymentsSpinnerComponent </title>
<polygon fill="#fb8072" stroke="#000000" points="410.3185,-252 227.6815,-252 227.6815,-216 410.3185,-216 410.3185,-252"/>
<text text-anchor="middle" x="319" y="-229.8" font-family="Times,serif" font-size="14.00" fill="#000000">PaymentsSpinnerComponent </text>
</g>
<!-- PaymentsModule&#45;&gt;PaymentsSpinnerComponent  -->
<g id="edge21" class="edge">
<title>PaymentsModule&#45;&gt;PaymentsSpinnerComponent </title>
<path fill="none" stroke="#000000" stroke-dasharray="5,2" d="M888.8743,-177C744.6782,-177 377.3726,-177 377.3726,-177 377.3726,-177 377.3726,-205.9648 377.3726,-205.9648"/>
<polygon fill="#000000" stroke="#000000" points="373.8726,-205.9648 377.3726,-215.9648 380.8726,-205.9649 373.8726,-205.9648"/>
</g>
<!-- BrowserModule -->
<g id="node10" class="node">
<title>BrowserModule</title>
<polygon fill="#8dd3c7" stroke="#000000" points="667.4734,-122 664.4734,-126 643.4734,-126 640.4734,-122 560.5266,-122 560.5266,-86 667.4734,-86 667.4734,-122"/>
<text text-anchor="middle" x="614" y="-99.8" font-family="Times,serif" font-size="14.00" fill="#000000">BrowserModule</text>
</g>
<!-- BrowserModule&#45;&gt;PaymentsModule -->
<g id="edge9" class="edge">
<title>BrowserModule&#45;&gt;PaymentsModule</title>
<path fill="none" stroke="#000000" d="M616.2064,-122.0091C616.2064,-138.0494 616.2064,-159 616.2064,-159 616.2064,-159 878.9308,-159 878.9308,-159"/>
<polygon fill="#000000" stroke="#000000" points="878.9309,-162.5001 888.9308,-159 878.9308,-155.5001 878.9309,-162.5001"/>
</g>
<!-- HttpModule -->
<g id="node11" class="node">
<title>HttpModule</title>
<polygon fill="#8dd3c7" stroke="#000000" points="542.4387,-122 539.4387,-126 518.4387,-126 515.4387,-122 457.5613,-122 457.5613,-86 542.4387,-86 542.4387,-122"/>
<text text-anchor="middle" x="500" y="-99.8" font-family="Times,serif" font-size="14.00" fill="#000000">HttpModule</text>
</g>
<!-- HttpModule&#45;&gt;PaymentsModule -->
<g id="edge10" class="edge">
<title>HttpModule&#45;&gt;PaymentsModule</title>
<path fill="none" stroke="#000000" d="M514.0729,-122.0336C514.0729,-139.0597 514.0729,-162 514.0729,-162 514.0729,-162 878.6434,-162 878.6434,-162"/>
<polygon fill="#000000" stroke="#000000" points="878.6435,-165.5001 888.6434,-162 878.6434,-158.5001 878.6435,-165.5001"/>
</g>
<!-- FormsModule -->
<g id="node12" class="node">
<title>FormsModule</title>
<polygon fill="#8dd3c7" stroke="#000000" points="439.8288,-122 436.8288,-126 415.8288,-126 412.8288,-122 344.1712,-122 344.1712,-86 439.8288,-86 439.8288,-122"/>
<text text-anchor="middle" x="392" y="-99.8" font-family="Times,serif" font-size="14.00" fill="#000000">FormsModule</text>
</g>
<!-- FormsModule&#45;&gt;PaymentsModule -->
<g id="edge11" class="edge">
<title>FormsModule&#45;&gt;PaymentsModule</title>
<path fill="none" stroke="#000000" d="M434.2642,-122.2667C434.2642,-140.5552 434.2642,-166 434.2642,-166 434.2642,-166 878.787,-166 878.787,-166"/>
<polygon fill="#000000" stroke="#000000" points="878.787,-169.5001 888.787,-166 878.7869,-162.5001 878.787,-169.5001"/>
</g>
<!-- ReactiveFormsModule -->
<g id="node13" class="node">
<title>ReactiveFormsModule</title>
<polygon fill="#8dd3c7" stroke="#000000" points="326.3047,-122 323.3047,-126 302.3047,-126 299.3047,-122 181.6953,-122 181.6953,-86 326.3047,-86 326.3047,-122"/>
<text text-anchor="middle" x="254" y="-99.8" font-family="Times,serif" font-size="14.00" fill="#000000">ReactiveFormsModule</text>
</g>
<!-- ReactiveFormsModule&#45;&gt;PaymentsModule -->
<g id="edge12" class="edge">
<title>ReactiveFormsModule&#45;&gt;PaymentsModule</title>
<path fill="none" stroke="#000000" d="M276.8715,-122.1061C276.8715,-141.3391 276.8715,-169 276.8715,-169 276.8715,-169 878.9505,-169 878.9505,-169"/>
<polygon fill="#000000" stroke="#000000" points="878.9505,-172.5001 888.9505,-169 878.9504,-165.5001 878.9505,-172.5001"/>
</g>
<!-- BasketServiceModule -->
<g id="node14" class="node">
<title>BasketServiceModule</title>
<polygon fill="#8dd3c7" stroke="#000000" points="163.6289,-122 160.6289,-126 139.6289,-126 136.6289,-122 24.3711,-122 24.3711,-86 163.6289,-86 163.6289,-122"/>
<text text-anchor="middle" x="94" y="-99.8" font-family="Times,serif" font-size="14.00" fill="#000000">BasketServiceModule</text>
</g>
<!-- BasketServiceModule&#45;&gt;PaymentsModule -->
<g id="edge13" class="edge">
<title>BasketServiceModule&#45;&gt;PaymentsModule</title>
<path fill="none" stroke="#000000" d="M94,-122.1289C94,-142.5724 94,-173 94,-173 94,-173 878.7749,-173 878.7749,-173"/>
<polygon fill="#000000" stroke="#000000" points="878.7749,-176.5001 888.7749,-173 878.7749,-169.5001 878.7749,-176.5001"/>
</g>
</g>
</svg>
