<?xml version="1.0" encoding="UTF-8" standalone="no"?>
<!DOCTYPE svg PUBLIC "-//W3C//DTD SVG 1.1//EN"
 "http://www.w3.org/Graphics/SVG/1.1/DTD/svg11.dtd">
<!-- Generated by graphviz version 2.40.1 (20161225.0304)
 -->
<!-- Title: dependencies Pages: 1 -->
<svg width="504pt" height="284pt"
 viewBox="0.00 0.00 504.00 284.00" xmlns="http://www.w3.org/2000/svg" xmlns:xlink="http://www.w3.org/1999/xlink">
<g id="graph0" class="graph" transform="scale(1 1) rotate(0) translate(4 280)">
<title>dependencies</title>
<polygon fill="#ffffff" stroke="transparent" points="-4,4 -4,-280 500,-280 500,4 -4,4"/>
<text text-anchor="start" x="227.0091" y="-42.4" font-family="sans-serif" font-weight="bold" font-size="14.00" fill="#000000">Legend</text>
<polygon fill="#ffffb3" stroke="transparent" points="14,-10 14,-30 34,-30 34,-10 14,-10"/>
<text text-anchor="start" x="37.629" y="-15.4" font-family="sans-serif" font-size="14.00" fill="#000000"> &#160;Declarations</text>
<polygon fill="#8dd3c7" stroke="transparent" points="127,-10 127,-30 147,-30 147,-10 127,-10"/>
<text text-anchor="start" x="150.7251" y="-15.4" font-family="sans-serif" font-size="14.00" fill="#000000"> &#160;Module</text>
<polygon fill="#80b1d3" stroke="transparent" points="213,-10 213,-30 233,-30 233,-10 213,-10"/>
<text text-anchor="start" x="236.7812" y="-15.4" font-family="sans-serif" font-size="14.00" fill="#000000"> &#160;Bootstrap</text>
<polygon fill="#fdb462" stroke="transparent" points="310,-10 310,-30 330,-30 330,-10 310,-10"/>
<text text-anchor="start" x="333.6732" y="-15.4" font-family="sans-serif" font-size="14.00" fill="#000000"> &#160;Providers</text>
<polygon fill="#fb8072" stroke="transparent" points="406,-10 406,-30 426,-30 426,-10 406,-10"/>
<text text-anchor="start" x="429.7258" y="-15.4" font-family="sans-serif" font-size="14.00" fill="#000000"> &#160;Exports</text>
<g id="clust1" class="cluster">
<title>cluster_SeoTextModule</title>
<polygon fill="none" stroke="#000000" stroke-dasharray="1,5" points="51,-70 51,-268 445,-268 445,-70 51,-70"/>
</g>
<g id="clust2" class="cluster">
<title>cluster_SeoTextModule_declarations</title>
<polygon fill="none" stroke="#000000" points="293,-78 293,-130 437,-130 437,-78 293,-78"/>
</g>
<g id="clust4" class="cluster">
<title>cluster_SeoTextModule_imports</title>
<polygon fill="none" stroke="#000000" points="59,-78 59,-130 285,-130 285,-78 59,-78"/>
</g>
<g id="clust5" class="cluster">
<title>cluster_SeoTextModule_exports</title>
<polygon fill="none" stroke="#000000" points="147,-208 147,-260 295,-260 295,-208 147,-208"/>
</g>
<!-- SeoTextComponent -->
<g id="node1" class="node">
<title>SeoTextComponent</title>
<polygon fill="#ffffb3" stroke="#000000" points="428.9874,-122 301.0126,-122 301.0126,-86 428.9874,-86 428.9874,-122"/>
<text text-anchor="middle" x="365" y="-99.8" font-family="Times,serif" font-size="14.00" fill="#000000">SeoTextComponent</text>
</g>
<!-- SeoTextModule -->
<g id="node2" class="node">
<title>SeoTextModule</title>
<polygon fill="#8dd3c7" stroke="#000000" points="274.205,-187 271.205,-191 250.205,-191 247.205,-187 167.795,-187 167.795,-151 274.205,-151 274.205,-187"/>
<text text-anchor="middle" x="221" y="-164.8" font-family="Times,serif" font-size="14.00" fill="#000000">SeoTextModule</text>
</g>
<!-- SeoTextComponent&#45;&gt;SeoTextModule -->
<g id="edge1" class="edge">
<title>SeoTextComponent&#45;&gt;SeoTextModule</title>
<path fill="none" stroke="#000000" d="M365,-122.1061C365,-141.3391 365,-169 365,-169 365,-169 284.2112,-169 284.2112,-169"/>
<polygon fill="#000000" stroke="#000000" points="284.2112,-165.5001 274.2112,-169 284.2111,-172.5001 284.2112,-165.5001"/>
</g>
<!-- SeoTextComponent  -->
<g id="node5" class="node">
<title>SeoTextComponent </title>
<polygon fill="#fb8072" stroke="#000000" points="286.9883,-252 155.0117,-252 155.0117,-216 286.9883,-216 286.9883,-252"/>
<text text-anchor="middle" x="221" y="-229.8" font-family="Times,serif" font-size="14.00" fill="#000000">SeoTextComponent </text>
</g>
<!-- SeoTextModule&#45;&gt;SeoTextComponent  -->
<g id="edge4" class="edge">
<title>SeoTextModule&#45;&gt;SeoTextComponent </title>
<path fill="none" stroke="#000000" stroke-dasharray="5,2" d="M221,-187.1061C221,-187.1061 221,-205.991 221,-205.991"/>
<polygon fill="#000000" stroke="#000000" points="217.5001,-205.9909 221,-215.991 224.5001,-205.991 217.5001,-205.9909"/>
</g>
<!-- CommonModule -->
<g id="node3" class="node">
<title>CommonModule</title>
<polygon fill="#8dd3c7" stroke="#000000" points="276.6681,-122 273.6681,-126 252.6681,-126 249.6681,-122 165.3319,-122 165.3319,-86 276.6681,-86 276.6681,-122"/>
<text text-anchor="middle" x="221" y="-99.8" font-family="Times,serif" font-size="14.00" fill="#000000">CommonModule</text>
</g>
<!-- CommonModule&#45;&gt;SeoTextModule -->
<g id="edge2" class="edge">
<title>CommonModule&#45;&gt;SeoTextModule</title>
<path fill="none" stroke="#000000" d="M221,-122.1061C221,-122.1061 221,-140.991 221,-140.991"/>
<polygon fill="#000000" stroke="#000000" points="217.5001,-140.9909 221,-150.991 224.5001,-140.991 217.5001,-140.9909"/>
</g>
<!-- DalModule -->
<g id="node4" class="node">
<title>DalModule</title>
<polygon fill="#8dd3c7" stroke="#000000" points="146.762,-122 143.762,-126 122.762,-126 119.762,-122 67.238,-122 67.238,-86 146.762,-86 146.762,-122"/>
<text text-anchor="middle" x="107" y="-99.8" font-family="Times,serif" font-size="14.00" fill="#000000">DalModule</text>
</g>
<!-- DalModule&#45;&gt;SeoTextModule -->
<g id="edge3" class="edge">
<title>DalModule&#45;&gt;SeoTextModule</title>
<path fill="none" stroke="#000000" d="M107,-122.1061C107,-141.3391 107,-169 107,-169 107,-169 157.6716,-169 157.6716,-169"/>
<polygon fill="#000000" stroke="#000000" points="157.6716,-172.5001 167.6716,-169 157.6715,-165.5001 157.6716,-172.5001"/>
</g>
</g>
</svg>
