<?xml version="1.0" encoding="UTF-8" standalone="no"?>
<!DOCTYPE svg PUBLIC "-//W3C//DTD SVG 1.1//EN"
 "http://www.w3.org/Graphics/SVG/1.1/DTD/svg11.dtd">
<!-- Generated by graphviz version 2.40.1 (20161225.0304)
 -->
<!-- Title: dependencies Pages: 1 -->
<svg width="504pt" height="211pt"
 viewBox="0.00 0.00 504.00 211.00" xmlns="http://www.w3.org/2000/svg" xmlns:xlink="http://www.w3.org/1999/xlink">
<g id="graph0" class="graph" transform="scale(1 1) rotate(0) translate(4 207)">
<title>dependencies</title>
<polygon fill="#ffffff" stroke="transparent" points="-4,4 -4,-207 500,-207 500,4 -4,4"/>
<text text-anchor="start" x="227.0091" y="-42.4" font-family="sans-serif" font-weight="bold" font-size="14.00" fill="#000000">Legend</text>
<polygon fill="#ffffb3" stroke="transparent" points="14,-10 14,-30 34,-30 34,-10 14,-10"/>
<text text-anchor="start" x="37.629" y="-15.4" font-family="sans-serif" font-size="14.00" fill="#000000"> &#160;Declarations</text>
<polygon fill="#8dd3c7" stroke="transparent" points="127,-10 127,-30 147,-30 147,-10 127,-10"/>
<text text-anchor="start" x="150.7251" y="-15.4" font-family="sans-serif" font-size="14.00" fill="#000000"> &#160;Module</text>
<polygon fill="#80b1d3" stroke="transparent" points="213,-10 213,-30 233,-30 233,-10 213,-10"/>
<text text-anchor="start" x="236.7812" y="-15.4" font-family="sans-serif" font-size="14.00" fill="#000000"> &#160;Bootstrap</text>
<polygon fill="#fdb462" stroke="transparent" points="310,-10 310,-30 330,-30 330,-10 310,-10"/>
<text text-anchor="start" x="333.6732" y="-15.4" font-family="sans-serif" font-size="14.00" fill="#000000"> &#160;Providers</text>
<polygon fill="#fb8072" stroke="transparent" points="406,-10 406,-30 426,-30 426,-10 406,-10"/>
<text text-anchor="start" x="429.7258" y="-15.4" font-family="sans-serif" font-size="14.00" fill="#000000"> &#160;Exports</text>
<g id="clust1" class="cluster">
<title>cluster_BasketServiceModule</title>
<polygon fill="none" stroke="#000000" stroke-dasharray="1,5" points="44.5,-70 44.5,-195 451.5,-195 451.5,-70 44.5,-70"/>
</g>
<g id="clust3" class="cluster">
<title>cluster_BasketServiceModule_imports</title>
<polygon fill="none" stroke="#000000" points="347.5,-78 347.5,-130 443.5,-130 443.5,-78 347.5,-78"/>
</g>
<g id="clust6" class="cluster">
<title>cluster_BasketServiceModule_providers</title>
<polygon fill="none" stroke="#000000" points="52.5,-78 52.5,-130 339.5,-130 339.5,-78 52.5,-78"/>
</g>
<!-- DalModule -->
<g id="node1" class="node">
<title>DalModule</title>
<polygon fill="#8dd3c7" stroke="#000000" points="435.262,-122 432.262,-126 411.262,-126 408.262,-122 355.738,-122 355.738,-86 435.262,-86 435.262,-122"/>
<text text-anchor="middle" x="395.5" y="-99.8" font-family="Times,serif" font-size="14.00" fill="#000000">DalModule</text>
</g>
<!-- BasketServiceModule -->
<g id="node2" class="node">
<title>BasketServiceModule</title>
<polygon fill="#8dd3c7" stroke="#000000" points="335.1289,-187 332.1289,-191 311.1289,-191 308.1289,-187 195.8711,-187 195.8711,-151 335.1289,-151 335.1289,-187"/>
<text text-anchor="middle" x="265.5" y="-164.8" font-family="Times,serif" font-size="14.00" fill="#000000">BasketServiceModule</text>
</g>
<!-- DalModule&#45;&gt;BasketServiceModule -->
<g id="edge1" class="edge">
<title>DalModule&#45;&gt;BasketServiceModule</title>
<path fill="none" stroke="#000000" d="M395.5,-122.1061C395.5,-141.3391 395.5,-169 395.5,-169 395.5,-169 345.4469,-169 345.4469,-169"/>
<polygon fill="#000000" stroke="#000000" points="345.447,-165.5001 335.4469,-169 345.4469,-172.5001 345.447,-165.5001"/>
</g>
<!-- BasketService -->
<g id="node3" class="node">
<title>BasketService</title>
<ellipse fill="#fdb462" stroke="#000000" cx="265.5" cy="-104" rx="66.0473" ry="18"/>
<text text-anchor="middle" x="265.5" y="-99.8" font-family="Times,serif" font-size="14.00" fill="#000000">BasketService</text>
</g>
<!-- BasketService&#45;&gt;BasketServiceModule -->
<g id="edge2" class="edge">
<title>BasketService&#45;&gt;BasketServiceModule</title>
<path fill="none" stroke="#000000" d="M265.5,-122.1061C265.5,-122.1061 265.5,-140.991 265.5,-140.991"/>
<polygon fill="#000000" stroke="#000000" points="262.0001,-140.9909 265.5,-150.991 269.0001,-140.991 262.0001,-140.9909"/>
</g>
<!-- SessionFlow -->
<g id="node4" class="node">
<title>SessionFlow</title>
<ellipse fill="#fdb462" stroke="#000000" cx="120.5" cy="-104" rx="60.2903" ry="18"/>
<text text-anchor="middle" x="120.5" y="-99.8" font-family="Times,serif" font-size="14.00" fill="#000000">SessionFlow</text>
</g>
<!-- SessionFlow&#45;&gt;BasketServiceModule -->
<g id="edge3" class="edge">
<title>SessionFlow&#45;&gt;BasketServiceModule</title>
<path fill="none" stroke="#000000" d="M120.5,-122.1061C120.5,-141.3391 120.5,-169 120.5,-169 120.5,-169 185.5484,-169 185.5484,-169"/>
<polygon fill="#000000" stroke="#000000" points="185.5484,-172.5001 195.5484,-169 185.5483,-165.5001 185.5484,-172.5001"/>
</g>
</g>
</svg>
