<?xml version="1.0" encoding="UTF-8" standalone="no"?>
<!DOCTYPE svg PUBLIC "-//W3C//DTD SVG 1.1//EN"
 "http://www.w3.org/Graphics/SVG/1.1/DTD/svg11.dtd">
<!-- Generated by graphviz version 2.40.1 (20161225.0304)
 -->
<!-- Title: dependencies Pages: 1 -->
<svg width="504pt" height="284pt"
 viewBox="0.00 0.00 504.00 284.00" xmlns="http://www.w3.org/2000/svg" xmlns:xlink="http://www.w3.org/1999/xlink">
<g id="graph0" class="graph" transform="scale(1 1) rotate(0) translate(4 280)">
<title>dependencies</title>
<polygon fill="#ffffff" stroke="transparent" points="-4,4 -4,-280 500,-280 500,4 -4,4"/>
<text text-anchor="start" x="227.0091" y="-42.4" font-family="sans-serif" font-weight="bold" font-size="14.00" fill="#000000">Legend</text>
<polygon fill="#ffffb3" stroke="transparent" points="14,-10 14,-30 34,-30 34,-10 14,-10"/>
<text text-anchor="start" x="37.629" y="-15.4" font-family="sans-serif" font-size="14.00" fill="#000000"> &#160;Declarations</text>
<polygon fill="#8dd3c7" stroke="transparent" points="127,-10 127,-30 147,-30 147,-10 127,-10"/>
<text text-anchor="start" x="150.7251" y="-15.4" font-family="sans-serif" font-size="14.00" fill="#000000"> &#160;Module</text>
<polygon fill="#80b1d3" stroke="transparent" points="213,-10 213,-30 233,-30 233,-10 213,-10"/>
<text text-anchor="start" x="236.7812" y="-15.4" font-family="sans-serif" font-size="14.00" fill="#000000"> &#160;Bootstrap</text>
<polygon fill="#fdb462" stroke="transparent" points="310,-10 310,-30 330,-30 330,-10 310,-10"/>
<text text-anchor="start" x="333.6732" y="-15.4" font-family="sans-serif" font-size="14.00" fill="#000000"> &#160;Providers</text>
<polygon fill="#fb8072" stroke="transparent" points="406,-10 406,-30 426,-30 426,-10 406,-10"/>
<text text-anchor="start" x="429.7258" y="-15.4" font-family="sans-serif" font-size="14.00" fill="#000000"> &#160;Exports</text>
<g id="clust1" class="cluster">
<title>cluster_TagsSearchModule</title>
<polygon fill="none" stroke="#000000" stroke-dasharray="1,5" points="9.5,-70 9.5,-268 486.5,-268 486.5,-70 9.5,-70"/>
</g>
<g id="clust2" class="cluster">
<title>cluster_TagsSearchModule_declarations</title>
<polygon fill="none" stroke="#000000" points="316.5,-78 316.5,-130 478.5,-130 478.5,-78 316.5,-78"/>
</g>
<g id="clust4" class="cluster">
<title>cluster_TagsSearchModule_imports</title>
<polygon fill="none" stroke="#000000" points="17.5,-78 17.5,-130 308.5,-130 308.5,-78 17.5,-78"/>
</g>
<g id="clust5" class="cluster">
<title>cluster_TagsSearchModule_exports</title>
<polygon fill="none" stroke="#000000" points="144.5,-208 144.5,-260 310.5,-260 310.5,-208 144.5,-208"/>
</g>
<!-- TagsSearchComponent -->
<g id="node1" class="node">
<title>TagsSearchComponent</title>
<polygon fill="#ffffb3" stroke="#000000" points="470.6317,-122 324.3683,-122 324.3683,-86 470.6317,-86 470.6317,-122"/>
<text text-anchor="middle" x="397.5" y="-99.8" font-family="Times,serif" font-size="14.00" fill="#000000">TagsSearchComponent</text>
</g>
<!-- TagsSearchModule -->
<g id="node2" class="node">
<title>TagsSearchModule</title>
<polygon fill="#8dd3c7" stroke="#000000" points="289.8487,-187 286.8487,-191 265.8487,-191 262.8487,-187 165.1513,-187 165.1513,-151 289.8487,-151 289.8487,-187"/>
<text text-anchor="middle" x="227.5" y="-164.8" font-family="Times,serif" font-size="14.00" fill="#000000">TagsSearchModule</text>
</g>
<!-- TagsSearchComponent&#45;&gt;TagsSearchModule -->
<g id="edge1" class="edge">
<title>TagsSearchComponent&#45;&gt;TagsSearchModule</title>
<path fill="none" stroke="#000000" d="M397.5,-122.1061C397.5,-141.3391 397.5,-169 397.5,-169 397.5,-169 300.3187,-169 300.3187,-169"/>
<polygon fill="#000000" stroke="#000000" points="300.3188,-165.5001 290.3187,-169 300.3187,-172.5001 300.3188,-165.5001"/>
</g>
<!-- TagsSearchComponent  -->
<g id="node5" class="node">
<title>TagsSearchComponent </title>
<polygon fill="#fb8072" stroke="#000000" points="302.6313,-252 152.3687,-252 152.3687,-216 302.6313,-216 302.6313,-252"/>
<text text-anchor="middle" x="227.5" y="-229.8" font-family="Times,serif" font-size="14.00" fill="#000000">TagsSearchComponent </text>
</g>
<!-- TagsSearchModule&#45;&gt;TagsSearchComponent  -->
<g id="edge4" class="edge">
<title>TagsSearchModule&#45;&gt;TagsSearchComponent </title>
<path fill="none" stroke="#000000" stroke-dasharray="5,2" d="M227.5,-187.1061C227.5,-187.1061 227.5,-205.991 227.5,-205.991"/>
<polygon fill="#000000" stroke="#000000" points="224.0001,-205.9909 227.5,-215.991 231.0001,-205.991 224.0001,-205.9909"/>
</g>
<!-- ProductServiceModule -->
<g id="node3" class="node">
<title>ProductServiceModule</title>
<polygon fill="#8dd3c7" stroke="#000000" points="300.0758,-122 297.0758,-126 276.0758,-126 273.0758,-122 154.9242,-122 154.9242,-86 300.0758,-86 300.0758,-122"/>
<text text-anchor="middle" x="227.5" y="-99.8" font-family="Times,serif" font-size="14.00" fill="#000000">ProductServiceModule</text>
</g>
<!-- ProductServiceModule&#45;&gt;TagsSearchModule -->
<g id="edge2" class="edge">
<title>ProductServiceModule&#45;&gt;TagsSearchModule</title>
<path fill="none" stroke="#000000" d="M227.5,-122.1061C227.5,-122.1061 227.5,-140.991 227.5,-140.991"/>
<polygon fill="#000000" stroke="#000000" points="224.0001,-140.9909 227.5,-150.991 231.0001,-140.991 224.0001,-140.9909"/>
</g>
<!-- CommonModule -->
<g id="node4" class="node">
<title>CommonModule</title>
<polygon fill="#8dd3c7" stroke="#000000" points="137.1681,-122 134.1681,-126 113.1681,-126 110.1681,-122 25.8319,-122 25.8319,-86 137.1681,-86 137.1681,-122"/>
<text text-anchor="middle" x="81.5" y="-99.8" font-family="Times,serif" font-size="14.00" fill="#000000">CommonModule</text>
</g>
<!-- CommonModule&#45;&gt;TagsSearchModule -->
<g id="edge3" class="edge">
<title>CommonModule&#45;&gt;TagsSearchModule</title>
<path fill="none" stroke="#000000" d="M81.5,-122.1061C81.5,-141.3391 81.5,-169 81.5,-169 81.5,-169 154.7355,-169 154.7355,-169"/>
<polygon fill="#000000" stroke="#000000" points="154.7356,-172.5001 164.7355,-169 154.7355,-165.5001 154.7356,-172.5001"/>
</g>
</g>
</svg>
