<?xml version="1.0" encoding="UTF-8" standalone="no"?>
<!DOCTYPE svg PUBLIC "-//W3C//DTD SVG 1.1//EN"
 "http://www.w3.org/Graphics/SVG/1.1/DTD/svg11.dtd">
<!-- Generated by graphviz version 2.40.1 (20161225.0304)
 -->
<!-- Title: dependencies Pages: 1 -->
<svg width="504pt" height="284pt"
 viewBox="0.00 0.00 504.00 284.00" xmlns="http://www.w3.org/2000/svg" xmlns:xlink="http://www.w3.org/1999/xlink">
<g id="graph0" class="graph" transform="scale(1 1) rotate(0) translate(4 280)">
<title>dependencies</title>
<polygon fill="#ffffff" stroke="transparent" points="-4,4 -4,-280 500,-280 500,4 -4,4"/>
<text text-anchor="start" x="227.0091" y="-42.4" font-family="sans-serif" font-weight="bold" font-size="14.00" fill="#000000">Legend</text>
<polygon fill="#ffffb3" stroke="transparent" points="14,-10 14,-30 34,-30 34,-10 14,-10"/>
<text text-anchor="start" x="37.629" y="-15.4" font-family="sans-serif" font-size="14.00" fill="#000000"> &#160;Declarations</text>
<polygon fill="#8dd3c7" stroke="transparent" points="127,-10 127,-30 147,-30 147,-10 127,-10"/>
<text text-anchor="start" x="150.7251" y="-15.4" font-family="sans-serif" font-size="14.00" fill="#000000"> &#160;Module</text>
<polygon fill="#80b1d3" stroke="transparent" points="213,-10 213,-30 233,-30 233,-10 213,-10"/>
<text text-anchor="start" x="236.7812" y="-15.4" font-family="sans-serif" font-size="14.00" fill="#000000"> &#160;Bootstrap</text>
<polygon fill="#fdb462" stroke="transparent" points="310,-10 310,-30 330,-30 330,-10 310,-10"/>
<text text-anchor="start" x="333.6732" y="-15.4" font-family="sans-serif" font-size="14.00" fill="#000000"> &#160;Providers</text>
<polygon fill="#fb8072" stroke="transparent" points="406,-10 406,-30 426,-30 426,-10 406,-10"/>
<text text-anchor="start" x="429.7258" y="-15.4" font-family="sans-serif" font-size="14.00" fill="#000000"> &#160;Exports</text>
<g id="clust1" class="cluster">
<title>cluster_SearchBarModule</title>
<polygon fill="none" stroke="#000000" stroke-dasharray="1,5" points="12.5,-70 12.5,-268 483.5,-268 483.5,-70 12.5,-70"/>
</g>
<g id="clust2" class="cluster">
<title>cluster_SearchBarModule_declarations</title>
<polygon fill="none" stroke="#000000" points="319.5,-78 319.5,-130 475.5,-130 475.5,-78 319.5,-78"/>
</g>
<g id="clust4" class="cluster">
<title>cluster_SearchBarModule_imports</title>
<polygon fill="none" stroke="#000000" points="20.5,-78 20.5,-130 311.5,-130 311.5,-78 20.5,-78"/>
</g>
<g id="clust5" class="cluster">
<title>cluster_SearchBarModule_exports</title>
<polygon fill="none" stroke="#000000" points="150.5,-208 150.5,-260 310.5,-260 310.5,-208 150.5,-208"/>
</g>
<!-- SearchBarComponent -->
<g id="node1" class="node">
<title>SearchBarComponent</title>
<polygon fill="#ffffb3" stroke="#000000" points="467.1317,-122 327.8683,-122 327.8683,-86 467.1317,-86 467.1317,-122"/>
<text text-anchor="middle" x="397.5" y="-99.8" font-family="Times,serif" font-size="14.00" fill="#000000">SearchBarComponent</text>
</g>
<!-- SearchBarModule -->
<g id="node2" class="node">
<title>SearchBarModule</title>
<polygon fill="#8dd3c7" stroke="#000000" points="289.3487,-187 286.3487,-191 265.3487,-191 262.3487,-187 171.6513,-187 171.6513,-151 289.3487,-151 289.3487,-187"/>
<text text-anchor="middle" x="230.5" y="-164.8" font-family="Times,serif" font-size="14.00" fill="#000000">SearchBarModule</text>
</g>
<!-- SearchBarComponent&#45;&gt;SearchBarModule -->
<g id="edge1" class="edge">
<title>SearchBarComponent&#45;&gt;SearchBarModule</title>
<path fill="none" stroke="#000000" d="M397.5,-122.1061C397.5,-141.3391 397.5,-169 397.5,-169 397.5,-169 299.378,-169 299.378,-169"/>
<polygon fill="#000000" stroke="#000000" points="299.378,-165.5001 289.378,-169 299.3779,-172.5001 299.378,-165.5001"/>
</g>
<!-- SearchBarComponent  -->
<g id="node5" class="node">
<title>SearchBarComponent </title>
<polygon fill="#fb8072" stroke="#000000" points="302.1313,-252 158.8687,-252 158.8687,-216 302.1313,-216 302.1313,-252"/>
<text text-anchor="middle" x="230.5" y="-229.8" font-family="Times,serif" font-size="14.00" fill="#000000">SearchBarComponent </text>
</g>
<!-- SearchBarModule&#45;&gt;SearchBarComponent  -->
<g id="edge4" class="edge">
<title>SearchBarModule&#45;&gt;SearchBarComponent </title>
<path fill="none" stroke="#000000" stroke-dasharray="5,2" d="M230.5,-187.1061C230.5,-187.1061 230.5,-205.991 230.5,-205.991"/>
<polygon fill="#000000" stroke="#000000" points="227.0001,-205.9909 230.5,-215.991 234.0001,-205.991 227.0001,-205.9909"/>
</g>
<!-- ProductServiceModule -->
<g id="node3" class="node">
<title>ProductServiceModule</title>
<polygon fill="#8dd3c7" stroke="#000000" points="303.0758,-122 300.0758,-126 279.0758,-126 276.0758,-122 157.9242,-122 157.9242,-86 303.0758,-86 303.0758,-122"/>
<text text-anchor="middle" x="230.5" y="-99.8" font-family="Times,serif" font-size="14.00" fill="#000000">ProductServiceModule</text>
</g>
<!-- ProductServiceModule&#45;&gt;SearchBarModule -->
<g id="edge2" class="edge">
<title>ProductServiceModule&#45;&gt;SearchBarModule</title>
<path fill="none" stroke="#000000" d="M230.5,-122.1061C230.5,-122.1061 230.5,-140.991 230.5,-140.991"/>
<polygon fill="#000000" stroke="#000000" points="227.0001,-140.9909 230.5,-150.991 234.0001,-140.991 227.0001,-140.9909"/>
</g>
<!-- CommonModule -->
<g id="node4" class="node">
<title>CommonModule</title>
<polygon fill="#8dd3c7" stroke="#000000" points="140.1681,-122 137.1681,-126 116.1681,-126 113.1681,-122 28.8319,-122 28.8319,-86 140.1681,-86 140.1681,-122"/>
<text text-anchor="middle" x="84.5" y="-99.8" font-family="Times,serif" font-size="14.00" fill="#000000">CommonModule</text>
</g>
<!-- CommonModule&#45;&gt;SearchBarModule -->
<g id="edge3" class="edge">
<title>CommonModule&#45;&gt;SearchBarModule</title>
<path fill="none" stroke="#000000" d="M84.5,-122.1061C84.5,-141.3391 84.5,-169 84.5,-169 84.5,-169 161.5371,-169 161.5371,-169"/>
<polygon fill="#000000" stroke="#000000" points="161.5371,-172.5001 171.5371,-169 161.537,-165.5001 161.5371,-172.5001"/>
</g>
</g>
</svg>
