<?xml version="1.0" encoding="UTF-8" standalone="no"?>
<!DOCTYPE svg PUBLIC "-//W3C//DTD SVG 1.1//EN"
 "http://www.w3.org/Graphics/SVG/1.1/DTD/svg11.dtd">
<!-- Generated by graphviz version 2.40.1 (20161225.0304)
 -->
<!-- Title: dependencies Pages: 1 -->
<svg width="879pt" height="284pt"
 viewBox="0.00 0.00 879.00 284.00" xmlns="http://www.w3.org/2000/svg" xmlns:xlink="http://www.w3.org/1999/xlink">
<g id="graph0" class="graph" transform="scale(1 1) rotate(0) translate(4 280)">
<title>dependencies</title>
<polygon fill="#ffffff" stroke="transparent" points="-4,4 -4,-280 875,-280 875,4 -4,4"/>
<text text-anchor="start" x="414.5091" y="-42.4" font-family="sans-serif" font-weight="bold" font-size="14.00" fill="#000000">Legend</text>
<polygon fill="#ffffb3" stroke="transparent" points="201.5,-10 201.5,-30 221.5,-30 221.5,-10 201.5,-10"/>
<text text-anchor="start" x="225.129" y="-15.4" font-family="sans-serif" font-size="14.00" fill="#000000"> &#160;Declarations</text>
<polygon fill="#8dd3c7" stroke="transparent" points="314.5,-10 314.5,-30 334.5,-30 334.5,-10 314.5,-10"/>
<text text-anchor="start" x="338.2251" y="-15.4" font-family="sans-serif" font-size="14.00" fill="#000000"> &#160;Module</text>
<polygon fill="#80b1d3" stroke="transparent" points="400.5,-10 400.5,-30 420.5,-30 420.5,-10 400.5,-10"/>
<text text-anchor="start" x="424.2812" y="-15.4" font-family="sans-serif" font-size="14.00" fill="#000000"> &#160;Bootstrap</text>
<polygon fill="#fdb462" stroke="transparent" points="497.5,-10 497.5,-30 517.5,-30 517.5,-10 497.5,-10"/>
<text text-anchor="start" x="521.1732" y="-15.4" font-family="sans-serif" font-size="14.00" fill="#000000"> &#160;Providers</text>
<polygon fill="#fb8072" stroke="transparent" points="593.5,-10 593.5,-30 613.5,-30 613.5,-10 593.5,-10"/>
<text text-anchor="start" x="617.2258" y="-15.4" font-family="sans-serif" font-size="14.00" fill="#000000"> &#160;Exports</text>
<g id="clust1" class="cluster">
<title>cluster_ProductsGeneralModule</title>
<polygon fill="none" stroke="#000000" stroke-dasharray="1,5" points="8,-70 8,-268 863,-268 863,-70 8,-70"/>
</g>
<g id="clust2" class="cluster">
<title>cluster_ProductsGeneralModule_declarations</title>
<polygon fill="none" stroke="#000000" points="665,-78 665,-130 855,-130 855,-78 665,-78"/>
</g>
<g id="clust4" class="cluster">
<title>cluster_ProductsGeneralModule_imports</title>
<polygon fill="none" stroke="#000000" points="16,-78 16,-130 657,-130 657,-78 16,-78"/>
</g>
<g id="clust5" class="cluster">
<title>cluster_ProductsGeneralModule_exports</title>
<polygon fill="none" stroke="#000000" points="333,-208 333,-260 527,-260 527,-208 333,-208"/>
</g>
<!-- ProductsGeneralComponent -->
<g id="node1" class="node">
<title>ProductsGeneralComponent</title>
<polygon fill="#ffffb3" stroke="#000000" points="847.1274,-122 672.8726,-122 672.8726,-86 847.1274,-86 847.1274,-122"/>
<text text-anchor="middle" x="760" y="-99.8" font-family="Times,serif" font-size="14.00" fill="#000000">ProductsGeneralComponent</text>
</g>
<!-- ProductsGeneralModule -->
<g id="node2" class="node">
<title>ProductsGeneralModule</title>
<polygon fill="#8dd3c7" stroke="#000000" points="506.3445,-187 503.3445,-191 482.3445,-191 479.3445,-187 353.6555,-187 353.6555,-151 506.3445,-151 506.3445,-187"/>
<text text-anchor="middle" x="430" y="-164.8" font-family="Times,serif" font-size="14.00" fill="#000000">ProductsGeneralModule</text>
</g>
<!-- ProductsGeneralComponent&#45;&gt;ProductsGeneralModule -->
<g id="edge1" class="edge">
<title>ProductsGeneralComponent&#45;&gt;ProductsGeneralModule</title>
<path fill="none" stroke="#000000" d="M760,-122.2843C760,-143.3211 760,-175 760,-175 760,-175 516.5381,-175 516.5381,-175"/>
<polygon fill="#000000" stroke="#000000" points="516.5381,-171.5001 506.5381,-175 516.5381,-178.5001 516.5381,-171.5001"/>
</g>
<!-- ProductsGeneralComponent  -->
<g id="node7" class="node">
<title>ProductsGeneralComponent </title>
<polygon fill="#fb8072" stroke="#000000" points="519.127,-252 340.873,-252 340.873,-216 519.127,-216 519.127,-252"/>
<text text-anchor="middle" x="430" y="-229.8" font-family="Times,serif" font-size="14.00" fill="#000000">ProductsGeneralComponent </text>
</g>
<!-- ProductsGeneralModule&#45;&gt;ProductsGeneralComponent  -->
<g id="edge6" class="edge">
<title>ProductsGeneralModule&#45;&gt;ProductsGeneralComponent </title>
<path fill="none" stroke="#000000" stroke-dasharray="5,2" d="M430,-187.1061C430,-187.1061 430,-205.991 430,-205.991"/>
<polygon fill="#000000" stroke="#000000" points="426.5001,-205.9909 430,-215.991 433.5001,-205.991 426.5001,-205.9909"/>
</g>
<!-- ProductServiceModule -->
<g id="node3" class="node">
<title>ProductServiceModule</title>
<polygon fill="#8dd3c7" stroke="#000000" points="648.5758,-122 645.5758,-126 624.5758,-126 621.5758,-122 503.4242,-122 503.4242,-86 648.5758,-86 648.5758,-122"/>
<text text-anchor="middle" x="576" y="-99.8" font-family="Times,serif" font-size="14.00" fill="#000000">ProductServiceModule</text>
</g>
<!-- ProductServiceModule&#45;&gt;ProductsGeneralModule -->
<g id="edge2" class="edge">
<title>ProductServiceModule&#45;&gt;ProductsGeneralModule</title>
<path fill="none" stroke="#000000" d="M512.7429,-122.0225C512.7429,-139.3734 512.7429,-163 512.7429,-163 512.7429,-163 512.1209,-163 512.1209,-163"/>
<polygon fill="#000000" stroke="#000000" points="516.5238,-159.5002 506.5237,-163 516.5236,-166.5002 516.5238,-159.5002"/>
</g>
<!-- CommonModule -->
<g id="node4" class="node">
<title>CommonModule</title>
<polygon fill="#8dd3c7" stroke="#000000" points="485.6681,-122 482.6681,-126 461.6681,-126 458.6681,-122 374.3319,-122 374.3319,-86 485.6681,-86 485.6681,-122"/>
<text text-anchor="middle" x="430" y="-99.8" font-family="Times,serif" font-size="14.00" fill="#000000">CommonModule</text>
</g>
<!-- CommonModule&#45;&gt;ProductsGeneralModule -->
<g id="edge3" class="edge">
<title>CommonModule&#45;&gt;ProductsGeneralModule</title>
<path fill="none" stroke="#000000" d="M430,-122.1061C430,-122.1061 430,-140.991 430,-140.991"/>
<polygon fill="#000000" stroke="#000000" points="426.5001,-140.9909 430,-150.991 433.5001,-140.991 426.5001,-140.9909"/>
</g>
<!-- CategoryFilterModule -->
<g id="node5" class="node">
<title>CategoryFilterModule</title>
<polygon fill="#8dd3c7" stroke="#000000" points="356.6965,-122 353.6965,-126 332.6965,-126 329.6965,-122 215.3035,-122 215.3035,-86 356.6965,-86 356.6965,-122"/>
<text text-anchor="middle" x="286" y="-99.8" font-family="Times,serif" font-size="14.00" fill="#000000">CategoryFilterModule</text>
</g>
<!-- CategoryFilterModule&#45;&gt;ProductsGeneralModule -->
<g id="edge4" class="edge">
<title>CategoryFilterModule&#45;&gt;ProductsGeneralModule</title>
<path fill="none" stroke="#000000" d="M347.2572,-122.2843C347.2572,-143.3211 347.2572,-175 347.2572,-175 347.2572,-175 347.8791,-175 347.8791,-175"/>
<polygon fill="#000000" stroke="#000000" points="343.4764,-178.5002 353.4763,-175 343.4762,-171.5002 343.4764,-178.5002"/>
</g>
<!-- GeneralCategoryAllModule -->
<g id="node6" class="node">
<title>GeneralCategoryAllModule</title>
<polygon fill="#8dd3c7" stroke="#000000" points="197.5562,-122 194.5562,-126 173.5562,-126 170.5562,-122 24.4438,-122 24.4438,-86 197.5562,-86 197.5562,-122"/>
<text text-anchor="middle" x="111" y="-99.8" font-family="Times,serif" font-size="14.00" fill="#000000">GeneralCategoryAllModule</text>
</g>
<!-- GeneralCategoryAllModule&#45;&gt;ProductsGeneralModule -->
<g id="edge5" class="edge">
<title>GeneralCategoryAllModule&#45;&gt;ProductsGeneralModule</title>
<path fill="none" stroke="#000000" d="M111,-122.0225C111,-139.3734 111,-163 111,-163 111,-163 343.5916,-163 343.5916,-163"/>
<polygon fill="#000000" stroke="#000000" points="343.5916,-166.5001 353.5916,-163 343.5915,-159.5001 343.5916,-166.5001"/>
</g>
</g>
</svg>
