<?xml version="1.0" encoding="UTF-8" standalone="no"?>
<!DOCTYPE svg PUBLIC "-//W3C//DTD SVG 1.1//EN"
 "http://www.w3.org/Graphics/SVG/1.1/DTD/svg11.dtd">
<!-- Generated by graphviz version 2.40.1 (20161225.0304)
 -->
<!-- Title: dependencies Pages: 1 -->
<svg width="1122pt" height="211pt"
 viewBox="0.00 0.00 1122.00 211.00" xmlns="http://www.w3.org/2000/svg" xmlns:xlink="http://www.w3.org/1999/xlink">
<g id="graph0" class="graph" transform="scale(1 1) rotate(0) translate(4 207)">
<title>dependencies</title>
<polygon fill="#ffffff" stroke="transparent" points="-4,4 -4,-207 1118,-207 1118,4 -4,4"/>
<text text-anchor="start" x="536.0091" y="-42.4" font-family="sans-serif" font-weight="bold" font-size="14.00" fill="#000000">Legend</text>
<polygon fill="#ffffb3" stroke="transparent" points="323,-10 323,-30 343,-30 343,-10 323,-10"/>
<text text-anchor="start" x="346.629" y="-15.4" font-family="sans-serif" font-size="14.00" fill="#000000"> &#160;Declarations</text>
<polygon fill="#8dd3c7" stroke="transparent" points="436,-10 436,-30 456,-30 456,-10 436,-10"/>
<text text-anchor="start" x="459.7251" y="-15.4" font-family="sans-serif" font-size="14.00" fill="#000000"> &#160;Module</text>
<polygon fill="#80b1d3" stroke="transparent" points="522,-10 522,-30 542,-30 542,-10 522,-10"/>
<text text-anchor="start" x="545.7812" y="-15.4" font-family="sans-serif" font-size="14.00" fill="#000000"> &#160;Bootstrap</text>
<polygon fill="#fdb462" stroke="transparent" points="619,-10 619,-30 639,-30 639,-10 619,-10"/>
<text text-anchor="start" x="642.6732" y="-15.4" font-family="sans-serif" font-size="14.00" fill="#000000"> &#160;Providers</text>
<polygon fill="#fb8072" stroke="transparent" points="715,-10 715,-30 735,-30 735,-10 715,-10"/>
<text text-anchor="start" x="738.7258" y="-15.4" font-family="sans-serif" font-size="14.00" fill="#000000"> &#160;Exports</text>
<g id="clust1" class="cluster">
<title>cluster_FirebaseConnectorModule</title>
<polygon fill="none" stroke="#000000" stroke-dasharray="1,5" points="8,-70 8,-195 1106,-195 1106,-70 8,-70"/>
</g>
<g id="clust6" class="cluster">
<title>cluster_FirebaseConnectorModule_providers</title>
<polygon fill="none" stroke="#000000" points="16,-78 16,-130 1098,-130 1098,-78 16,-78"/>
</g>
<!-- FirebaseConnector -->
<g id="node1" class="node">
<title>FirebaseConnector</title>
<ellipse fill="#fdb462" stroke="#000000" cx="1006" cy="-104" rx="83.947" ry="18"/>
<text text-anchor="middle" x="1006" y="-99.8" font-family="Times,serif" font-size="14.00" fill="#000000">FirebaseConnector</text>
</g>
<!-- FirebaseConnectorModule -->
<g id="node8" class="node">
<title>FirebaseConnectorModule</title>
<polygon fill="#8dd3c7" stroke="#000000" points="650.7893,-187 647.7893,-191 626.7893,-191 623.7893,-187 485.2107,-187 485.2107,-151 650.7893,-151 650.7893,-187"/>
<text text-anchor="middle" x="568" y="-164.8" font-family="Times,serif" font-size="14.00" fill="#000000">FirebaseConnectorModule</text>
</g>
<!-- FirebaseConnector&#45;&gt;FirebaseConnectorModule -->
<g id="edge1" class="edge">
<title>FirebaseConnector&#45;&gt;FirebaseConnectorModule</title>
<path fill="none" stroke="#000000" d="M1006,-122.2843C1006,-143.3211 1006,-175 1006,-175 1006,-175 660.8994,-175 660.8994,-175"/>
<polygon fill="#000000" stroke="#000000" points="660.8994,-171.5001 650.8994,-175 660.8993,-178.5001 660.8994,-171.5001"/>
</g>
<!-- GoogleAuth -->
<g id="node2" class="node">
<title>GoogleAuth</title>
<ellipse fill="#fdb462" stroke="#000000" cx="845" cy="-104" rx="58.5521" ry="18"/>
<text text-anchor="middle" x="845" y="-99.8" font-family="Times,serif" font-size="14.00" fill="#000000">GoogleAuth</text>
</g>
<!-- GoogleAuth&#45;&gt;FirebaseConnectorModule -->
<g id="edge2" class="edge">
<title>GoogleAuth&#45;&gt;FirebaseConnectorModule</title>
<path fill="none" stroke="#000000" d="M845,-122.0225C845,-139.3734 845,-163 845,-163 845,-163 660.7339,-163 660.7339,-163"/>
<polygon fill="#000000" stroke="#000000" points="660.734,-159.5001 650.7339,-163 660.7339,-166.5001 660.734,-159.5001"/>
</g>
<!-- GithubAuth -->
<g id="node3" class="node">
<title>GithubAuth</title>
<ellipse fill="#fdb462" stroke="#000000" cx="711" cy="-104" rx="57.3456" ry="18"/>
<text text-anchor="middle" x="711" y="-99.8" font-family="Times,serif" font-size="14.00" fill="#000000">GithubAuth</text>
</g>
<!-- GithubAuth&#45;&gt;FirebaseConnectorModule -->
<g id="edge3" class="edge">
<title>GithubAuth&#45;&gt;FirebaseConnectorModule</title>
<path fill="none" stroke="#000000" d="M653.5547,-104C647.3697,-104 643.2677,-104 643.2677,-104 643.2677,-104 643.2677,-140.8939 643.2677,-140.8939"/>
<polygon fill="#000000" stroke="#000000" points="639.7678,-140.8938 643.2677,-150.8939 646.7678,-140.8939 639.7678,-140.8938"/>
</g>
<!-- FacebookAuth -->
<g id="node4" class="node">
<title>FacebookAuth</title>
<ellipse fill="#fdb462" stroke="#000000" cx="568" cy="-104" rx="67.7818" ry="18"/>
<text text-anchor="middle" x="568" y="-99.8" font-family="Times,serif" font-size="14.00" fill="#000000">FacebookAuth</text>
</g>
<!-- FacebookAuth&#45;&gt;FirebaseConnectorModule -->
<g id="edge4" class="edge">
<title>FacebookAuth&#45;&gt;FirebaseConnectorModule</title>
<path fill="none" stroke="#000000" d="M568,-122.1061C568,-122.1061 568,-140.991 568,-140.991"/>
<polygon fill="#000000" stroke="#000000" points="564.5001,-140.9909 568,-150.991 571.5001,-140.991 564.5001,-140.9909"/>
</g>
<!-- PasswordAuth -->
<g id="node5" class="node">
<title>PasswordAuth</title>
<ellipse fill="#fdb462" stroke="#000000" cx="415" cy="-104" rx="67.2158" ry="18"/>
<text text-anchor="middle" x="415" y="-99.8" font-family="Times,serif" font-size="14.00" fill="#000000">PasswordAuth</text>
</g>
<!-- PasswordAuth&#45;&gt;FirebaseConnectorModule -->
<g id="edge5" class="edge">
<title>PasswordAuth&#45;&gt;FirebaseConnectorModule</title>
<path fill="none" stroke="#000000" d="M482.5702,-104C488.7423,-104 492.7323,-104 492.7323,-104 492.7323,-104 492.7323,-140.8939 492.7323,-140.8939"/>
<polygon fill="#000000" stroke="#000000" points="489.2324,-140.8938 492.7323,-150.8939 496.2324,-140.8939 489.2324,-140.8938"/>
</g>
<!-- TwitterAuth -->
<g id="node6" class="node">
<title>TwitterAuth</title>
<ellipse fill="#fdb462" stroke="#000000" cx="271" cy="-104" rx="58.5444" ry="18"/>
<text text-anchor="middle" x="271" y="-99.8" font-family="Times,serif" font-size="14.00" fill="#000000">TwitterAuth</text>
</g>
<!-- TwitterAuth&#45;&gt;FirebaseConnectorModule -->
<g id="edge6" class="edge">
<title>TwitterAuth&#45;&gt;FirebaseConnectorModule</title>
<path fill="none" stroke="#000000" d="M271,-122.0225C271,-139.3734 271,-163 271,-163 271,-163 475.2689,-163 475.2689,-163"/>
<polygon fill="#000000" stroke="#000000" points="475.269,-166.5001 485.2689,-163 475.2689,-159.5001 475.269,-166.5001"/>
</g>
<!-- AnonymouslyAuth -->
<g id="node7" class="node">
<title>AnonymouslyAuth</title>
<ellipse fill="#fdb462" stroke="#000000" cx="109" cy="-104" rx="85.1411" ry="18"/>
<text text-anchor="middle" x="109" y="-99.8" font-family="Times,serif" font-size="14.00" fill="#000000">AnonymouslyAuth</text>
</g>
<!-- AnonymouslyAuth&#45;&gt;FirebaseConnectorModule -->
<g id="edge7" class="edge">
<title>AnonymouslyAuth&#45;&gt;FirebaseConnectorModule</title>
<path fill="none" stroke="#000000" d="M109,-122.2843C109,-143.3211 109,-175 109,-175 109,-175 475.1444,-175 475.1444,-175"/>
<polygon fill="#000000" stroke="#000000" points="475.1444,-178.5001 485.1444,-175 475.1443,-171.5001 475.1444,-178.5001"/>
</g>
</g>
</svg>
