<?xml version="1.0" encoding="UTF-8" standalone="no"?>
<!DOCTYPE svg PUBLIC "-//W3C//DTD SVG 1.1//EN"
 "http://www.w3.org/Graphics/SVG/1.1/DTD/svg11.dtd">
<!-- Generated by graphviz version 2.40.1 (20161225.0304)
 -->
<!-- Title: dependencies Pages: 1 -->
<svg width="1224pt" height="211pt"
 viewBox="0.00 0.00 1224.00 211.00" xmlns="http://www.w3.org/2000/svg" xmlns:xlink="http://www.w3.org/1999/xlink">
<g id="graph0" class="graph" transform="scale(1 1) rotate(0) translate(4 207)">
<title>dependencies</title>
<polygon fill="#ffffff" stroke="transparent" points="-4,4 -4,-207 1220,-207 1220,4 -4,4"/>
<text text-anchor="start" x="587.0091" y="-42.4" font-family="sans-serif" font-weight="bold" font-size="14.00" fill="#000000">Legend</text>
<polygon fill="#ffffb3" stroke="transparent" points="374,-10 374,-30 394,-30 394,-10 374,-10"/>
<text text-anchor="start" x="397.629" y="-15.4" font-family="sans-serif" font-size="14.00" fill="#000000"> &#160;Declarations</text>
<polygon fill="#8dd3c7" stroke="transparent" points="487,-10 487,-30 507,-30 507,-10 487,-10"/>
<text text-anchor="start" x="510.7251" y="-15.4" font-family="sans-serif" font-size="14.00" fill="#000000"> &#160;Module</text>
<polygon fill="#80b1d3" stroke="transparent" points="573,-10 573,-30 593,-30 593,-10 573,-10"/>
<text text-anchor="start" x="596.7812" y="-15.4" font-family="sans-serif" font-size="14.00" fill="#000000"> &#160;Bootstrap</text>
<polygon fill="#fdb462" stroke="transparent" points="670,-10 670,-30 690,-30 690,-10 670,-10"/>
<text text-anchor="start" x="693.6732" y="-15.4" font-family="sans-serif" font-size="14.00" fill="#000000"> &#160;Providers</text>
<polygon fill="#fb8072" stroke="transparent" points="766,-10 766,-30 786,-30 786,-10 766,-10"/>
<text text-anchor="start" x="789.7258" y="-15.4" font-family="sans-serif" font-size="14.00" fill="#000000"> &#160;Exports</text>
<g id="clust1" class="cluster">
<title>cluster_FirebaseConnectorModule</title>
<polygon fill="none" stroke="#000000" stroke-dasharray="1,5" points="8,-70 8,-195 1208,-195 1208,-70 8,-70"/>
</g>
<g id="clust6" class="cluster">
<title>cluster_FirebaseConnectorModule_providers</title>
<polygon fill="none" stroke="#000000" points="16,-78 16,-130 1200,-130 1200,-78 16,-78"/>
</g>
<!-- FirebaseConnector -->
<g id="node1" class="node">
<title>FirebaseConnector</title>
<ellipse fill="#fdb462" stroke="#000000" cx="1108" cy="-104" rx="83.947" ry="18"/>
<text text-anchor="middle" x="1108" y="-99.8" font-family="Times,serif" font-size="14.00" fill="#000000">FirebaseConnector</text>
</g>
<!-- FirebaseConnectorModule -->
<g id="node9" class="node">
<title>FirebaseConnectorModule</title>
<polygon fill="#8dd3c7" stroke="#000000" points="675.7893,-187 672.7893,-191 651.7893,-191 648.7893,-187 510.2107,-187 510.2107,-151 675.7893,-151 675.7893,-187"/>
<text text-anchor="middle" x="593" y="-164.8" font-family="Times,serif" font-size="14.00" fill="#000000">FirebaseConnectorModule</text>
</g>
<!-- FirebaseConnector&#45;&gt;FirebaseConnectorModule -->
<g id="edge1" class="edge">
<title>FirebaseConnector&#45;&gt;FirebaseConnectorModule</title>
<path fill="none" stroke="#000000" d="M1108,-122.2921C1108,-144.2057 1108,-178 1108,-178 1108,-178 685.7437,-178 685.7437,-178"/>
<polygon fill="#000000" stroke="#000000" points="685.7437,-174.5001 675.7437,-178 685.7436,-181.5001 685.7437,-174.5001"/>
</g>
<!-- GoogleAuth -->
<g id="node2" class="node">
<title>GoogleAuth</title>
<ellipse fill="#fdb462" stroke="#000000" cx="947" cy="-104" rx="58.5521" ry="18"/>
<text text-anchor="middle" x="947" y="-99.8" font-family="Times,serif" font-size="14.00" fill="#000000">GoogleAuth</text>
</g>
<!-- GoogleAuth&#45;&gt;FirebaseConnectorModule -->
<g id="edge2" class="edge">
<title>GoogleAuth&#45;&gt;FirebaseConnectorModule</title>
<path fill="none" stroke="#000000" d="M947,-122.1061C947,-141.3391 947,-169 947,-169 947,-169 685.9973,-169 685.9973,-169"/>
<polygon fill="#000000" stroke="#000000" points="685.9973,-165.5001 675.9973,-169 685.9972,-172.5001 685.9973,-165.5001"/>
</g>
<!-- GithubAuth -->
<g id="node3" class="node">
<title>GithubAuth</title>
<ellipse fill="#fdb462" stroke="#000000" cx="813" cy="-104" rx="57.3456" ry="18"/>
<text text-anchor="middle" x="813" y="-99.8" font-family="Times,serif" font-size="14.00" fill="#000000">GithubAuth</text>
</g>
<!-- GithubAuth&#45;&gt;FirebaseConnectorModule -->
<g id="edge3" class="edge">
<title>GithubAuth&#45;&gt;FirebaseConnectorModule</title>
<path fill="none" stroke="#000000" d="M813,-122.027C813,-138.3976 813,-160 813,-160 813,-160 685.8591,-160 685.8591,-160"/>
<polygon fill="#000000" stroke="#000000" points="685.8591,-156.5001 675.8591,-160 685.859,-163.5001 685.8591,-156.5001"/>
</g>
<!-- FacebookAuth -->
<g id="node4" class="node">
<title>FacebookAuth</title>
<ellipse fill="#fdb462" stroke="#000000" cx="670" cy="-104" rx="67.7818" ry="18"/>
<text text-anchor="middle" x="670" y="-99.8" font-family="Times,serif" font-size="14.00" fill="#000000">FacebookAuth</text>
</g>
<!-- FacebookAuth&#45;&gt;FirebaseConnectorModule -->
<g id="edge4" class="edge">
<title>FacebookAuth&#45;&gt;FirebaseConnectorModule</title>
<path fill="none" stroke="#000000" d="M638.8768,-120.0674C638.8768,-120.0674 638.8768,-140.8237 638.8768,-140.8237"/>
<polygon fill="#000000" stroke="#000000" points="635.3769,-140.8236 638.8768,-150.8237 642.3769,-140.8237 635.3769,-140.8236"/>
</g>
<!-- PasswordAuth -->
<g id="node5" class="node">
<title>PasswordAuth</title>
<ellipse fill="#fdb462" stroke="#000000" cx="517" cy="-104" rx="67.2158" ry="18"/>
<text text-anchor="middle" x="517" y="-99.8" font-family="Times,serif" font-size="14.00" fill="#000000">PasswordAuth</text>
</g>
<!-- PasswordAuth&#45;&gt;FirebaseConnectorModule -->
<g id="edge5" class="edge">
<title>PasswordAuth&#45;&gt;FirebaseConnectorModule</title>
<path fill="none" stroke="#000000" d="M547.3566,-120.4022C547.3566,-120.4022 547.3566,-140.5366 547.3566,-140.5366"/>
<polygon fill="#000000" stroke="#000000" points="543.8567,-140.5366 547.3566,-150.5366 550.8567,-140.5367 543.8567,-140.5366"/>
</g>
<!-- TwitterAuth -->
<g id="node6" class="node">
<title>TwitterAuth</title>
<ellipse fill="#fdb462" stroke="#000000" cx="373" cy="-104" rx="58.5444" ry="18"/>
<text text-anchor="middle" x="373" y="-99.8" font-family="Times,serif" font-size="14.00" fill="#000000">TwitterAuth</text>
</g>
<!-- TwitterAuth&#45;&gt;FirebaseConnectorModule -->
<g id="edge6" class="edge">
<title>TwitterAuth&#45;&gt;FirebaseConnectorModule</title>
<path fill="none" stroke="#000000" d="M373,-122.027C373,-138.3976 373,-160 373,-160 373,-160 500.1409,-160 500.1409,-160"/>
<polygon fill="#000000" stroke="#000000" points="500.141,-163.5001 510.1409,-160 500.1409,-156.5001 500.141,-163.5001"/>
</g>
<!-- AnonymouslyAuth -->
<g id="node7" class="node">
<title>AnonymouslyAuth</title>
<ellipse fill="#fdb462" stroke="#000000" cx="211" cy="-104" rx="85.1411" ry="18"/>
<text text-anchor="middle" x="211" y="-99.8" font-family="Times,serif" font-size="14.00" fill="#000000">AnonymouslyAuth</text>
</g>
<!-- AnonymouslyAuth&#45;&gt;FirebaseConnectorModule -->
<g id="edge7" class="edge">
<title>AnonymouslyAuth&#45;&gt;FirebaseConnectorModule</title>
<path fill="none" stroke="#000000" d="M211,-122.1061C211,-141.3391 211,-169 211,-169 211,-169 500.1117,-169 500.1117,-169"/>
<polygon fill="#000000" stroke="#000000" points="500.1117,-172.5001 510.1117,-169 500.1117,-165.5001 500.1117,-172.5001"/>
</g>
<!-- VkAuth -->
<g id="node8" class="node">
<title>VkAuth</title>
<ellipse fill="#fdb462" stroke="#000000" cx="66" cy="-104" rx="42.2971" ry="18"/>
<text text-anchor="middle" x="66" y="-99.8" font-family="Times,serif" font-size="14.00" fill="#000000">VkAuth</text>
</g>
<!-- VkAuth&#45;&gt;FirebaseConnectorModule -->
<g id="edge8" class="edge">
<title>VkAuth&#45;&gt;FirebaseConnectorModule</title>
<path fill="none" stroke="#000000" d="M66,-122.2921C66,-144.2057 66,-178 66,-178 66,-178 500.0765,-178 500.0765,-178"/>
<polygon fill="#000000" stroke="#000000" points="500.0766,-181.5001 510.0765,-178 500.0765,-174.5001 500.0766,-181.5001"/>
</g>
</g>
</svg>
