<?xml version="1.0" encoding="UTF-8" standalone="no"?>
<!DOCTYPE svg PUBLIC "-//W3C//DTD SVG 1.1//EN"
 "http://www.w3.org/Graphics/SVG/1.1/DTD/svg11.dtd">
<!-- Generated by graphviz version 2.40.1 (20161225.0304)
 -->
<!-- Title: dependencies Pages: 1 -->
<svg width="778pt" height="284pt"
 viewBox="0.00 0.00 778.00 284.00" xmlns="http://www.w3.org/2000/svg" xmlns:xlink="http://www.w3.org/1999/xlink">
<g id="graph0" class="graph" transform="scale(1 1) rotate(0) translate(4 280)">
<title>dependencies</title>
<polygon fill="#ffffff" stroke="transparent" points="-4,4 -4,-280 774,-280 774,4 -4,4"/>
<text text-anchor="start" x="364.0091" y="-42.4" font-family="sans-serif" font-weight="bold" font-size="14.00" fill="#000000">Legend</text>
<polygon fill="#ffffb3" stroke="transparent" points="151,-10 151,-30 171,-30 171,-10 151,-10"/>
<text text-anchor="start" x="174.629" y="-15.4" font-family="sans-serif" font-size="14.00" fill="#000000"> &#160;Declarations</text>
<polygon fill="#8dd3c7" stroke="transparent" points="264,-10 264,-30 284,-30 284,-10 264,-10"/>
<text text-anchor="start" x="287.7251" y="-15.4" font-family="sans-serif" font-size="14.00" fill="#000000"> &#160;Module</text>
<polygon fill="#80b1d3" stroke="transparent" points="350,-10 350,-30 370,-30 370,-10 350,-10"/>
<text text-anchor="start" x="373.7812" y="-15.4" font-family="sans-serif" font-size="14.00" fill="#000000"> &#160;Bootstrap</text>
<polygon fill="#fdb462" stroke="transparent" points="447,-10 447,-30 467,-30 467,-10 447,-10"/>
<text text-anchor="start" x="470.6732" y="-15.4" font-family="sans-serif" font-size="14.00" fill="#000000"> &#160;Providers</text>
<polygon fill="#fb8072" stroke="transparent" points="543,-10 543,-30 563,-30 563,-10 543,-10"/>
<text text-anchor="start" x="566.7258" y="-15.4" font-family="sans-serif" font-size="14.00" fill="#000000"> &#160;Exports</text>
<g id="clust1" class="cluster">
<title>cluster_AddProductModule</title>
<polygon fill="none" stroke="#000000" stroke-dasharray="1,5" points="8,-70 8,-268 762,-268 762,-70 8,-70"/>
</g>
<g id="clust2" class="cluster">
<title>cluster_AddProductModule_declarations</title>
<polygon fill="none" stroke="#000000" points="590,-78 590,-130 754,-130 754,-78 590,-78"/>
</g>
<g id="clust4" class="cluster">
<title>cluster_AddProductModule_imports</title>
<polygon fill="none" stroke="#000000" points="16,-78 16,-130 582,-130 582,-78 16,-78"/>
</g>
<g id="clust5" class="cluster">
<title>cluster_AddProductModule_exports</title>
<polygon fill="none" stroke="#000000" points="279,-208 279,-260 447,-260 447,-208 279,-208"/>
</g>
<!-- AddProductComponent -->
<g id="node1" class="node">
<title>AddProductComponent</title>
<polygon fill="#ffffb3" stroke="#000000" points="746.4874,-122 597.5126,-122 597.5126,-86 746.4874,-86 746.4874,-122"/>
<text text-anchor="middle" x="672" y="-99.8" font-family="Times,serif" font-size="14.00" fill="#000000">AddProductComponent</text>
</g>
<!-- AddProductModule -->
<g id="node2" class="node">
<title>AddProductModule</title>
<polygon fill="#8dd3c7" stroke="#000000" points="426.705,-187 423.705,-191 402.705,-191 399.705,-187 299.295,-187 299.295,-151 426.705,-151 426.705,-187"/>
<text text-anchor="middle" x="363" y="-164.8" font-family="Times,serif" font-size="14.00" fill="#000000">AddProductModule</text>
</g>
<!-- AddProductComponent&#45;&gt;AddProductModule -->
<g id="edge1" class="edge">
<title>AddProductComponent&#45;&gt;AddProductModule</title>
<path fill="none" stroke="#000000" d="M672,-122.2843C672,-143.3211 672,-175 672,-175 672,-175 436.6503,-175 436.6503,-175"/>
<polygon fill="#000000" stroke="#000000" points="436.6504,-171.5001 426.6503,-175 436.6503,-178.5001 436.6504,-171.5001"/>
</g>
<!-- AddProductComponent  -->
<g id="node7" class="node">
<title>AddProductComponent </title>
<polygon fill="#fb8072" stroke="#000000" points="439.4882,-252 286.5118,-252 286.5118,-216 439.4882,-216 439.4882,-252"/>
<text text-anchor="middle" x="363" y="-229.8" font-family="Times,serif" font-size="14.00" fill="#000000">AddProductComponent </text>
</g>
<!-- AddProductModule&#45;&gt;AddProductComponent  -->
<g id="edge6" class="edge">
<title>AddProductModule&#45;&gt;AddProductComponent </title>
<path fill="none" stroke="#000000" stroke-dasharray="5,2" d="M363,-187.1061C363,-187.1061 363,-205.991 363,-205.991"/>
<polygon fill="#000000" stroke="#000000" points="359.5001,-205.9909 363,-215.991 366.5001,-205.991 359.5001,-205.9909"/>
</g>
<!-- ProductServiceModule -->
<g id="node3" class="node">
<title>ProductServiceModule</title>
<polygon fill="#8dd3c7" stroke="#000000" points="573.5758,-122 570.5758,-126 549.5758,-126 546.5758,-122 428.4242,-122 428.4242,-86 573.5758,-86 573.5758,-122"/>
<text text-anchor="middle" x="501" y="-99.8" font-family="Times,serif" font-size="14.00" fill="#000000">ProductServiceModule</text>
</g>
<!-- ProductServiceModule&#45;&gt;AddProductModule -->
<g id="edge2" class="edge">
<title>ProductServiceModule&#45;&gt;AddProductModule</title>
<path fill="none" stroke="#000000" d="M433.8529,-122.0225C433.8529,-139.3734 433.8529,-163 433.8529,-163 433.8529,-163 433.1476,-163 433.1476,-163"/>
<polygon fill="#000000" stroke="#000000" points="436.8003,-159.5002 426.8002,-163 436.8002,-166.5002 436.8003,-159.5002"/>
</g>
<!-- FormsModule -->
<g id="node4" class="node">
<title>FormsModule</title>
<polygon fill="#8dd3c7" stroke="#000000" points="410.8288,-122 407.8288,-126 386.8288,-126 383.8288,-122 315.1712,-122 315.1712,-86 410.8288,-86 410.8288,-122"/>
<text text-anchor="middle" x="363" y="-99.8" font-family="Times,serif" font-size="14.00" fill="#000000">FormsModule</text>
</g>
<!-- FormsModule&#45;&gt;AddProductModule -->
<g id="edge3" class="edge">
<title>FormsModule&#45;&gt;AddProductModule</title>
<path fill="none" stroke="#000000" d="M363,-122.1061C363,-122.1061 363,-140.991 363,-140.991"/>
<polygon fill="#000000" stroke="#000000" points="359.5001,-140.9909 363,-150.991 366.5001,-140.991 359.5001,-140.9909"/>
</g>
<!-- CommonModule -->
<g id="node5" class="node">
<title>CommonModule</title>
<polygon fill="#8dd3c7" stroke="#000000" points="297.6681,-122 294.6681,-126 273.6681,-126 270.6681,-122 186.3319,-122 186.3319,-86 297.6681,-86 297.6681,-122"/>
<text text-anchor="middle" x="242" y="-99.8" font-family="Times,serif" font-size="14.00" fill="#000000">CommonModule</text>
</g>
<!-- CommonModule&#45;&gt;AddProductModule -->
<g id="edge4" class="edge">
<title>CommonModule&#45;&gt;AddProductModule</title>
<path fill="none" stroke="#000000" d="M292.2951,-122.0225C292.2951,-139.3734 292.2951,-163 292.2951,-163 292.2951,-163 292.9988,-163 292.9988,-163"/>
<polygon fill="#000000" stroke="#000000" points="289.3331,-166.5002 299.333,-163 289.3329,-159.5002 289.3331,-166.5002"/>
</g>
<!-- ReactiveFormsModule -->
<g id="node6" class="node">
<title>ReactiveFormsModule</title>
<polygon fill="#8dd3c7" stroke="#000000" points="168.3047,-122 165.3047,-126 144.3047,-126 141.3047,-122 23.6953,-122 23.6953,-86 168.3047,-86 168.3047,-122"/>
<text text-anchor="middle" x="96" y="-99.8" font-family="Times,serif" font-size="14.00" fill="#000000">ReactiveFormsModule</text>
</g>
<!-- ReactiveFormsModule&#45;&gt;AddProductModule -->
<g id="edge5" class="edge">
<title>ReactiveFormsModule&#45;&gt;AddProductModule</title>
<path fill="none" stroke="#000000" d="M96,-122.2843C96,-143.3211 96,-175 96,-175 96,-175 289.3861,-175 289.3861,-175"/>
<polygon fill="#000000" stroke="#000000" points="289.3861,-178.5001 299.3861,-175 289.386,-171.5001 289.3861,-178.5001"/>
</g>
</g>
</svg>
