<?xml version="1.0" encoding="UTF-8" standalone="no"?>
<!DOCTYPE svg PUBLIC "-//W3C//DTD SVG 1.1//EN"
 "http://www.w3.org/Graphics/SVG/1.1/DTD/svg11.dtd">
<!-- Generated by graphviz version 2.40.1 (20161225.0304)
 -->
<!-- Title: dependencies Pages: 1 -->
<svg width="504pt" height="211pt"
 viewBox="0.00 0.00 504.00 211.00" xmlns="http://www.w3.org/2000/svg" xmlns:xlink="http://www.w3.org/1999/xlink">
<g id="graph0" class="graph" transform="scale(1 1) rotate(0) translate(4 207)">
<title>dependencies</title>
<polygon fill="#ffffff" stroke="transparent" points="-4,4 -4,-207 500,-207 500,4 -4,4"/>
<text text-anchor="start" x="227.0091" y="-42.4" font-family="sans-serif" font-weight="bold" font-size="14.00" fill="#000000">Legend</text>
<polygon fill="#ffffb3" stroke="transparent" points="14,-10 14,-30 34,-30 34,-10 14,-10"/>
<text text-anchor="start" x="37.629" y="-15.4" font-family="sans-serif" font-size="14.00" fill="#000000"> &#160;Declarations</text>
<polygon fill="#8dd3c7" stroke="transparent" points="127,-10 127,-30 147,-30 147,-10 127,-10"/>
<text text-anchor="start" x="150.7251" y="-15.4" font-family="sans-serif" font-size="14.00" fill="#000000"> &#160;Module</text>
<polygon fill="#80b1d3" stroke="transparent" points="213,-10 213,-30 233,-30 233,-10 213,-10"/>
<text text-anchor="start" x="236.7812" y="-15.4" font-family="sans-serif" font-size="14.00" fill="#000000"> &#160;Bootstrap</text>
<polygon fill="#fdb462" stroke="transparent" points="310,-10 310,-30 330,-30 330,-10 310,-10"/>
<text text-anchor="start" x="333.6732" y="-15.4" font-family="sans-serif" font-size="14.00" fill="#000000"> &#160;Providers</text>
<polygon fill="#fb8072" stroke="transparent" points="406,-10 406,-30 426,-30 426,-10 406,-10"/>
<text text-anchor="start" x="429.7258" y="-15.4" font-family="sans-serif" font-size="14.00" fill="#000000"> &#160;Exports</text>
<g id="clust1" class="cluster">
<title>cluster_AuthServiceModule</title>
<polygon fill="none" stroke="#000000" stroke-dasharray="1,5" points="51.5,-70 51.5,-195 444.5,-195 444.5,-70 51.5,-70"/>
</g>
<g id="clust3" class="cluster">
<title>cluster_AuthServiceModule_imports</title>
<polygon fill="none" stroke="#000000" points="340.5,-78 340.5,-130 436.5,-130 436.5,-78 340.5,-78"/>
</g>
<g id="clust6" class="cluster">
<title>cluster_AuthServiceModule_providers</title>
<polygon fill="none" stroke="#000000" points="59.5,-78 59.5,-130 332.5,-130 332.5,-78 59.5,-78"/>
</g>
<!-- DalModule -->
<g id="node1" class="node">
<title>DalModule</title>
<polygon fill="#8dd3c7" stroke="#000000" points="428.262,-122 425.262,-126 404.262,-126 401.262,-122 348.738,-122 348.738,-86 428.262,-86 428.262,-122"/>
<text text-anchor="middle" x="388.5" y="-99.8" font-family="Times,serif" font-size="14.00" fill="#000000">DalModule</text>
</g>
<!-- AuthServiceModule -->
<g id="node2" class="node">
<title>AuthServiceModule</title>
<polygon fill="#8dd3c7" stroke="#000000" points="330.0255,-187 327.0255,-191 306.0255,-191 303.0255,-187 200.9745,-187 200.9745,-151 330.0255,-151 330.0255,-187"/>
<text text-anchor="middle" x="265.5" y="-164.8" font-family="Times,serif" font-size="14.00" fill="#000000">AuthServiceModule</text>
</g>
<!-- DalModule&#45;&gt;AuthServiceModule -->
<g id="edge1" class="edge">
<title>DalModule&#45;&gt;AuthServiceModule</title>
<path fill="none" stroke="#000000" d="M388.5,-122.1061C388.5,-141.3391 388.5,-169 388.5,-169 388.5,-169 340.2418,-169 340.2418,-169"/>
<polygon fill="#000000" stroke="#000000" points="340.2419,-165.5001 330.2418,-169 340.2418,-172.5001 340.2419,-165.5001"/>
</g>
<!-- AuthService -->
<g id="node3" class="node">
<title>AuthService</title>
<ellipse fill="#fdb462" stroke="#000000" cx="265.5" cy="-104" rx="59.1083" ry="18"/>
<text text-anchor="middle" x="265.5" y="-99.8" font-family="Times,serif" font-size="14.00" fill="#000000">AuthService</text>
</g>
<!-- AuthService&#45;&gt;AuthServiceModule -->
<g id="edge2" class="edge">
<title>AuthService&#45;&gt;AuthServiceModule</title>
<path fill="none" stroke="#000000" d="M265.5,-122.1061C265.5,-122.1061 265.5,-140.991 265.5,-140.991"/>
<polygon fill="#000000" stroke="#000000" points="262.0001,-140.9909 265.5,-150.991 269.0001,-140.991 262.0001,-140.9909"/>
</g>
<!-- SessionFlow -->
<g id="node4" class="node">
<title>SessionFlow</title>
<ellipse fill="#fdb462" stroke="#000000" cx="127.5" cy="-104" rx="60.2903" ry="18"/>
<text text-anchor="middle" x="127.5" y="-99.8" font-family="Times,serif" font-size="14.00" fill="#000000">SessionFlow</text>
</g>
<!-- SessionFlow&#45;&gt;AuthServiceModule -->
<g id="edge3" class="edge">
<title>SessionFlow&#45;&gt;AuthServiceModule</title>
<path fill="none" stroke="#000000" d="M127.5,-122.1061C127.5,-141.3391 127.5,-169 127.5,-169 127.5,-169 190.9445,-169 190.9445,-169"/>
<polygon fill="#000000" stroke="#000000" points="190.9446,-172.5001 200.9445,-169 190.9445,-165.5001 190.9446,-172.5001"/>
</g>
</g>
</svg>
