<?xml version="1.0" encoding="UTF-8" standalone="no"?>
<!DOCTYPE svg PUBLIC "-//W3C//DTD SVG 1.1//EN"
 "http://www.w3.org/Graphics/SVG/1.1/DTD/svg11.dtd">
<!-- Generated by graphviz version 2.40.1 (20161225.0304)
 -->
<!-- Title: dependencies Pages: 1 -->
<svg width="752pt" height="284pt"
 viewBox="0.00 0.00 752.00 284.00" xmlns="http://www.w3.org/2000/svg" xmlns:xlink="http://www.w3.org/1999/xlink">
<g id="graph0" class="graph" transform="scale(1 1) rotate(0) translate(4 280)">
<title>dependencies</title>
<polygon fill="#ffffff" stroke="transparent" points="-4,4 -4,-280 748,-280 748,4 -4,4"/>
<text text-anchor="start" x="351.0091" y="-42.4" font-family="sans-serif" font-weight="bold" font-size="14.00" fill="#000000">Legend</text>
<polygon fill="#ffffb3" stroke="transparent" points="138,-10 138,-30 158,-30 158,-10 138,-10"/>
<text text-anchor="start" x="161.629" y="-15.4" font-family="sans-serif" font-size="14.00" fill="#000000"> &#160;Declarations</text>
<polygon fill="#8dd3c7" stroke="transparent" points="251,-10 251,-30 271,-30 271,-10 251,-10"/>
<text text-anchor="start" x="274.7251" y="-15.4" font-family="sans-serif" font-size="14.00" fill="#000000"> &#160;Module</text>
<polygon fill="#80b1d3" stroke="transparent" points="337,-10 337,-30 357,-30 357,-10 337,-10"/>
<text text-anchor="start" x="360.7812" y="-15.4" font-family="sans-serif" font-size="14.00" fill="#000000"> &#160;Bootstrap</text>
<polygon fill="#fdb462" stroke="transparent" points="434,-10 434,-30 454,-30 454,-10 434,-10"/>
<text text-anchor="start" x="457.6732" y="-15.4" font-family="sans-serif" font-size="14.00" fill="#000000"> &#160;Providers</text>
<polygon fill="#fb8072" stroke="transparent" points="530,-10 530,-30 550,-30 550,-10 530,-10"/>
<text text-anchor="start" x="553.7258" y="-15.4" font-family="sans-serif" font-size="14.00" fill="#000000"> &#160;Exports</text>
<g id="clust1" class="cluster">
<title>cluster_ProductModule</title>
<polygon fill="none" stroke="#000000" stroke-dasharray="1,5" points="8,-70 8,-268 736,-268 736,-70 8,-70"/>
</g>
<g id="clust2" class="cluster">
<title>cluster_ProductModule_declarations</title>
<polygon fill="none" stroke="#000000" points="588,-78 588,-130 728,-130 728,-78 588,-78"/>
</g>
<g id="clust4" class="cluster">
<title>cluster_ProductModule_imports</title>
<polygon fill="none" stroke="#000000" points="16,-78 16,-130 580,-130 580,-78 16,-78"/>
</g>
<g id="clust5" class="cluster">
<title>cluster_ProductModule_exports</title>
<polygon fill="none" stroke="#000000" points="270,-208 270,-260 414,-260 414,-208 270,-208"/>
</g>
<!-- ProductComponent -->
<g id="node1" class="node">
<title>ProductComponent</title>
<polygon fill="#ffffb3" stroke="#000000" points="720.3809,-122 595.6191,-122 595.6191,-86 720.3809,-86 720.3809,-122"/>
<text text-anchor="middle" x="658" y="-99.8" font-family="Times,serif" font-size="14.00" fill="#000000">ProductComponent</text>
</g>
<!-- ProductModule -->
<g id="node2" class="node">
<title>ProductModule</title>
<polygon fill="#8dd3c7" stroke="#000000" points="393.5982,-187 390.5982,-191 369.5982,-191 366.5982,-187 290.4018,-187 290.4018,-151 393.5982,-151 393.5982,-187"/>
<text text-anchor="middle" x="342" y="-164.8" font-family="Times,serif" font-size="14.00" fill="#000000">ProductModule</text>
</g>
<!-- ProductComponent&#45;&gt;ProductModule -->
<g id="edge1" class="edge">
<title>ProductComponent&#45;&gt;ProductModule</title>
<path fill="none" stroke="#000000" d="M658,-122.2843C658,-143.3211 658,-175 658,-175 658,-175 403.8271,-175 403.8271,-175"/>
<polygon fill="#000000" stroke="#000000" points="403.8272,-171.5001 393.8271,-175 403.8271,-178.5001 403.8272,-171.5001"/>
</g>
<!-- ProductComponent  -->
<g id="node7" class="node">
<title>ProductComponent </title>
<polygon fill="#fb8072" stroke="#000000" points="406.3814,-252 277.6186,-252 277.6186,-216 406.3814,-216 406.3814,-252"/>
<text text-anchor="middle" x="342" y="-229.8" font-family="Times,serif" font-size="14.00" fill="#000000">ProductComponent </text>
</g>
<!-- ProductModule&#45;&gt;ProductComponent  -->
<g id="edge6" class="edge">
<title>ProductModule&#45;&gt;ProductComponent </title>
<path fill="none" stroke="#000000" stroke-dasharray="5,2" d="M342,-187.1061C342,-187.1061 342,-205.991 342,-205.991"/>
<polygon fill="#000000" stroke="#000000" points="338.5001,-205.9909 342,-215.991 345.5001,-205.991 338.5001,-205.9909"/>
</g>
<!-- BasketServiceModule -->
<g id="node3" class="node">
<title>BasketServiceModule</title>
<polygon fill="#8dd3c7" stroke="#000000" points="571.6289,-122 568.6289,-126 547.6289,-126 544.6289,-122 432.3711,-122 432.3711,-86 571.6289,-86 571.6289,-122"/>
<text text-anchor="middle" x="502" y="-99.8" font-family="Times,serif" font-size="14.00" fill="#000000">BasketServiceModule</text>
</g>
<!-- BasketServiceModule&#45;&gt;ProductModule -->
<g id="edge2" class="edge">
<title>BasketServiceModule&#45;&gt;ProductModule</title>
<path fill="none" stroke="#000000" d="M502,-122.0225C502,-139.3734 502,-163 502,-163 502,-163 403.9474,-163 403.9474,-163"/>
<polygon fill="#000000" stroke="#000000" points="403.9474,-159.5001 393.9474,-163 403.9474,-166.5001 403.9474,-159.5001"/>
</g>
<!-- ProductServiceModule -->
<g id="node4" class="node">
<title>ProductServiceModule</title>
<polygon fill="#8dd3c7" stroke="#000000" points="414.5758,-122 411.5758,-126 390.5758,-126 387.5758,-122 269.4242,-122 269.4242,-86 414.5758,-86 414.5758,-122"/>
<text text-anchor="middle" x="342" y="-99.8" font-family="Times,serif" font-size="14.00" fill="#000000">ProductServiceModule</text>
</g>
<!-- ProductServiceModule&#45;&gt;ProductModule -->
<g id="edge3" class="edge">
<title>ProductServiceModule&#45;&gt;ProductModule</title>
<path fill="none" stroke="#000000" d="M342,-122.1061C342,-122.1061 342,-140.991 342,-140.991"/>
<polygon fill="#000000" stroke="#000000" points="338.5001,-140.9909 342,-150.991 345.5001,-140.991 338.5001,-140.9909"/>
</g>
<!-- CommonModule -->
<g id="node5" class="node">
<title>CommonModule</title>
<polygon fill="#8dd3c7" stroke="#000000" points="251.6681,-122 248.6681,-126 227.6681,-126 224.6681,-122 140.3319,-122 140.3319,-86 251.6681,-86 251.6681,-122"/>
<text text-anchor="middle" x="196" y="-99.8" font-family="Times,serif" font-size="14.00" fill="#000000">CommonModule</text>
</g>
<!-- CommonModule&#45;&gt;ProductModule -->
<g id="edge4" class="edge">
<title>CommonModule&#45;&gt;ProductModule</title>
<path fill="none" stroke="#000000" d="M196,-122.0225C196,-139.3734 196,-163 196,-163 196,-163 280.1148,-163 280.1148,-163"/>
<polygon fill="#000000" stroke="#000000" points="280.1148,-166.5001 290.1148,-163 280.1147,-159.5001 280.1148,-166.5001"/>
</g>
<!-- RouterModule -->
<g id="node6" class="node">
<title>RouterModule</title>
<polygon fill="#8dd3c7" stroke="#000000" points="121.6528,-122 118.6528,-126 97.6528,-126 94.6528,-122 24.3472,-122 24.3472,-86 121.6528,-86 121.6528,-122"/>
<text text-anchor="middle" x="73" y="-99.8" font-family="Times,serif" font-size="14.00" fill="#000000">RouterModule</text>
</g>
<!-- RouterModule&#45;&gt;ProductModule -->
<g id="edge5" class="edge">
<title>RouterModule&#45;&gt;ProductModule</title>
<path fill="none" stroke="#000000" d="M73,-122.2843C73,-143.3211 73,-175 73,-175 73,-175 280.1341,-175 280.1341,-175"/>
<polygon fill="#000000" stroke="#000000" points="280.1341,-178.5001 290.1341,-175 280.1341,-171.5001 280.1341,-178.5001"/>
</g>
</g>
</svg>
