<?xml version="1.0" encoding="UTF-8" standalone="no"?>
<!DOCTYPE svg PUBLIC "-//W3C//DTD SVG 1.1//EN"
 "http://www.w3.org/Graphics/SVG/1.1/DTD/svg11.dtd">
<!-- Generated by graphviz version 2.40.1 (20161225.0304)
 -->
<!-- Title: dependencies Pages: 1 -->
<svg width="586pt" height="284pt"
 viewBox="0.00 0.00 586.00 284.00" xmlns="http://www.w3.org/2000/svg" xmlns:xlink="http://www.w3.org/1999/xlink">
<g id="graph0" class="graph" transform="scale(1 1) rotate(0) translate(4 280)">
<title>dependencies</title>
<polygon fill="#ffffff" stroke="transparent" points="-4,4 -4,-280 582,-280 582,4 -4,4"/>
<text text-anchor="start" x="268.0091" y="-42.4" font-family="sans-serif" font-weight="bold" font-size="14.00" fill="#000000">Legend</text>
<polygon fill="#ffffb3" stroke="transparent" points="55,-10 55,-30 75,-30 75,-10 55,-10"/>
<text text-anchor="start" x="78.629" y="-15.4" font-family="sans-serif" font-size="14.00" fill="#000000"> &#160;Declarations</text>
<polygon fill="#8dd3c7" stroke="transparent" points="168,-10 168,-30 188,-30 188,-10 168,-10"/>
<text text-anchor="start" x="191.7251" y="-15.4" font-family="sans-serif" font-size="14.00" fill="#000000"> &#160;Module</text>
<polygon fill="#80b1d3" stroke="transparent" points="254,-10 254,-30 274,-30 274,-10 254,-10"/>
<text text-anchor="start" x="277.7812" y="-15.4" font-family="sans-serif" font-size="14.00" fill="#000000"> &#160;Bootstrap</text>
<polygon fill="#fdb462" stroke="transparent" points="351,-10 351,-30 371,-30 371,-10 351,-10"/>
<text text-anchor="start" x="374.6732" y="-15.4" font-family="sans-serif" font-size="14.00" fill="#000000"> &#160;Providers</text>
<polygon fill="#fb8072" stroke="transparent" points="447,-10 447,-30 467,-30 467,-10 447,-10"/>
<text text-anchor="start" x="470.7258" y="-15.4" font-family="sans-serif" font-size="14.00" fill="#000000"> &#160;Exports</text>
<g id="clust1" class="cluster">
<title>cluster_BasketModule</title>
<polygon fill="none" stroke="#000000" stroke-dasharray="1,5" points="8,-70 8,-268 570,-268 570,-70 8,-70"/>
</g>
<g id="clust2" class="cluster">
<title>cluster_BasketModule_declarations</title>
<polygon fill="none" stroke="#000000" points="426,-78 426,-130 562,-130 562,-78 426,-78"/>
</g>
<g id="clust4" class="cluster">
<title>cluster_BasketModule_imports</title>
<polygon fill="none" stroke="#000000" points="16,-78 16,-130 418,-130 418,-78 16,-78"/>
</g>
<g id="clust5" class="cluster">
<title>cluster_BasketModule_exports</title>
<polygon fill="none" stroke="#000000" points="199,-208 199,-260 337,-260 337,-208 199,-208"/>
</g>
<!-- BasketComponent -->
<g id="node1" class="node">
<title>BasketComponent</title>
<polygon fill="#ffffb3" stroke="#000000" points="553.9342,-122 434.0658,-122 434.0658,-86 553.9342,-86 553.9342,-122"/>
<text text-anchor="middle" x="494" y="-99.8" font-family="Times,serif" font-size="14.00" fill="#000000">BasketComponent</text>
</g>
<!-- BasketModule -->
<g id="node2" class="node">
<title>BasketModule</title>
<polygon fill="#8dd3c7" stroke="#000000" points="316.6514,-187 313.6514,-191 292.6514,-191 289.6514,-187 219.3486,-187 219.3486,-151 316.6514,-151 316.6514,-187"/>
<text text-anchor="middle" x="268" y="-164.8" font-family="Times,serif" font-size="14.00" fill="#000000">BasketModule</text>
</g>
<!-- BasketComponent&#45;&gt;BasketModule -->
<g id="edge1" class="edge">
<title>BasketComponent&#45;&gt;BasketModule</title>
<path fill="none" stroke="#000000" d="M494,-122.1061C494,-141.3391 494,-169 494,-169 494,-169 326.7604,-169 326.7604,-169"/>
<polygon fill="#000000" stroke="#000000" points="326.7604,-165.5001 316.7604,-169 326.7604,-172.5001 326.7604,-165.5001"/>
</g>
<!-- BasketComponent  -->
<g id="node6" class="node">
<title>BasketComponent </title>
<polygon fill="#fb8072" stroke="#000000" points="329.4334,-252 206.5666,-252 206.5666,-216 329.4334,-216 329.4334,-252"/>
<text text-anchor="middle" x="268" y="-229.8" font-family="Times,serif" font-size="14.00" fill="#000000">BasketComponent </text>
</g>
<!-- BasketModule&#45;&gt;BasketComponent  -->
<g id="edge5" class="edge">
<title>BasketModule&#45;&gt;BasketComponent </title>
<path fill="none" stroke="#000000" stroke-dasharray="5,2" d="M268,-187.1061C268,-187.1061 268,-205.991 268,-205.991"/>
<polygon fill="#000000" stroke="#000000" points="264.5001,-205.9909 268,-215.991 271.5001,-205.991 264.5001,-205.9909"/>
</g>
<!-- BasketServiceModule -->
<g id="node3" class="node">
<title>BasketServiceModule</title>
<polygon fill="#8dd3c7" stroke="#000000" points="409.6289,-122 406.6289,-126 385.6289,-126 382.6289,-122 270.3711,-122 270.3711,-86 409.6289,-86 409.6289,-122"/>
<text text-anchor="middle" x="340" y="-99.8" font-family="Times,serif" font-size="14.00" fill="#000000">BasketServiceModule</text>
</g>
<!-- BasketServiceModule&#45;&gt;BasketModule -->
<g id="edge2" class="edge">
<title>BasketServiceModule&#45;&gt;BasketModule</title>
<path fill="none" stroke="#000000" d="M293.5056,-122.1061C293.5056,-122.1061 293.5056,-140.991 293.5056,-140.991"/>
<polygon fill="#000000" stroke="#000000" points="290.0057,-140.9909 293.5056,-150.991 297.0057,-140.991 290.0057,-140.9909"/>
</g>
<!-- CommonModule -->
<g id="node4" class="node">
<title>CommonModule</title>
<polygon fill="#8dd3c7" stroke="#000000" points="251.6681,-122 248.6681,-126 227.6681,-126 224.6681,-122 140.3319,-122 140.3319,-86 251.6681,-86 251.6681,-122"/>
<text text-anchor="middle" x="196" y="-99.8" font-family="Times,serif" font-size="14.00" fill="#000000">CommonModule</text>
</g>
<!-- CommonModule&#45;&gt;BasketModule -->
<g id="edge3" class="edge">
<title>CommonModule&#45;&gt;BasketModule</title>
<path fill="none" stroke="#000000" d="M235.5042,-122.1061C235.5042,-122.1061 235.5042,-140.991 235.5042,-140.991"/>
<polygon fill="#000000" stroke="#000000" points="232.0043,-140.9909 235.5042,-150.991 239.0043,-140.991 232.0043,-140.9909"/>
</g>
<!-- RouterModule -->
<g id="node5" class="node">
<title>RouterModule</title>
<polygon fill="#8dd3c7" stroke="#000000" points="121.6528,-122 118.6528,-126 97.6528,-126 94.6528,-122 24.3472,-122 24.3472,-86 121.6528,-86 121.6528,-122"/>
<text text-anchor="middle" x="73" y="-99.8" font-family="Times,serif" font-size="14.00" fill="#000000">RouterModule</text>
</g>
<!-- RouterModule&#45;&gt;BasketModule -->
<g id="edge4" class="edge">
<title>RouterModule&#45;&gt;BasketModule</title>
<path fill="none" stroke="#000000" d="M73,-122.1061C73,-141.3391 73,-169 73,-169 73,-169 209.2963,-169 209.2963,-169"/>
<polygon fill="#000000" stroke="#000000" points="209.2963,-172.5001 219.2963,-169 209.2962,-165.5001 209.2963,-172.5001"/>
</g>
</g>
</svg>
