<?xml version="1.0" encoding="UTF-8" standalone="no"?>
<!DOCTYPE svg PUBLIC "-//W3C//DTD SVG 1.1//EN"
 "http://www.w3.org/Graphics/SVG/1.1/DTD/svg11.dtd">
<!-- Generated by graphviz version 2.40.1 (20161225.0304)
 -->
<!-- Title: dependencies Pages: 1 -->
<svg width="816pt" height="284pt"
 viewBox="0.00 0.00 816.00 284.00" xmlns="http://www.w3.org/2000/svg" xmlns:xlink="http://www.w3.org/1999/xlink">
<g id="graph0" class="graph" transform="scale(1 1) rotate(0) translate(4 280)">
<title>dependencies</title>
<polygon fill="#ffffff" stroke="transparent" points="-4,4 -4,-280 812,-280 812,4 -4,4"/>
<text text-anchor="start" x="383.0091" y="-42.4" font-family="sans-serif" font-weight="bold" font-size="14.00" fill="#000000">Legend</text>
<polygon fill="#ffffb3" stroke="transparent" points="170,-10 170,-30 190,-30 190,-10 170,-10"/>
<text text-anchor="start" x="193.629" y="-15.4" font-family="sans-serif" font-size="14.00" fill="#000000"> &#160;Declarations</text>
<polygon fill="#8dd3c7" stroke="transparent" points="283,-10 283,-30 303,-30 303,-10 283,-10"/>
<text text-anchor="start" x="306.7251" y="-15.4" font-family="sans-serif" font-size="14.00" fill="#000000"> &#160;Module</text>
<polygon fill="#80b1d3" stroke="transparent" points="369,-10 369,-30 389,-30 389,-10 369,-10"/>
<text text-anchor="start" x="392.7812" y="-15.4" font-family="sans-serif" font-size="14.00" fill="#000000"> &#160;Bootstrap</text>
<polygon fill="#fdb462" stroke="transparent" points="466,-10 466,-30 486,-30 486,-10 466,-10"/>
<text text-anchor="start" x="489.6732" y="-15.4" font-family="sans-serif" font-size="14.00" fill="#000000"> &#160;Providers</text>
<polygon fill="#fb8072" stroke="transparent" points="562,-10 562,-30 582,-30 582,-10 562,-10"/>
<text text-anchor="start" x="585.7258" y="-15.4" font-family="sans-serif" font-size="14.00" fill="#000000"> &#160;Exports</text>
<g id="clust1" class="cluster">
<title>cluster_ProductsListModule</title>
<polygon fill="none" stroke="#000000" stroke-dasharray="1,5" points="8,-70 8,-268 800,-268 800,-70 8,-70"/>
</g>
<g id="clust2" class="cluster">
<title>cluster_ProductsListModule_declarations</title>
<polygon fill="none" stroke="#000000" points="624,-78 624,-130 792,-130 792,-78 624,-78"/>
</g>
<g id="clust4" class="cluster">
<title>cluster_ProductsListModule_imports</title>
<polygon fill="none" stroke="#000000" points="16,-78 16,-130 616,-130 616,-78 16,-78"/>
</g>
<g id="clust5" class="cluster">
<title>cluster_ProductsListModule_exports</title>
<polygon fill="none" stroke="#000000" points="305,-208 305,-260 477,-260 477,-208 305,-208"/>
</g>
<!-- ProductsListComponent -->
<g id="node1" class="node">
<title>ProductsListComponent</title>
<polygon fill="#ffffb3" stroke="#000000" points="784.1038,-122 631.8962,-122 631.8962,-86 784.1038,-86 784.1038,-122"/>
<text text-anchor="middle" x="708" y="-99.8" font-family="Times,serif" font-size="14.00" fill="#000000">ProductsListComponent</text>
</g>
<!-- ProductsListModule -->
<g id="node2" class="node">
<title>ProductsListModule</title>
<polygon fill="#8dd3c7" stroke="#000000" points="456.3216,-187 453.3216,-191 432.3216,-191 429.3216,-187 325.6784,-187 325.6784,-151 456.3216,-151 456.3216,-187"/>
<text text-anchor="middle" x="391" y="-164.8" font-family="Times,serif" font-size="14.00" fill="#000000">ProductsListModule</text>
</g>
<!-- ProductsListComponent&#45;&gt;ProductsListModule -->
<g id="edge1" class="edge">
<title>ProductsListComponent&#45;&gt;ProductsListModule</title>
<path fill="none" stroke="#000000" d="M708,-122.1061C708,-141.3391 708,-169 708,-169 708,-169 466.2982,-169 466.2982,-169"/>
<polygon fill="#000000" stroke="#000000" points="466.2983,-165.5001 456.2982,-169 466.2982,-172.5001 466.2983,-165.5001"/>
</g>
<!-- ProductsListComponent  -->
<g id="node7" class="node">
<title>ProductsListComponent </title>
<polygon fill="#fb8072" stroke="#000000" points="468.6043,-252 313.3957,-252 313.3957,-216 468.6043,-216 468.6043,-252"/>
<text text-anchor="middle" x="391" y="-229.8" font-family="Times,serif" font-size="14.00" fill="#000000">ProductsListComponent </text>
</g>
<!-- ProductsListModule&#45;&gt;ProductsListComponent  -->
<g id="edge6" class="edge">
<title>ProductsListModule&#45;&gt;ProductsListComponent </title>
<path fill="none" stroke="#000000" stroke-dasharray="5,2" d="M391,-187.1061C391,-187.1061 391,-205.991 391,-205.991"/>
<polygon fill="#000000" stroke="#000000" points="387.5001,-205.9909 391,-215.991 394.5001,-205.991 387.5001,-205.9909"/>
</g>
<!-- ProductServiceModule -->
<g id="node3" class="node">
<title>ProductServiceModule</title>
<polygon fill="#8dd3c7" stroke="#000000" points="607.5758,-122 604.5758,-126 583.5758,-126 580.5758,-122 462.4242,-122 462.4242,-86 607.5758,-86 607.5758,-122"/>
<text text-anchor="middle" x="535" y="-99.8" font-family="Times,serif" font-size="14.00" fill="#000000">ProductServiceModule</text>
</g>
<!-- ProductServiceModule&#45;&gt;ProductsListModule -->
<g id="edge2" class="edge">
<title>ProductServiceModule&#45;&gt;ProductsListModule</title>
<path fill="none" stroke="#000000" d="M462.4557,-104C455.1314,-104 450.3237,-104 450.3237,-104 450.3237,-104 450.3237,-140.8939 450.3237,-140.8939"/>
<polygon fill="#000000" stroke="#000000" points="446.8237,-140.8938 450.3237,-150.8939 453.8237,-140.8939 446.8237,-140.8938"/>
</g>
<!-- BrowserModule -->
<g id="node4" class="node">
<title>BrowserModule</title>
<polygon fill="#8dd3c7" stroke="#000000" points="444.4734,-122 441.4734,-126 420.4734,-126 417.4734,-122 337.5266,-122 337.5266,-86 444.4734,-86 444.4734,-122"/>
<text text-anchor="middle" x="391" y="-99.8" font-family="Times,serif" font-size="14.00" fill="#000000">BrowserModule</text>
</g>
<!-- BrowserModule&#45;&gt;ProductsListModule -->
<g id="edge3" class="edge">
<title>BrowserModule&#45;&gt;ProductsListModule</title>
<path fill="none" stroke="#000000" d="M391,-122.1061C391,-122.1061 391,-140.991 391,-140.991"/>
<polygon fill="#000000" stroke="#000000" points="387.5001,-140.9909 391,-150.991 394.5001,-140.991 387.5001,-140.9909"/>
</g>
<!-- AttributesSearchModule -->
<g id="node5" class="node">
<title>AttributesSearchModule</title>
<polygon fill="#8dd3c7" stroke="#000000" points="319.6261,-122 316.6261,-126 295.6261,-126 292.6261,-122 166.3739,-122 166.3739,-86 319.6261,-86 319.6261,-122"/>
<text text-anchor="middle" x="243" y="-99.8" font-family="Times,serif" font-size="14.00" fill="#000000">AttributesSearchModule</text>
</g>
<!-- AttributesSearchModule&#45;&gt;ProductsListModule -->
<g id="edge4" class="edge">
<title>AttributesSearchModule&#45;&gt;ProductsListModule</title>
<path fill="none" stroke="#000000" d="M319.7171,-104C326.9662,-104 331.6764,-104 331.6764,-104 331.6764,-104 331.6764,-140.8939 331.6764,-140.8939"/>
<polygon fill="#000000" stroke="#000000" points="328.1764,-140.8938 331.6764,-150.8939 335.1764,-140.8939 328.1764,-140.8938"/>
</g>
<!-- TagsSearchModule -->
<g id="node6" class="node">
<title>TagsSearchModule</title>
<polygon fill="#8dd3c7" stroke="#000000" points="148.3487,-122 145.3487,-126 124.3487,-126 121.3487,-122 23.6513,-122 23.6513,-86 148.3487,-86 148.3487,-122"/>
<text text-anchor="middle" x="86" y="-99.8" font-family="Times,serif" font-size="14.00" fill="#000000">TagsSearchModule</text>
</g>
<!-- TagsSearchModule&#45;&gt;ProductsListModule -->
<g id="edge5" class="edge">
<title>TagsSearchModule&#45;&gt;ProductsListModule</title>
<path fill="none" stroke="#000000" d="M86,-122.1061C86,-141.3391 86,-169 86,-169 86,-169 315.5698,-169 315.5698,-169"/>
<polygon fill="#000000" stroke="#000000" points="315.5699,-172.5001 325.5698,-169 315.5698,-165.5001 315.5699,-172.5001"/>
</g>
</g>
</svg>
