<?xml version="1.0" encoding="UTF-8" standalone="no"?>
<!DOCTYPE svg PUBLIC "-//W3C//DTD SVG 1.1//EN"
 "http://www.w3.org/Graphics/SVG/1.1/DTD/svg11.dtd">
<!-- Generated by graphviz version 2.40.1 (20161225.0304)
 -->
<!-- Title: dependencies Pages: 1 -->
<svg width="932pt" height="284pt"
 viewBox="0.00 0.00 932.00 284.00" xmlns="http://www.w3.org/2000/svg" xmlns:xlink="http://www.w3.org/1999/xlink">
<g id="graph0" class="graph" transform="scale(1 1) rotate(0) translate(4 280)">
<title>dependencies</title>
<polygon fill="#ffffff" stroke="transparent" points="-4,4 -4,-280 928,-280 928,4 -4,4"/>
<text text-anchor="start" x="441.0091" y="-42.4" font-family="sans-serif" font-weight="bold" font-size="14.00" fill="#000000">Legend</text>
<polygon fill="#ffffb3" stroke="transparent" points="228,-10 228,-30 248,-30 248,-10 228,-10"/>
<text text-anchor="start" x="251.629" y="-15.4" font-family="sans-serif" font-size="14.00" fill="#000000"> &#160;Declarations</text>
<polygon fill="#8dd3c7" stroke="transparent" points="341,-10 341,-30 361,-30 361,-10 341,-10"/>
<text text-anchor="start" x="364.7251" y="-15.4" font-family="sans-serif" font-size="14.00" fill="#000000"> &#160;Module</text>
<polygon fill="#80b1d3" stroke="transparent" points="427,-10 427,-30 447,-30 447,-10 427,-10"/>
<text text-anchor="start" x="450.7812" y="-15.4" font-family="sans-serif" font-size="14.00" fill="#000000"> &#160;Bootstrap</text>
<polygon fill="#fdb462" stroke="transparent" points="524,-10 524,-30 544,-30 544,-10 524,-10"/>
<text text-anchor="start" x="547.6732" y="-15.4" font-family="sans-serif" font-size="14.00" fill="#000000"> &#160;Providers</text>
<polygon fill="#fb8072" stroke="transparent" points="620,-10 620,-30 640,-30 640,-10 620,-10"/>
<text text-anchor="start" x="643.7258" y="-15.4" font-family="sans-serif" font-size="14.00" fill="#000000"> &#160;Exports</text>
<g id="clust1" class="cluster">
<title>cluster_ProductsListModule</title>
<polygon fill="none" stroke="#000000" stroke-dasharray="1,5" points="8,-70 8,-268 916,-268 916,-70 8,-70"/>
</g>
<g id="clust2" class="cluster">
<title>cluster_ProductsListModule_declarations</title>
<polygon fill="none" stroke="#000000" points="740,-78 740,-130 908,-130 908,-78 740,-78"/>
</g>
<g id="clust4" class="cluster">
<title>cluster_ProductsListModule_imports</title>
<polygon fill="none" stroke="#000000" points="16,-78 16,-130 732,-130 732,-78 16,-78"/>
</g>
<g id="clust5" class="cluster">
<title>cluster_ProductsListModule_exports</title>
<polygon fill="none" stroke="#000000" points="347,-208 347,-260 519,-260 519,-208 347,-208"/>
</g>
<!-- ProductsListComponent -->
<g id="node1" class="node">
<title>ProductsListComponent</title>
<polygon fill="#ffffb3" stroke="#000000" points="900.1038,-122 747.8962,-122 747.8962,-86 900.1038,-86 900.1038,-122"/>
<text text-anchor="middle" x="824" y="-99.8" font-family="Times,serif" font-size="14.00" fill="#000000">ProductsListComponent</text>
</g>
<!-- ProductsListModule -->
<g id="node2" class="node">
<title>ProductsListModule</title>
<polygon fill="#8dd3c7" stroke="#000000" points="498.3216,-187 495.3216,-191 474.3216,-191 471.3216,-187 367.6784,-187 367.6784,-151 498.3216,-151 498.3216,-187"/>
<text text-anchor="middle" x="433" y="-164.8" font-family="Times,serif" font-size="14.00" fill="#000000">ProductsListModule</text>
</g>
<!-- ProductsListComponent&#45;&gt;ProductsListModule -->
<g id="edge1" class="edge">
<title>ProductsListComponent&#45;&gt;ProductsListModule</title>
<path fill="none" stroke="#000000" d="M824,-122.2843C824,-143.3211 824,-175 824,-175 824,-175 508.4446,-175 508.4446,-175"/>
<polygon fill="#000000" stroke="#000000" points="508.4446,-171.5001 498.4446,-175 508.4446,-178.5001 508.4446,-171.5001"/>
</g>
<!-- ProductsListComponent  -->
<g id="node8" class="node">
<title>ProductsListComponent </title>
<polygon fill="#fb8072" stroke="#000000" points="510.6043,-252 355.3957,-252 355.3957,-216 510.6043,-216 510.6043,-252"/>
<text text-anchor="middle" x="433" y="-229.8" font-family="Times,serif" font-size="14.00" fill="#000000">ProductsListComponent </text>
</g>
<!-- ProductsListModule&#45;&gt;ProductsListComponent  -->
<g id="edge7" class="edge">
<title>ProductsListModule&#45;&gt;ProductsListComponent </title>
<path fill="none" stroke="#000000" stroke-dasharray="5,2" d="M433,-187.1061C433,-187.1061 433,-205.991 433,-205.991"/>
<polygon fill="#000000" stroke="#000000" points="429.5001,-205.9909 433,-215.991 436.5001,-205.991 429.5001,-205.9909"/>
</g>
<!-- ProductServiceModule -->
<g id="node3" class="node">
<title>ProductServiceModule</title>
<polygon fill="#8dd3c7" stroke="#000000" points="723.5758,-122 720.5758,-126 699.5758,-126 696.5758,-122 578.4242,-122 578.4242,-86 723.5758,-86 723.5758,-122"/>
<text text-anchor="middle" x="651" y="-99.8" font-family="Times,serif" font-size="14.00" fill="#000000">ProductServiceModule</text>
</g>
<!-- ProductServiceModule&#45;&gt;ProductsListModule -->
<g id="edge2" class="edge">
<title>ProductServiceModule&#45;&gt;ProductsListModule</title>
<path fill="none" stroke="#000000" d="M651,-122.0225C651,-139.3734 651,-163 651,-163 651,-163 508.4072,-163 508.4072,-163"/>
<polygon fill="#000000" stroke="#000000" points="508.4072,-159.5001 498.4072,-163 508.4072,-166.5001 508.4072,-159.5001"/>
</g>
<!-- BrowserModule -->
<g id="node4" class="node">
<title>BrowserModule</title>
<polygon fill="#8dd3c7" stroke="#000000" points="560.4734,-122 557.4734,-126 536.4734,-126 533.4734,-122 453.5266,-122 453.5266,-86 560.4734,-86 560.4734,-122"/>
<text text-anchor="middle" x="507" y="-99.8" font-family="Times,serif" font-size="14.00" fill="#000000">BrowserModule</text>
</g>
<!-- BrowserModule&#45;&gt;ProductsListModule -->
<g id="edge3" class="edge">
<title>BrowserModule&#45;&gt;ProductsListModule</title>
<path fill="none" stroke="#000000" d="M475.837,-122.1061C475.837,-122.1061 475.837,-140.991 475.837,-140.991"/>
<polygon fill="#000000" stroke="#000000" points="472.337,-140.9909 475.837,-150.991 479.337,-140.991 472.337,-140.9909"/>
</g>
<!-- AttributesSearchModule -->
<g id="node5" class="node">
<title>AttributesSearchModule</title>
<polygon fill="#8dd3c7" stroke="#000000" points="435.6261,-122 432.6261,-126 411.6261,-126 408.6261,-122 282.3739,-122 282.3739,-86 435.6261,-86 435.6261,-122"/>
<text text-anchor="middle" x="359" y="-99.8" font-family="Times,serif" font-size="14.00" fill="#000000">AttributesSearchModule</text>
</g>
<!-- AttributesSearchModule&#45;&gt;ProductsListModule -->
<g id="edge4" class="edge">
<title>AttributesSearchModule&#45;&gt;ProductsListModule</title>
<path fill="none" stroke="#000000" d="M401.8261,-122.1061C401.8261,-122.1061 401.8261,-140.991 401.8261,-140.991"/>
<polygon fill="#000000" stroke="#000000" points="398.3262,-140.9909 401.8261,-150.991 405.3262,-140.991 398.3262,-140.9909"/>
</g>
<!-- TagsSearchModule -->
<g id="node6" class="node">
<title>TagsSearchModule</title>
<polygon fill="#8dd3c7" stroke="#000000" points="264.3487,-122 261.3487,-126 240.3487,-126 237.3487,-122 139.6513,-122 139.6513,-86 264.3487,-86 264.3487,-122"/>
<text text-anchor="middle" x="202" y="-99.8" font-family="Times,serif" font-size="14.00" fill="#000000">TagsSearchModule</text>
</g>
<!-- TagsSearchModule&#45;&gt;ProductsListModule -->
<g id="edge5" class="edge">
<title>TagsSearchModule&#45;&gt;ProductsListModule</title>
<path fill="none" stroke="#000000" d="M202,-122.0225C202,-139.3734 202,-163 202,-163 202,-163 357.7309,-163 357.7309,-163"/>
<polygon fill="#000000" stroke="#000000" points="357.731,-166.5001 367.7309,-163 357.7309,-159.5001 357.731,-166.5001"/>
</g>
<!-- RouterModule -->
<g id="node7" class="node">
<title>RouterModule</title>
<polygon fill="#8dd3c7" stroke="#000000" points="121.6528,-122 118.6528,-126 97.6528,-126 94.6528,-122 24.3472,-122 24.3472,-86 121.6528,-86 121.6528,-122"/>
<text text-anchor="middle" x="73" y="-99.8" font-family="Times,serif" font-size="14.00" fill="#000000">RouterModule</text>
</g>
<!-- RouterModule&#45;&gt;ProductsListModule -->
<g id="edge6" class="edge">
<title>RouterModule&#45;&gt;ProductsListModule</title>
<path fill="none" stroke="#000000" d="M73,-122.2843C73,-143.3211 73,-175 73,-175 73,-175 357.8067,-175 357.8067,-175"/>
<polygon fill="#000000" stroke="#000000" points="357.8068,-178.5001 367.8067,-175 357.8067,-171.5001 357.8068,-178.5001"/>
</g>
</g>
</svg>
